<?xml version="1.0" encoding="UTF-8"?>
<svg width="1114px" height="774px" viewBox="0 0 1114 774" version="1.1" xmlns="http://www.w3.org/2000/svg" xmlns:xlink="http://www.w3.org/1999/xlink">
    <!-- Generator: Sketch 64 (93537) - https://sketch.com -->
    <title>hero-img-blue-2</title>
    <desc>Created with Sketch.</desc>
    <defs>
        <path d="M1068.03871,607.245739 C1072.21649,602.142842 1072.71541,594.957732 1069.283,589.326397 C1065.85058,583.695062 1059.23563,580.846006 1052.7856,582.22098 L1053.1743,590.21366 L1049.3928,583.36386 C1045.68148,585.107699 1042.81433,588.253667 1041.4214,592.11043 C1040.92672,593.461403 1040.626,594.875665 1040.5282,596.31103 C1040.03773,603.230593 1044.19698,609.635907 1050.7176,612.00286 C1056.91569,614.256097 1063.86093,612.348636 1068.03871,607.245739 Z" id="path-1"></path>
        <path d="M1078.7075,555.92454 L1079.9861,563.52295 L1082.3565,555.54261 C1089.10973,555.642773 1095.02362,560.097014 1096.9844,566.560104 C1098.94518,573.023193 1096.50305,580.012492 1090.94383,583.848021 C1085.38461,587.683551 1077.9836,587.485438 1072.63754,583.357991 C1067.29148,579.230545 1065.22676,572.120605 1067.5305,565.77167 C1069.33309,560.798 1073.54634,557.086056 1078.7075,555.92454 Z" id="path-2"></path>
        <path d="M1098.36148,640.177665 C1101.87763,633.110134 1099.53131,624.52925 1092.9082,620.23416 L1091.0867,626.36681 L1089.7951,618.67881 C1089.78251,618.672814 1089.76947,618.667799 1089.7561,618.66381 C1084.54056,616.769849 1078.71076,617.80289 1074.46357,621.373644 C1070.21638,624.944398 1068.19735,630.510131 1069.16734,635.973466 C1070.13733,641.436801 1073.9489,645.967341 1079.1657,647.85781 C1086.58594,650.549653 1094.84532,647.245197 1098.36148,640.177665 Z" id="path-3"></path>
        <path d="M1062.9989,673.64596 C1064.26914,680.873835 1070.42822,686.224185 1077.7627,686.471183 C1085.09719,686.71818 1091.60226,681.794311 1093.35589,674.668269 C1095.10952,667.542226 1091.63236,660.161859 1085.02086,656.976929 C1078.40936,653.792 1070.47072,655.673083 1065.9913,661.48604 L1072.9099,671.89941 L1063.4565,666.37232 C1062.72352,668.725206 1062.56658,671.219762 1062.9989,673.64596 Z" id="path-4"></path>
        <ellipse id="path-5" cx="192.55" cy="735.23" rx="6.64" ry="8.69"></ellipse>
        <ellipse id="path-6" cx="192.55" cy="724.61" rx="6.64" ry="8.69"></ellipse>
        <ellipse id="path-7" cx="192.55" cy="713.99" rx="6.64" ry="8.69"></ellipse>
        <ellipse id="path-8" cx="192.55" cy="703.37" rx="6.64" ry="8.69"></ellipse>
        <ellipse id="path-9" cx="192.55" cy="692.75" rx="6.64" ry="8.69"></ellipse>
        <ellipse id="path-10" cx="192.55" cy="682.13" rx="6.64" ry="8.69"></ellipse>
        <ellipse id="path-11" cx="192.55" cy="671.51" rx="6.64" ry="8.69"></ellipse>
        <polyline id="path-12" points="318.5 374.41 448.5 229.41 578.5 302.41 708.5 78.41 838.5 185.41"></polyline>
        <linearGradient x1="99.982811%" y1="50.0000413%" x2="0.0187255522%" y2="50.0000413%" id="linearGradient-13">
            <stop stop-color="#808080" stop-opacity="0.25" offset="0%"></stop>
            <stop stop-color="#808080" stop-opacity="0.12" offset="54%"></stop>
            <stop stop-color="#808080" stop-opacity="0.1" offset="100%"></stop>
        </linearGradient>
        <path d="M30.0261429,19.9414286 C30.8181429,19.9414286 31.5955714,20.0348571 32.3477143,20.2118571 C32.3537143,20.2131429 32.3597143,20.2148571 32.3657143,20.2157143 C34.158,20.6408571 35.8028571,21.5524286 37.1382857,22.8874286 C37.7241429,23.4728571 38.6742857,23.4732857 39.2592857,22.8874286 C39.8451429,22.3015714 39.8451429,21.3518571 39.2592857,20.766 C37.8021429,19.3088571 36.06,18.2425714 34.1605714,17.6104286 L34.1605714,13.6037143 C34.1605714,12.7752857 33.489,12.1037143 32.6605714,12.1037143 C31.8321429,12.1037143 31.1605714,12.7752857 31.1605714,13.6037143 L31.1605714,16.9924286 C30.7851429,16.9602857 30.4071429,16.941 30.0261429,16.941 C29.6447143,16.941 29.2667143,16.9602857 28.8912857,16.9924286 L28.8912857,13.6037143 C28.8912857,12.7752857 28.2197143,12.1037143 27.3912857,12.1037143 C26.5628571,12.1037143 25.8912857,12.7752857 25.8912857,13.6037143 L25.8912857,17.6104286 C23.9918571,18.2425714 22.2497143,19.3092857 20.793,20.766 C18.3261429,23.2324286 16.9675714,26.5118571 16.9675714,30 C16.9675714,33.4881429 18.3261429,36.7671429 20.7925714,39.2335714 C22.2497143,40.6907143 23.9914286,41.757 25.8908571,42.3891429 L25.8908571,46.3958571 C25.8908571,47.2242857 26.5624286,47.8958571 27.3908571,47.8958571 C28.2192857,47.8958571 28.8908571,47.2242857 28.8908571,46.3958571 L28.8908571,43.0071429 C29.2662857,43.0392857 29.6447143,43.0585714 30.0257143,43.0585714 C30.4067143,43.0585714 30.7851429,43.0392857 31.1601429,43.0071429 L31.1601429,46.3958571 C31.1601429,47.2242857 31.8317143,47.8958571 32.6601429,47.8958571 C33.4885714,47.8958571 34.1601429,47.2242857 34.1601429,46.3958571 L34.1601429,42.3895714 C36.06,41.7574286 37.8021429,40.6907143 39.2588571,39.2335714 C39.8447143,38.6481429 39.8447143,37.698 39.2588571,37.1125714 C38.673,36.5267143 37.7237143,36.5267143 37.1378571,37.1125714 C35.802,38.448 34.1562857,39.3595714 32.3635714,39.7847143 C32.3588571,39.7855714 32.3541429,39.7868571 32.3494286,39.7877143 C31.5964286,39.9651429 30.8181429,40.0585714 30.0252857,40.0585714 C29.2367143,40.0585714 28.4631429,39.966 27.714,39.7907143 C27.7015714,39.7881429 27.6895714,39.7847143 27.6771429,39.7825714 C25.8882857,39.3565714 24.246,38.4458571 22.9127143,37.1125714 C21.0137143,35.2122857 19.9675714,32.6867143 19.9675714,30 C19.9675714,27.3128571 21.0137143,24.7872857 22.9135714,22.8878571 C24.8134286,20.988 27.3394286,19.9414286 30.0261429,19.9414286 Z" id="path-14"></path>
        <filter x="-11.0%" y="-7.0%" width="130.8%" height="119.6%" filterUnits="objectBoundingBox" id="filter-15">
            <feOffset dx="1" dy="1" in="SourceAlpha" result="shadowOffsetOuter1"></feOffset>
            <feGaussianBlur stdDeviation="1" in="shadowOffsetOuter1" result="shadowBlurOuter1"></feGaussianBlur>
            <feColorMatrix values="0 0 0 0 1   0 0 0 0 0.760784314   0 0 0 0 0  0 0 0 1 0" type="matrix" in="shadowBlurOuter1"></feColorMatrix>
        </filter>
        <path d="M30.0261429,19.9414286 C30.8181429,19.9414286 31.5955714,20.0348571 32.3477143,20.2118571 C32.3537143,20.2131429 32.3597143,20.2148571 32.3657143,20.2157143 C34.158,20.6408571 35.8028571,21.5524286 37.1382857,22.8874286 C37.7241429,23.4728571 38.6742857,23.4732857 39.2592857,22.8874286 C39.8451429,22.3015714 39.8451429,21.3518571 39.2592857,20.766 C37.8021429,19.3088571 36.06,18.2425714 34.1605714,17.6104286 L34.1605714,13.6037143 C34.1605714,12.7752857 33.489,12.1037143 32.6605714,12.1037143 C31.8321429,12.1037143 31.1605714,12.7752857 31.1605714,13.6037143 L31.1605714,16.9924286 C30.7851429,16.9602857 30.4071429,16.941 30.0261429,16.941 C29.6447143,16.941 29.2667143,16.9602857 28.8912857,16.9924286 L28.8912857,13.6037143 C28.8912857,12.7752857 28.2197143,12.1037143 27.3912857,12.1037143 C26.5628571,12.1037143 25.8912857,12.7752857 25.8912857,13.6037143 L25.8912857,17.6104286 C23.9918571,18.2425714 22.2497143,19.3092857 20.793,20.766 C18.3261429,23.2324286 16.9675714,26.5118571 16.9675714,30 C16.9675714,33.4881429 18.3261429,36.7671429 20.7925714,39.2335714 C22.2497143,40.6907143 23.9914286,41.757 25.8908571,42.3891429 L25.8908571,46.3958571 C25.8908571,47.2242857 26.5624286,47.8958571 27.3908571,47.8958571 C28.2192857,47.8958571 28.8908571,47.2242857 28.8908571,46.3958571 L28.8908571,43.0071429 C29.2662857,43.0392857 29.6447143,43.0585714 30.0257143,43.0585714 C30.4067143,43.0585714 30.7851429,43.0392857 31.1601429,43.0071429 L31.1601429,46.3958571 C31.1601429,47.2242857 31.8317143,47.8958571 32.6601429,47.8958571 C33.4885714,47.8958571 34.1601429,47.2242857 34.1601429,46.3958571 L34.1601429,42.3895714 C36.06,41.7574286 37.8021429,40.6907143 39.2588571,39.2335714 C39.8447143,38.6481429 39.8447143,37.698 39.2588571,37.1125714 C38.673,36.5267143 37.7237143,36.5267143 37.1378571,37.1125714 C35.802,38.448 34.1562857,39.3595714 32.3635714,39.7847143 C32.3588571,39.7855714 32.3541429,39.7868571 32.3494286,39.7877143 C31.5964286,39.9651429 30.8181429,40.0585714 30.0252857,40.0585714 C29.2367143,40.0585714 28.4631429,39.966 27.714,39.7907143 C27.7015714,39.7881429 27.6895714,39.7847143 27.6771429,39.7825714 C25.8882857,39.3565714 24.246,38.4458571 22.9127143,37.1125714 C21.0137143,35.2122857 19.9675714,32.6867143 19.9675714,30 C19.9675714,27.3128571 21.0137143,24.7872857 22.9135714,22.8878571 C24.8134286,20.988 27.3394286,19.9414286 30.0261429,19.9414286 Z" id="path-16"></path>
        <filter x="-11.0%" y="-7.0%" width="130.8%" height="119.6%" filterUnits="objectBoundingBox" id="filter-17">
            <feOffset dx="1" dy="1" in="SourceAlpha" result="shadowOffsetOuter1"></feOffset>
            <feGaussianBlur stdDeviation="1" in="shadowOffsetOuter1" result="shadowBlurOuter1"></feGaussianBlur>
            <feColorMatrix values="0 0 0 0 1   0 0 0 0 0.760784314   0 0 0 0 0  0 0 0 1 0" type="matrix" in="shadowBlurOuter1" result="shadowMatrixOuter1"></feColorMatrix>
            <feOffset dx="1" dy="1" in="SourceAlpha" result="shadowOffsetOuter2"></feOffset>
            <feGaussianBlur stdDeviation="1" in="shadowOffsetOuter2" result="shadowBlurOuter2"></feGaussianBlur>
            <feColorMatrix values="0 0 0 0 0   0 0 0 0 0   0 0 0 0 0  0 0 0 0.33 0" type="matrix" in="shadowBlurOuter2" result="shadowMatrixOuter2"></feColorMatrix>
            <feMerge>
                <feMergeNode in="shadowMatrixOuter1"></feMergeNode>
                <feMergeNode in="shadowMatrixOuter2"></feMergeNode>
            </feMerge>
        </filter>
        <path d="M30.0261429,19.9414286 C30.8181429,19.9414286 31.5955714,20.0348571 32.3477143,20.2118571 C32.3537143,20.2131429 32.3597143,20.2148571 32.3657143,20.2157143 C34.158,20.6408571 35.8028571,21.5524286 37.1382857,22.8874286 C37.7241429,23.4728571 38.6742857,23.4732857 39.2592857,22.8874286 C39.8451429,22.3015714 39.8451429,21.3518571 39.2592857,20.766 C37.8021429,19.3088571 36.06,18.2425714 34.1605714,17.6104286 L34.1605714,13.6037143 C34.1605714,12.7752857 33.489,12.1037143 32.6605714,12.1037143 C31.8321429,12.1037143 31.1605714,12.7752857 31.1605714,13.6037143 L31.1605714,16.9924286 C30.7851429,16.9602857 30.4071429,16.941 30.0261429,16.941 C29.6447143,16.941 29.2667143,16.9602857 28.8912857,16.9924286 L28.8912857,13.6037143 C28.8912857,12.7752857 28.2197143,12.1037143 27.3912857,12.1037143 C26.5628571,12.1037143 25.8912857,12.7752857 25.8912857,13.6037143 L25.8912857,17.6104286 C23.9918571,18.2425714 22.2497143,19.3092857 20.793,20.766 C18.3261429,23.2324286 16.9675714,26.5118571 16.9675714,30 C16.9675714,33.4881429 18.3261429,36.7671429 20.7925714,39.2335714 C22.2497143,40.6907143 23.9914286,41.757 25.8908571,42.3891429 L25.8908571,46.3958571 C25.8908571,47.2242857 26.5624286,47.8958571 27.3908571,47.8958571 C28.2192857,47.8958571 28.8908571,47.2242857 28.8908571,46.3958571 L28.8908571,43.0071429 C29.2662857,43.0392857 29.6447143,43.0585714 30.0257143,43.0585714 C30.4067143,43.0585714 30.7851429,43.0392857 31.1601429,43.0071429 L31.1601429,46.3958571 C31.1601429,47.2242857 31.8317143,47.8958571 32.6601429,47.8958571 C33.4885714,47.8958571 34.1601429,47.2242857 34.1601429,46.3958571 L34.1601429,42.3895714 C36.06,41.7574286 37.8021429,40.6907143 39.2588571,39.2335714 C39.8447143,38.6481429 39.8447143,37.698 39.2588571,37.1125714 C38.673,36.5267143 37.7237143,36.5267143 37.1378571,37.1125714 C35.802,38.448 34.1562857,39.3595714 32.3635714,39.7847143 C32.3588571,39.7855714 32.3541429,39.7868571 32.3494286,39.7877143 C31.5964286,39.9651429 30.8181429,40.0585714 30.0252857,40.0585714 C29.2367143,40.0585714 28.4631429,39.966 27.714,39.7907143 C27.7015714,39.7881429 27.6895714,39.7847143 27.6771429,39.7825714 C25.8882857,39.3565714 24.246,38.4458571 22.9127143,37.1125714 C21.0137143,35.2122857 19.9675714,32.6867143 19.9675714,30 C19.9675714,27.3128571 21.0137143,24.7872857 22.9135714,22.8878571 C24.8134286,20.988 27.3394286,19.9414286 30.0261429,19.9414286 Z" id="path-18"></path>
        <filter x="-11.0%" y="-7.0%" width="130.8%" height="119.6%" filterUnits="objectBoundingBox" id="filter-19">
            <feOffset dx="1" dy="1" in="SourceAlpha" result="shadowOffsetOuter1"></feOffset>
            <feGaussianBlur stdDeviation="1" in="shadowOffsetOuter1" result="shadowBlurOuter1"></feGaussianBlur>
            <feColorMatrix values="0 0 0 0 1   0 0 0 0 0.760784314   0 0 0 0 0  0 0 0 1 0" type="matrix" in="shadowBlurOuter1" result="shadowMatrixOuter1"></feColorMatrix>
            <feOffset dx="1" dy="1" in="SourceAlpha" result="shadowOffsetOuter2"></feOffset>
            <feGaussianBlur stdDeviation="1" in="shadowOffsetOuter2" result="shadowBlurOuter2"></feGaussianBlur>
            <feColorMatrix values="0 0 0 0 0   0 0 0 0 0   0 0 0 0 0  0 0 0 0.33 0" type="matrix" in="shadowBlurOuter2" result="shadowMatrixOuter2"></feColorMatrix>
            <feMerge>
                <feMergeNode in="shadowMatrixOuter1"></feMergeNode>
                <feMergeNode in="shadowMatrixOuter2"></feMergeNode>
            </feMerge>
        </filter>
        <path d="M30.0261429,19.9414286 C30.8181429,19.9414286 31.5955714,20.0348571 32.3477143,20.2118571 C32.3537143,20.2131429 32.3597143,20.2148571 32.3657143,20.2157143 C34.158,20.6408571 35.8028571,21.5524286 37.1382857,22.8874286 C37.7241429,23.4728571 38.6742857,23.4732857 39.2592857,22.8874286 C39.8451429,22.3015714 39.8451429,21.3518571 39.2592857,20.766 C37.8021429,19.3088571 36.06,18.2425714 34.1605714,17.6104286 L34.1605714,13.6037143 C34.1605714,12.7752857 33.489,12.1037143 32.6605714,12.1037143 C31.8321429,12.1037143 31.1605714,12.7752857 31.1605714,13.6037143 L31.1605714,16.9924286 C30.7851429,16.9602857 30.4071429,16.941 30.0261429,16.941 C29.6447143,16.941 29.2667143,16.9602857 28.8912857,16.9924286 L28.8912857,13.6037143 C28.8912857,12.7752857 28.2197143,12.1037143 27.3912857,12.1037143 C26.5628571,12.1037143 25.8912857,12.7752857 25.8912857,13.6037143 L25.8912857,17.6104286 C23.9918571,18.2425714 22.2497143,19.3092857 20.793,20.766 C18.3261429,23.2324286 16.9675714,26.5118571 16.9675714,30 C16.9675714,33.4881429 18.3261429,36.7671429 20.7925714,39.2335714 C22.2497143,40.6907143 23.9914286,41.757 25.8908571,42.3891429 L25.8908571,46.3958571 C25.8908571,47.2242857 26.5624286,47.8958571 27.3908571,47.8958571 C28.2192857,47.8958571 28.8908571,47.2242857 28.8908571,46.3958571 L28.8908571,43.0071429 C29.2662857,43.0392857 29.6447143,43.0585714 30.0257143,43.0585714 C30.4067143,43.0585714 30.7851429,43.0392857 31.1601429,43.0071429 L31.1601429,46.3958571 C31.1601429,47.2242857 31.8317143,47.8958571 32.6601429,47.8958571 C33.4885714,47.8958571 34.1601429,47.2242857 34.1601429,46.3958571 L34.1601429,42.3895714 C36.06,41.7574286 37.8021429,40.6907143 39.2588571,39.2335714 C39.8447143,38.6481429 39.8447143,37.698 39.2588571,37.1125714 C38.673,36.5267143 37.7237143,36.5267143 37.1378571,37.1125714 C35.802,38.448 34.1562857,39.3595714 32.3635714,39.7847143 C32.3588571,39.7855714 32.3541429,39.7868571 32.3494286,39.7877143 C31.5964286,39.9651429 30.8181429,40.0585714 30.0252857,40.0585714 C29.2367143,40.0585714 28.4631429,39.966 27.714,39.7907143 C27.7015714,39.7881429 27.6895714,39.7847143 27.6771429,39.7825714 C25.8882857,39.3565714 24.246,38.4458571 22.9127143,37.1125714 C21.0137143,35.2122857 19.9675714,32.6867143 19.9675714,30 C19.9675714,27.3128571 21.0137143,24.7872857 22.9135714,22.8878571 C24.8134286,20.988 27.3394286,19.9414286 30.0261429,19.9414286 Z" id="path-20"></path>
        <filter x="-11.0%" y="-7.0%" width="130.8%" height="119.6%" filterUnits="objectBoundingBox" id="filter-21">
            <feOffset dx="1" dy="1" in="SourceAlpha" result="shadowOffsetOuter1"></feOffset>
            <feGaussianBlur stdDeviation="1" in="shadowOffsetOuter1" result="shadowBlurOuter1"></feGaussianBlur>
            <feColorMatrix values="0 0 0 0 1   0 0 0 0 0.760784314   0 0 0 0 0  0 0 0 1 0" type="matrix" in="shadowBlurOuter1" result="shadowMatrixOuter1"></feColorMatrix>
            <feOffset dx="1" dy="1" in="SourceAlpha" result="shadowOffsetOuter2"></feOffset>
            <feGaussianBlur stdDeviation="1" in="shadowOffsetOuter2" result="shadowBlurOuter2"></feGaussianBlur>
            <feColorMatrix values="0 0 0 0 0   0 0 0 0 0   0 0 0 0 0  0 0 0 0.1 0" type="matrix" in="shadowBlurOuter2" result="shadowMatrixOuter2"></feColorMatrix>
            <feMerge>
                <feMergeNode in="shadowMatrixOuter1"></feMergeNode>
                <feMergeNode in="shadowMatrixOuter2"></feMergeNode>
            </feMerge>
        </filter>
        <path d="M30.0261429,19.9414286 C30.8181429,19.9414286 31.5955714,20.0348571 32.3477143,20.2118571 C32.3537143,20.2131429 32.3597143,20.2148571 32.3657143,20.2157143 C34.158,20.6408571 35.8028571,21.5524286 37.1382857,22.8874286 C37.7241429,23.4728571 38.6742857,23.4732857 39.2592857,22.8874286 C39.8451429,22.3015714 39.8451429,21.3518571 39.2592857,20.766 C37.8021429,19.3088571 36.06,18.2425714 34.1605714,17.6104286 L34.1605714,13.6037143 C34.1605714,12.7752857 33.489,12.1037143 32.6605714,12.1037143 C31.8321429,12.1037143 31.1605714,12.7752857 31.1605714,13.6037143 L31.1605714,16.9924286 C30.7851429,16.9602857 30.4071429,16.941 30.0261429,16.941 C29.6447143,16.941 29.2667143,16.9602857 28.8912857,16.9924286 L28.8912857,13.6037143 C28.8912857,12.7752857 28.2197143,12.1037143 27.3912857,12.1037143 C26.5628571,12.1037143 25.8912857,12.7752857 25.8912857,13.6037143 L25.8912857,17.6104286 C23.9918571,18.2425714 22.2497143,19.3092857 20.793,20.766 C18.3261429,23.2324286 16.9675714,26.5118571 16.9675714,30 C16.9675714,33.4881429 18.3261429,36.7671429 20.7925714,39.2335714 C22.2497143,40.6907143 23.9914286,41.757 25.8908571,42.3891429 L25.8908571,46.3958571 C25.8908571,47.2242857 26.5624286,47.8958571 27.3908571,47.8958571 C28.2192857,47.8958571 28.8908571,47.2242857 28.8908571,46.3958571 L28.8908571,43.0071429 C29.2662857,43.0392857 29.6447143,43.0585714 30.0257143,43.0585714 C30.4067143,43.0585714 30.7851429,43.0392857 31.1601429,43.0071429 L31.1601429,46.3958571 C31.1601429,47.2242857 31.8317143,47.8958571 32.6601429,47.8958571 C33.4885714,47.8958571 34.1601429,47.2242857 34.1601429,46.3958571 L34.1601429,42.3895714 C36.06,41.7574286 37.8021429,40.6907143 39.2588571,39.2335714 C39.8447143,38.6481429 39.8447143,37.698 39.2588571,37.1125714 C38.673,36.5267143 37.7237143,36.5267143 37.1378571,37.1125714 C35.802,38.448 34.1562857,39.3595714 32.3635714,39.7847143 C32.3588571,39.7855714 32.3541429,39.7868571 32.3494286,39.7877143 C31.5964286,39.9651429 30.8181429,40.0585714 30.0252857,40.0585714 C29.2367143,40.0585714 28.4631429,39.966 27.714,39.7907143 C27.7015714,39.7881429 27.6895714,39.7847143 27.6771429,39.7825714 C25.8882857,39.3565714 24.246,38.4458571 22.9127143,37.1125714 C21.0137143,35.2122857 19.9675714,32.6867143 19.9675714,30 C19.9675714,27.3128571 21.0137143,24.7872857 22.9135714,22.8878571 C24.8134286,20.988 27.3394286,19.9414286 30.0261429,19.9414286 Z" id="path-22"></path>
        <filter x="-11.0%" y="-7.0%" width="130.8%" height="119.6%" filterUnits="objectBoundingBox" id="filter-23">
            <feOffset dx="1" dy="1" in="SourceAlpha" result="shadowOffsetOuter1"></feOffset>
            <feGaussianBlur stdDeviation="1" in="shadowOffsetOuter1" result="shadowBlurOuter1"></feGaussianBlur>
            <feColorMatrix values="0 0 0 0 1   0 0 0 0 0.760784314   0 0 0 0 0  0 0 0 1 0" type="matrix" in="shadowBlurOuter1"></feColorMatrix>
        </filter>
    </defs>
    <g id="Page-1" stroke="none" stroke-width="1" fill="none" fill-rule="evenodd">
        <g id="hero-img-blue-2">
            <path d="M1070.55,683.89 C1046.2,704.09 1011.55,712.45 978.04,717.73 L972.4,718.59 C937.4,723.81 902.01,726.59 866.5,728.28 C847.5,729.2 828.5,729.85 809.5,730.43 L794.61,730.87 C775.276667,731.443333 755.906667,732.006667 736.5,732.56 C717.5,733.1 698.5,733.606667 679.5,734.08 C655.166667,734.673333 630.833333,735.166667 606.5,735.56 C587.5,735.86 568.5,736.066667 549.5,736.18 C525.16,736.32 500.826667,736.273333 476.5,736.04 C457.486667,735.846667 438.486667,735.513333 419.5,735.04 C395.153333,734.413333 370.82,733.496667 346.5,732.29 C329.993333,731.483333 313.496667,730.513333 297.01,729.38 L289.5,728.85 C218.73,723.75 146.69,714.6 84.76,685.68 L83.09,684.89 C82.26,684.5 81.43,684.11 80.6,683.7 C69.2291796,678.263549 58.3372289,671.877574 48.04,664.61 C29.73,651.55 14.61,635.61 6.62,616.7 C-5.9,587.04 0.72,553.7 15.02,524.7 C29.32,495.7 50.79,469.52 69.36,442.21 C74.8,434.21 79.96,425.91 84.76,417.4 C114.76,364.03 129.64,302.27 98.19,250.84 C94.0387814,244.282785 89.5563092,237.941238 84.76,231.84 C77.09,221.84 69.29,211.84 64.02,200.77 C51.73,175.01 54.37,146.04 58.85,118.52 C64.85,81.93 75.85,42.52 110.23,19.66 C145.9,-4.08 196.53,-2.88 240.8,5.66 C309.63,18.85 373.16,46.46 437.29,71.36 C501.42,96.26 568.6,119.03 639.11,121.48 C654.256647,121.998333 669.420991,121.446963 684.49,119.83 C704.578879,117.76562 724.394696,113.592634 743.61,107.38 C771.36,98.24 796.61,84.49 815.33,65.38 C855.48,24.53 930.93,21.44 985.33,46.11 C1037.24,69.65 1070.81,119.47 1068.33,169.23 C1065.51,224.62 1024.03,270.16 986.02,316.87 C981.41,322.53 976.86,328.21 972.43,333.93 C969.956667,337.123333 967.53,340.323333 965.15,343.53 C960.98,349.19 956.95,354.88 953.15,360.64 C933.73,390.17 920,425.64 933.37,457.52 C940.87,475.37 955.18,488.99 972.43,500.88 C1011.08,527.51 1064.43,545.43 1088.43,582.71 C1109.11,614.84 1101.45,658.21 1070.55,683.89 Z" id="path15" fill="#0074D9" fill-rule="nonzero" opacity="0.1"></path>
            <path d="M1069.4285,704.70434 C1068.0936,697.90692 1073.8779,691.88079 1079.5914,687.96383 C1085.3049,684.04687 1091.9808,680.19829 1093.9303,673.551 C1096.7321,663.99768 1088.3866,655.24863 1081.8911,647.70382 C1077.07201,642.10472 1072.93354,635.954168 1069.5623,629.38087 C1068.09668,626.798914 1067.09842,623.978471 1066.6135,621.04941 C1066.1013,616.81479 1067.4618,612.60094 1068.8324,608.56167 C1073.39833,595.10567 1078.2801,581.762403 1083.4777,568.53187" id="path12" stroke="#001F3F" stroke-width="3"></path>
            <g id="path10" fill-rule="nonzero">
                <use fill="#57B894" xlink:href="#path-1"></use>
                <use fill="#FF767F" xlink:href="#path-1"></use>
            </g>
            <g id="path16" fill-rule="nonzero">
                <use fill="#57B894" xlink:href="#path-2"></use>
                <use fill="#FF767F" xlink:href="#path-2"></use>
            </g>
            <g id="path20" fill-rule="nonzero">
                <use fill="#57B894" xlink:href="#path-3"></use>
                <use fill="#FF767F" xlink:href="#path-3"></use>
            </g>
            <g id="path24" fill-rule="nonzero">
                <use fill="#57B894" xlink:href="#path-4"></use>
                <use fill="#FF767F" xlink:href="#path-4"></use>
            </g>
            <ellipse id="ellipse13" fill="#0074D9" fill-rule="nonzero" opacity="0.1" cx="965" cy="756.42" rx="64" ry="16.99"></ellipse>
            <g id="g31" opacity="0.1" transform="translate(469.000000, 12.000000)" fill-rule="nonzero">
                <path d="M98.5,549.35 C98.54,550.29 98.61,551.21 98.71,552.11 C106.49,549.01 114.126667,545.676667 121.62,542.11 C125.618928,541.579403 129.336328,539.761071 132.21,536.93 C134.4,535.83 136.58,534.68 138.74,533.53 C138.251218,532.495619 137.696752,531.493571 137.08,530.53 C132.87,523.88 126.47,519.72 119.42,519.95 C112.37,520.18 106.27,524.75 102.5,531.64 C99.6075198,537.079631 98.2262417,543.195239 98.5,549.35 L98.5,549.35 Z" id="path17" fill="#3F3D56"></path>
                <path d="M97.35,514.38 C97.5007884,520.507811 99.2781725,526.485344 102.5,531.7 C106.72,538.33 113.12,542.49 120.17,542.26 C120.66,542.26 121.17,542.19 121.62,542.15 C125.618928,541.619403 129.336328,539.801071 132.21,536.97 C134.160322,535.114085 135.80406,532.960687 137.08,530.59 C142.817388,519.520059 142.385591,506.263124 135.94,495.59 C131.72,488.94 125.32,484.78 118.27,485.01 C111.22,485.24 105.13,489.81 101.36,496.7 C98.4697549,502.129968 97.0852007,508.234436 97.35,514.38 L97.35,514.38 Z" id="path19" fill="#3F3D56"></path>
                <ellipse id="ellipse21" fill="#3F3D56" transform="translate(118.077123, 478.677747) rotate(-1.880000) translate(-118.077123, -478.677747) " cx="118.077123" cy="478.677747" rx="21.87" ry="28.63"></ellipse>
                <ellipse id="ellipse23" fill="#3F3D56" transform="translate(116.930505, 443.714298) rotate(-1.880000) translate(-116.930505, -443.714298) " cx="116.930505" cy="443.714298" rx="21.87" ry="28.63"></ellipse>
                <ellipse id="ellipse25" fill="#3F3D56" transform="translate(115.783882, 408.740521) rotate(-1.880000) translate(-115.783882, -408.740521) " cx="115.783882" cy="408.740521" rx="21.87" ry="28.63"></ellipse>
                <path d="M189.79,166.77 C192.651459,162.871441 195.237726,158.778191 197.53,154.52 L139.79,146.98 L201.91,145.4 C213.092673,118.81124 212.832254,88.7907604 201.19,62.4 L119.28,108.35 L194.28,49.35 C173.470068,16.2437094 135.952654,-2.51522871 96.9816308,0.700216556 C58.0106076,3.91566183 24.0751689,28.5700761 8.97282479,64.639439 C-6.12951932,100.708802 0.115972145,142.187085 25.17,172.21 C20.7134325,178.279675 16.9216859,184.810463 13.86,191.69 L89.67,227.97 L9.31,203.91 C-0.926615111,237.798524 6.63721296,274.564521 29.42,301.66 C-2.91416778,345.693189 4.02509596,407.182906 45.3595489,442.902413 C86.6940018,478.621919 148.540128,476.573661 187.420636,438.197546 C226.301145,399.82143 229.156756,338.00732 193.98,296.21 C222.610751,257.26303 220.879617,203.783809 189.79,166.77 Z" id="path27" fill="#0074D9"></path>
                <path d="M4.88893539,237.63 C5.62042109,261.118157 14.2644042,283.670742 29.42,301.63 C-2.92264408,345.657218 4.00513977,407.148511 45.3331515,442.875784 C86.6611631,478.603056 148.507941,476.566051 187.395485,438.196774 C226.28303,399.827497 229.149595,338.013614 193.98,296.21 C207.43,277.95 4.51,225.88 4.88893539,237.63 Z" id="path29" fill-opacity="0.1" fill="#000000"></path>
            </g>
            <g id="g47" opacity="0.1" transform="translate(241.000000, 261.000000)" fill-rule="nonzero">
                <path d="M86.18,391.56 C86.18,392.22 86.11,392.88 86.03,393.56 C80.4966667,391.36 75.06,389.003333 69.72,386.49 C66.8747793,386.118041 64.2280359,384.829772 62.18,382.82 C60.62,382.026667 59.07,381.22 57.53,380.4 C57.8775217,379.66879 58.2716669,378.960664 58.71,378.28 C61.71,373.54 66.25,370.58 71.27,370.74 C76.29,370.9 80.63,374.14 83.27,379.04 C85.3369768,382.879971 86.341551,387.202056 86.18,391.56 L86.18,391.56 Z" id="path33" fill="#3F3D56"></path>
                <path d="M86.96,366.67 C86.8615333,371.030067 85.6052637,375.285508 83.32,379 C80.32,383.72 75.77,386.69 70.76,386.53 L69.76,386.45 C66.9147793,386.078041 64.2680359,384.789772 62.22,382.78 C60.8289701,381.461088 59.657546,379.928447 58.75,378.24 C54.6717015,370.370454 54.9669579,360.948745 59.53,353.35 C62.53,348.61 67.08,345.65 72.09,345.81 C77.1,345.97 81.45,349.21 84.14,354.11 C86.182728,357.970465 87.1563354,362.306815 86.96,366.67 L86.96,366.67 Z" id="path35" fill="#3F3D56"></path>
                <ellipse id="ellipse37" fill="#3F3D56" transform="translate(72.215630, 341.334486) rotate(-88.190000) translate(-72.215630, -341.334486) " cx="72.21563" cy="341.334486" rx="20.37" ry="15.56"></ellipse>
                <ellipse id="ellipse39" fill="#3F3D56" transform="translate(72.992685, 316.448720) rotate(-88.190000) translate(-72.992685, -316.448720) " cx="72.992685" cy="316.44872" rx="20.37" ry="15.56"></ellipse>
                <ellipse id="ellipse41" fill="#3F3D56" transform="translate(73.780056, 291.552958) rotate(-88.190000) translate(-73.780056, -291.552958) " cx="73.780056" cy="291.552958" rx="20.37" ry="15.56"></ellipse>
                <path d="M20.91,119.38 C18.8710144,116.605613 17.0234035,113.695543 15.38,110.67 L56.46,105.21 L12.25,104.21 C4.2644939,85.2943858 4.42364616,63.924578 12.69,45.13 L71.02,77.76 L17.6,35.81 C32.3348309,12.1394075 59.0481907,-1.32867143 86.8410301,0.900738539 C114.63387,3.13014851 138.858777,20.684254 149.631991,46.4009811 C160.405205,72.1177081 155.92527,101.696804 138.02,123.07 C141.201361,127.385847 143.907065,132.032818 146.09,136.93 L92.17,162.81 L149.34,145.61 C156.649859,169.723095 151.30234,195.896604 135.12,215.21 C158.177873,246.512019 153.305533,290.278976 123.928128,315.743657 C94.550724,341.208339 50.5353551,339.817826 22.8238635,312.549619 C-4.8876281,285.281412 -6.98767929,241.294186 18,211.51 C-2.40476177,183.811167 -1.20230459,145.745752 20.91,119.39 L20.91,119.38 Z" id="path43" fill="#0074D9"></path>
                <path d="M152.510813,169.64 C152.008724,186.354555 145.881472,202.410846 135.12,215.21 C158.177873,246.512019 153.305533,290.278976 123.928128,315.743657 C94.550724,341.208339 50.5353551,339.817826 22.8238635,312.549619 C-4.8876281,285.281412 -6.98767929,241.294186 18,211.51 C8.41,198.51 152.79,161.27 152.510813,169.64 Z" id="path45" fill-opacity="0.1" fill="#000000"></path>
            </g>
            <g id="g63" opacity="0.1" transform="translate(761.000000, 201.000000)" fill-rule="nonzero">
                <path d="M85.95,391.51 C85.95,392.18 85.88,392.83 85.81,393.51 C80.27,391.31 74.8333333,388.953333 69.5,386.44 C66.65229,386.066606 64.0027964,384.778707 61.95,382.77 C60.4,381.98 58.84,381.17 57.3,380.35 C57.6514016,379.620796 58.0454161,378.912905 58.48,378.23 C61.48,373.49 66.02,370.53 71.04,370.69 C76.06,370.85 80.4,374.09 83.04,378.99 C85.1069768,382.829971 86.111551,387.152056 85.95,391.51 L85.95,391.51 Z" id="path49" fill="#3F3D56"></path>
                <path d="M86.79,366.62 C86.6885185,370.980995 85.4287781,375.236502 83.14,378.95 C80.14,383.67 75.6,386.64 70.58,386.48 L69.58,386.4 C66.73229,386.026606 64.0827964,384.738707 62.03,382.73 C60.6429868,381.407482 59.47208,379.875518 58.56,378.19 C54.4817015,370.320454 54.7769579,360.898745 59.34,353.3 C62.34,348.57 66.89,345.6 71.9,345.76 C76.91,345.92 81.27,349.16 83.95,354.06 C85.9996598,357.91854 86.9801961,362.254996 86.79,366.62 L86.79,366.62 Z" id="path51" fill="#3F3D56"></path>
                <ellipse id="ellipse53" fill="#3F3D56" transform="translate(72.019144, 341.276662) rotate(-88.190000) translate(-72.019144, -341.276662) " cx="72.019144" cy="341.276662" rx="20.37" ry="15.56"></ellipse>
                <ellipse id="ellipse55" fill="#3F3D56" transform="translate(72.806515, 316.390900) rotate(-88.190000) translate(-72.806515, -316.390900) " cx="72.806515" cy="316.3909" rx="20.37" ry="15.56"></ellipse>
                <ellipse id="ellipse57" fill="#3F3D56" transform="translate(73.593565, 291.505449) rotate(-88.190000) translate(-73.593565, -291.505449) " cx="73.593565" cy="291.505449" rx="20.37" ry="15.56"></ellipse>
                <path d="M20.68,119.33 C18.6385431,116.55935 16.7940134,113.648869 15.16,110.62 L56.24,105.21 L12.03,104.14 C4.04843054,85.2243452 4.20394433,63.857473 12.46,45.06 L70.79,77.69 L17.37,35.76 C32.0799686,12.0299919 58.8162488,-1.49171085 86.647714,0.723239181 C114.479179,2.93818921 138.740226,20.5184828 149.511727,46.276418 C160.283228,72.0343532 155.759474,101.651929 137.79,123.02 C140.968146,127.336136 143.670505,131.983119 145.85,136.88 L91.93,162.76 L149.1,145.56 C156.421301,169.669364 151.07249,195.845437 134.88,215.15 C157.941124,246.446817 153.073154,290.212369 123.698565,315.676848 C94.3239763,341.141328 50.3104969,339.750518 22.6022434,312.482243 C-5.10601007,285.213967 -7.20107717,241.228385 17.79,211.45 C-2.61476177,183.751167 -1.41230459,145.685752 20.7,119.33 L20.68,119.33 Z" id="path59" fill="#0074D9"></path>
                <path d="M152.290701,169.59 C151.789128,186.303397 145.657775,202.357677 134.89,215.15 C157.946585,246.447588 153.075881,290.209996 123.702006,315.672136 C94.3281302,341.134276 50.3174683,339.743674 22.6096318,312.477928 C-5.09820478,285.212181 -7.19643609,241.229576 17.79,211.45 C8.19,198.46 152.55,161.21 152.290701,169.59 Z" id="path61" fill-opacity="0.1" fill="#000000"></path>
            </g>
            <ellipse id="ellipse65" fill="#0074D9" fill-rule="nonzero" opacity="0.1" cx="193.5" cy="739.89" rx="57.01" ry="10.96"></ellipse>
            <g id="ellipse67" fill-rule="nonzero">
                <use fill="#1D262E" xlink:href="#path-5"></use>
                <use fill="#001F3F" xlink:href="#path-5"></use>
            </g>
            <g id="ellipse69" fill-rule="nonzero">
                <use fill="#1D262E" xlink:href="#path-6"></use>
                <use fill="#001F3F" xlink:href="#path-6"></use>
            </g>
            <g id="ellipse71" fill-rule="nonzero">
                <use fill="#1D262E" xlink:href="#path-7"></use>
                <use fill="#001F3F" xlink:href="#path-7"></use>
            </g>
            <g id="ellipse73" fill-rule="nonzero">
                <use fill="#1D262E" xlink:href="#path-8"></use>
                <use fill="#001F3F" xlink:href="#path-8"></use>
            </g>
            <g id="ellipse75" fill-rule="nonzero">
                <use fill="#1D262E" xlink:href="#path-9"></use>
                <use fill="#001F3F" xlink:href="#path-9"></use>
            </g>
            <g id="ellipse77" fill-rule="nonzero">
                <use fill="#1D262E" xlink:href="#path-10"></use>
                <use fill="#001F3F" xlink:href="#path-10"></use>
            </g>
            <g id="ellipse79" fill-rule="nonzero">
                <use fill="#1D262E" xlink:href="#path-11"></use>
                <use fill="#001F3F" xlink:href="#path-11"></use>
            </g>
            <path d="M217.4,598.83 C218.305044,597.67417 219.130288,596.45802 219.87,595.19 L202.43,592.32 L221.29,592.47 C224.945465,584.510227 225.166055,575.397318 221.9,567.27 L196.59,580.4 L219.93,563.21 C213.96528,552.918296 202.755385,546.816072 190.874137,547.393137 C178.992889,547.970202 168.427124,555.130057 163.487851,565.951361 C158.548577,576.772665 160.061762,589.445833 167.41,598.8 C165.999669,600.59851 164.786078,602.542939 163.79,604.6 L186.43,616.36 L162.29,608.26 C158.844889,618.439322 160.770552,629.669845 167.41,638.12 C157.16085,651.157648 158.651735,669.882693 170.834792,681.134291 C183.017848,692.385889 201.802152,692.385889 213.985208,681.134291 C226.168265,669.882693 227.65915,651.157648 217.41,638.12 C226.476763,626.581356 226.476763,610.338644 217.41,598.8 L217.4,598.83 Z" id="path81" fill="#57B894" fill-rule="nonzero"></path>
            <path d="M160.609464,618.49 C160.598292,625.622064 162.994282,632.549293 167.41,638.15 C157.16085,651.187648 158.651735,669.912693 170.834792,681.164291 C183.017848,692.415889 201.802152,692.415889 213.985208,681.164291 C226.168265,669.912693 227.65915,651.187648 217.41,638.15 C221.66,632.74 160.609464,614.92 160.609464,618.49 Z" id="path83" fill="#000000" fill-rule="nonzero" opacity="0.1"></path>
            <path d="M346.5,506.21 L346.5,732.21 C329.993333,731.403333 313.496667,730.433333 297.01,729.3 L289.5,728.77 L289.5,506.21 C289.5,503.870791 290.429247,501.627389 292.083318,499.973318 C293.737389,498.319247 295.980791,497.39 298.32,497.39 L337.68,497.39 C340.019209,497.39 342.262611,498.319247 343.916682,499.973318 C345.570753,501.627389 346.5,503.870791 346.5,506.21 L346.5,506.21 Z" id="path85" fill="#0074D9" fill-rule="nonzero"></path>
            <path d="M419.5,735.02 L419.5,355.21 C419.5,350.338849 423.448849,346.39 428.32,346.39 L467.68,346.39 C470.019209,346.39 472.262611,347.319247 473.916682,348.973318 C475.570753,350.627389 476.5,352.870791 476.5,355.21 L476.5,736.01 L419.5,735.02 Z" id="path87" fill="#0074D9" fill-rule="nonzero"></path>
            <path d="M549.5,736.21 L549.5,434.21 C549.5,429.338849 553.448849,425.39 558.32,425.39 L597.68,425.39 C602.551151,425.39 606.5,429.338849 606.5,434.21 L606.5,735.56 L549.5,736.21 Z" id="path89" fill="#0074D9" fill-rule="nonzero"></path>
            <path d="M736.5,210.21 L736.5,732.56 C717.5,733.1 698.5,733.606667 679.5,734.08 L679.5,210.21 C679.5,205.338849 683.448849,201.39 688.32,201.39 L727.68,201.39 C732.551151,201.39 736.5,205.338849 736.5,210.21 L736.5,210.21 Z" id="path91" fill="#0074D9" fill-rule="nonzero"></path>
            <path d="M866.5,315.21 L866.5,728.21 C847.5,729.13 828.5,729.78 809.5,730.36 L809.5,315.21 C809.5,310.338849 813.448849,306.39 818.32,306.39 L857.68,306.39 C862.551151,306.39 866.5,310.338849 866.5,315.21 Z" id="path93" fill="#0074D9" fill-rule="nonzero"></path>
            <g id="polyline95" opacity="0.1" stroke-linecap="round" stroke-width="18">
                <use stroke="#001F3F" xlink:href="#path-12"></use>
                <use stroke="#0074D9" xlink:href="#path-12"></use>
            </g>
            <circle id="circle97" fill="#0074D9" fill-rule="nonzero" cx="318" cy="374.41" r="28"></circle>
            <circle id="circle99" fill="#0074D9" fill-rule="nonzero" cx="448" cy="229.41" r="28"></circle>
            <circle id="circle101" fill="#0074D9" fill-rule="nonzero" cx="578" cy="302.41" r="28"></circle>
            <circle id="circle103" fill="#0074D9" fill-rule="nonzero" cx="708" cy="78.41" r="28"></circle>
            <g id="rock" transform="translate(220.000000, 688.000000)" fill-rule="nonzero">
                <ellipse id="ellipse107" fill="#0074D9" opacity="0.1" cx="18.68" cy="20.4260461" rx="18.68" ry="3.16"></ellipse>
                <path d="M6.14,5.75604614 C6.14,5.75604614 16.79,5.42604614 20,3.13604614 C23.21,0.846046143 36.39,-1.86395386 37.19,1.78604614 C37.99,5.43604614 53.19,20.0260461 41.19,20.1260461 C29.19,20.2260461 13.24,18.2460461 10.04,16.2960461 C6.84,14.3460461 6.14,5.75604614 6.14,5.75604614 Z" id="path109" fill="#CED6E0"></path>
                <path d="M41.38,18.8460461 C29.38,18.9460461 13.44,16.9760461 10.23,15.0260461 C7.79,13.5360461 6.82,8.20604614 6.49,5.74604614 L6.14,5.74604614 C6.14,5.74604614 6.81,14.3360461 10.02,16.2860461 C13.23,18.2360461 29.14,20.2160461 41.17,20.1160461 C44.64,20.1160461 45.84,18.8560461 45.77,17.0260461 C45.29,18.1360461 43.97,18.8260461 41.38,18.8460461 Z" id="path111" fill="#000000" opacity="0.2"></path>
            </g>
            <ellipse id="ellipse113" fill="#0074D9" fill-rule="nonzero" opacity="0.1" cx="1063.8" cy="738.41" rx="34.31" ry="5.8"></ellipse>
            <path d="M1040.79,711.46 C1040.79,711.46 1060.36,710.86 1066.26,706.66 C1072.16,702.46 1096.36,697.45 1097.82,704.18 C1099.28,710.91 1127.24,737.68 1105.14,737.86 C1083.04,738.04 1053.8,734.42 1047.91,730.86 C1042.02,727.3 1040.79,711.46 1040.79,711.46 Z" id="path115" fill="#CED6E0" fill-rule="nonzero"></path>
            <path d="M1105.51,735.52 C1083.41,735.7 1054.17,732.08 1048.28,728.52 C1043.8,725.79 1042.01,715.99 1041.41,711.52 L1040.76,711.52 C1040.76,711.52 1042,727.31 1047.88,730.89 C1053.76,734.47 1083.02,738.1 1105.11,737.89 C1111.49,737.89 1113.69,735.57 1113.57,732.21 C1112.68,734.21 1110.25,735.48 1105.51,735.52 Z" id="path117" fill="#000000" fill-rule="nonzero" opacity="0.2"></path>
            <path d="M849.6,333.58 C849.785575,335.331443 850.480964,336.989945 851.6,338.35 C853.05,339.99 855.22,340.74 857.17,341.72 C862.216492,344.302966 866.071093,348.734324 867.93,354.09 C871.26,363.81 871.69,374.09 875.93,383.47 C880.17,392.85 885.15,401.86 888.81,411.47 C890.89,416.92 892.55,422.59 895.6,427.55 C897.076578,429.989373 898.960549,432.157461 901.17,433.96 C900.94,437.48 900.85,440.96 900.87,444.48 C902.243456,444.452927 903.534719,445.13254 904.29,446.28 C905.030018,447.420088 905.539608,448.694062 905.79,450.03 C907.16,455.7 905.47,461.74 906.7,467.44 C910.079224,483.295262 909.041526,499.773904 903.7,515.08 C902.33,518.96 900.61,531.8 902.07,535.65 C907.51,535.1 912.33,538.44 917.42,540.65 C917.831549,543.666827 917.585938,546.736972 916.7,549.65 C914.87,554.92 914.88,560.65 914.91,566.22 L915.16,607.48 C915.16,612.71 915.23,618.01 916.54,623.08 C918.03,628.79 921.16,634.61 921.06,640.51 C920.79,653.21 926.79,665.31 926.31,677.91 C926.22,680.33 925.89,682.73 925.66,685.13 C925.069435,691.523442 925.230535,697.964078 926.14,704.32 C927.96,716.98 932.77,729.43 931.57,742.16 C931.49,743.02 931.2,744.16 930.39,744.49 C931.39,745.62 932.45,746.74 933.53,747.81 C933.311461,748.174394 933.01421,748.485313 932.66,748.72 C931.478355,749.337099 930.172446,749.67896 928.84,749.72 C927.276704,749.761014 925.758803,750.254245 924.47,751.14 C923.533178,752.038826 922.897435,753.205519 922.65,754.48 C921.930047,757.028452 922.369008,759.764641 923.85,761.96 C924.742885,763.083984 925.910456,763.958801 927.24,764.5 C931.86,766.5 937.16,765.05 941.98,763.59 L960.86,757.87 C962.011593,757.630799 963.0743,757.076945 963.93,756.27 C964.321503,755.807507 964.580651,755.247749 964.68,754.65 C968.85,755.65 973.43,754.42 977.68,753.15 L996.56,747.42 C997.71321,747.185346 998.777101,746.630875 999.63,745.82 C1000.31799,744.98323 1000.59995,743.884675 1000.4,742.82 C1000.54,742.76 1000.68,742.72 1000.82,742.65 C1002.26,742 1003.82,740.73 1003.47,739.2 C1003.22,738.2 1002.22,737.62 1001.79,736.7 C1001.3784,735.482614 1001.645,734.1382 1002.49,733.17 C1003.23,732.17 1004.23,731.34 1004.91,730.29 C1007.09,726.95 1005.61,722.56 1004.79,718.65 C1003.02,710.3 1004.66,701.58 1003.54,693.12 C1003.16,690.27 1002.47,687.47 1001.92,684.64 C1000.75454,677.951074 999.983214,671.199434 999.61,664.42 C998.89,654.74 996.2,645.2 997.74,635.6 C998.487832,629.965673 998.805418,624.282568 998.69,618.6 C998.798802,614.980034 998.641713,611.356964 998.22,607.76 C997.83,605.08 997.14,602.45 996.84,599.76 C996.596606,596.736328 996.543167,593.700364 996.68,590.67 C996.817885,583.914752 996.193947,577.165486 994.82,570.55 C992.82,561.46 989.06,552.76 987.46,543.65 C988,543.77 988.54,543.89 989.06,544.03 C989.12,537.03 982.99,521.81 980.72,515.17 C980.387716,514.356659 980.185249,513.496173 980.12,512.62 C980.257247,511.464493 980.46767,510.318859 980.75,509.19 C981.04,506.77 979.75,504.47 979.4,502.05 C979.263647,500.347706 979.388422,498.634571 979.77,496.97 C981.38,488.02 983.38,479.14 985.38,470.27 C986.252005,467.057439 986.553244,463.716732 986.27,460.4 C985.799748,456.843538 986.894061,453.257838 989.27,450.57 C990.148655,449.759309 990.897407,448.81831 991.49,447.78 C991.822567,446.888992 991.972211,445.940113 991.93,444.99 C991.890283,440.876598 991.284599,436.788235 990.13,432.84 C991.89,429.65 992.54,425.73 993.05,422.03 C994.17,413.86 995.29,405.65 995.25,397.4 C995.339098,392.998871 994.731594,388.611341 993.45,384.4 C992.513842,381.799102 991.37016,379.277651 990.03,376.86 C984.77,366.73 979.74,356.07 973.1,346.79 C971.1,343.97 972.36,340.08 972.5,336.6 C972.65,332.4 970.99,328.37 969.36,324.51 C968.528419,322.134353 967.252393,319.938637 965.6,318.04 C964.470557,316.796921 962.879213,316.073583 961.2,316.04 C959.29496,316.27276 957.584252,317.319611 956.51,318.91 C954.067286,322.237339 953.055599,326.402895 953.7,330.48 C954.364335,334.520522 956.124957,338.30119 958.79,341.41 C960.077301,342.974293 961.551646,344.374753 963.18,345.58 C964.833333,350.833333 966.5,356.083333 968.18,361.33 C970.82,369.68 973.46,378.07 977.18,385.97 C978.27,388.26 979.47,390.59 979.6,393.12 C979.74,395.85 978.6,398.45 977.69,401.02 C975.772885,406.376503 974.686976,411.994898 974.47,417.68 C974.177654,417.809624 973.896673,417.963495 973.63,418.14 C970.48,420.2 969.49,424.69 966.21,426.53 C964.3,427.6 961.98,427.53 959.84,428.02 C959.65,428.02 959.46,428.12 959.26,428.18 C959.18,427.78 959.1,427.39 959.05,426.98 C959.019297,426.724252 959.019297,426.465748 959.05,426.21 C964.148913,423.406572 968.432123,419.326668 971.48,414.37 C972.122217,413.452051 972.618116,412.440012 972.95,411.37 C973.219907,410.087802 973.270625,408.769142 973.1,407.47 C972.932966,403.133888 972.312927,398.827132 971.25,394.62 C970.18313,390.392532 967.8487,386.592542 964.56,383.73 C962.92,382.41 961.03,381.42 959.4,380.09 C956.22,377.52 954.04,373.72 950.4,371.81 C945.614732,369.47947 939.845297,370.971638 936.79,375.33 C936.305798,376.305637 935.624839,377.170455 934.79,377.87 C934.153271,378.171236 933.532452,378.505009 932.93,378.87 C931.83,379.75 931.77,381.44 932.13,382.81 C932.812364,385.625026 933.194498,388.504436 933.27,391.4 C926.604655,399.221989 926.579267,410.718649 933.21,418.57 C933.21,420.43 933.21,422.29 933.14,424.15 C933.14,424.5 933.14,424.86 933.07,425.21 C931.916756,424.808166 930.884479,424.119981 930.07,423.21 C928.95,421.81 928.75,419.75 927.38,418.6 C926.394816,417.950464 925.271751,417.539586 924.1,417.4 C921.187748,416.738384 918.456597,415.444502 916.1,413.61 C914.25,412.18 912.33,410.35 910.17,409.93 C906.442854,402.938747 902.091844,396.298436 897.17,390.09 C895.921762,388.620325 894.785255,387.059299 893.77,385.42 C891.62,381.67 890.98,377.26 889.62,373.15 C885.82,361.63 876.34,352.39 874.03,340.47 C873.19,336.15 870.45,332.39 868.57,328.41 C867.3,325.72 865.9,322.88 863.36,321.34 C860.09,319.34 855.57,320.26 852.85,322.95 C850.18183,325.800506 848.982025,329.724793 849.6,333.58 L849.6,333.58 Z M968.33,738.27 C967.148355,738.887099 965.842446,739.22896 964.51,739.27 C963.837972,739.339925 963.170297,739.446753 962.51,739.59 C962.26,737.49 962.12,735.36 961.96,733.29 C961.43,726.5 960.37,719.76 959.32,713.03 C958.22,706.03 957.7,698.37 955.32,691.65 C951.49,680.71 947.61,669.44 948.1,657.85 C948.21,655.22 948.54,652.61 948.68,649.99 C949,643.5 948.09,636.87 949.68,630.56 C950.39,627.69 951.6,624.95 952.06,622.03 C952.353403,619.393003 952.386897,616.73355 952.16,614.09 C951.722951,604.91339 952.486069,595.718993 954.43,586.74 C956.29,589.17 956.9,592.31 957.43,595.32 L961.18,615.66 C963.41,627.73 965.38,640.53 971.29,651.27 C970.46,655.14 969.64,659.27 971.01,662.97 C971.6,664.57 972.57,665.97 973.17,667.59 C974.17,670.28 974.03,673.24 974.33,676.09 C974.98,682.09 977.46,687.99 975.64,693.78 C973.767933,699.750294 972.550776,705.906493 972.01,712.14 C971.910562,713.873522 971.710222,715.59978 971.41,717.31 C971.09,718.85 970.57,720.31 970.28,721.89 C969.880154,724.107282 969.979219,726.385789 970.57,728.56 C971.018994,729.765021 971.295068,731.027557 971.39,732.31 C971.39,733.59 969.82,734.51 968.56,734.71 C968.93,735.19 969.33,735.65 969.74,736.1 C969.499291,736.948838 969.007835,737.705192 968.33,738.27 L968.33,738.27 Z" id="path119" fill="url(#linearGradient-13)" fill-rule="nonzero"></path>
            <g id="crypto-coin" transform="translate(950.849464, 307.353812) rotate(29.000000) translate(-950.849464, -307.353812) translate(920.849464, 276.853812)">
                <circle id="Oval" fill="#FFD54E" cx="30" cy="30" r="30"></circle>
                <path d="M30,60 C48.1858953,61 60,43.3321228 60,30 C60,21.1119181 57,14.3331489 51,9.66369244 C43.919339,23.6320528 38.1697567,32.0282089 33.7512532,34.8521609 C16.5623102,45.8379502 1.5,41.3001098 1.5,41.3001098 C1.5,41.3001098 14.5435832,59.1500877 30,60 Z" id="Oval" fill-opacity="0.33" fill="#FFC200"></path>
                <path d="M30,0 C13.458,0 0,13.458 0,30 C0,46.542 13.458,60 30,60 C46.542,60 60,46.542 60,30 C60,13.458 46.542,0 30,0 Z M30,57 C15.1122857,57 3,44.8877143 3,30 C3,15.1122857 15.1122857,3 30,3 C44.8877143,3 57,15.1122857 57,30 C57,44.8877143 44.8877143,57 30,57 Z" id="Shape" fill="#FFE79A" fill-rule="nonzero"></path>
                <g id="Path" fill-rule="nonzero">
                    <use fill="black" fill-opacity="1" filter="url(#filter-15)" xlink:href="#path-14"></use>
                    <use fill="#FFFFFF" xlink:href="#path-14"></use>
                </g>
            </g>
            <g id="Man" transform="translate(849.438114, 319.000000)" fill-rule="nonzero">
                <path d="M79.4018863,430.81 C77.8385903,430.851014 76.3206893,431.344245 75.0318863,432.23 C74.0917333,433.118164 73.4549803,434.279713 73.2118863,435.55 C72.4937883,438.079025 72.9332313,440.796245 74.4118863,442.97 C75.3053713,444.090974 76.4730183,444.962404 77.8018863,445.5 C82.4218863,447.5 87.7218863,446.04 92.5418863,444.59 L111.421886,438.91 C112.572758,438.674643 113.635613,438.124174 114.491886,437.32 C115.557563,435.88463 115.589743,433.929667 114.571886,432.46 C113.557618,431.048733 112.173443,429.944854 110.571886,429.27 C104.701886,426.41 98.0818863,425.76 91.6318863,425.64 C89.2318863,425.64 86.8618863,425.06 85.2318863,426.91 C84.3718863,427.91 84.5318863,428.98 83.2318863,429.83 C82.0436323,430.436493 80.7354073,430.771234 79.4018863,430.81 L79.4018863,430.81 Z" id="path121" fill="#1D262E"></path>
                <path d="M115.071886,420.43 C113.509369,420.475527 111.992712,420.968354 110.701886,421.85 C109.763892,422.73983 109.127545,423.900637 108.881886,425.17 C108.164895,427.702344 108.604159,430.422119 110.081886,432.6 C110.97879,433.715042 112.145683,434.582468 113.471886,435.12 C118.101886,437.12 123.391886,435.67 128.211886,434.22 L147.091886,428.53 C148.242758,428.294643 149.305613,427.744174 150.161886,426.94 C151.225856,425.507766 151.258036,423.556545 150.241886,422.09 C149.226484,420.679812 147.842644,419.576199 146.241886,418.9 C140.361886,416.04 133.741886,415.38 127.291886,415.26 C124.891886,415.26 122.531886,414.69 120.891886,416.54 C120.031886,417.54 120.191886,418.6 118.891886,419.45 C117.710354,420.064765 116.403447,420.400045 115.071886,420.43 Z" id="path123" fill="#1D262E"></path>
                <path d="M132.151886,214.59 C132.889052,214.582452 133.622355,214.697348 134.321886,214.93 C136.781886,215.93 137.161886,219.15 137.391886,221.78 C138.391886,232.46 143.051886,242.41 145.391886,252.87 C146.766052,259.444902 147.39004,266.154452 147.251886,272.87 C147.116719,275.870391 147.170158,278.87631 147.411886,281.87 C147.711886,284.54 148.411886,287.16 148.791886,289.82 C149.213777,293.39351 149.370872,296.993323 149.261886,300.59 C149.376289,306.229339 149.058694,311.869159 148.311886,317.46 C146.771886,326.99 149.461886,336.46 150.181886,346.1 C150.540711,352.842283 151.298706,359.557383 152.451886,366.21 C153.001886,369.02 153.691886,371.8 154.071886,374.63 C155.191886,383.04 153.551886,391.7 155.321886,400 C156.141886,403.88 157.621886,408.24 155.441886,411.56 C154.761886,412.56 153.761886,413.41 153.021886,414.42 C152.176556,415.380089 151.909516,416.719087 152.321886,417.93 C152.751886,418.84 153.751886,419.44 154.001886,420.41 C154.391886,421.94 152.791886,423.19 151.351886,423.84 C140.501886,428.74 126.511886,425.29 119.191886,415.9 C120.451886,415.7 121.991886,414.79 122.021886,413.51 C121.925752,412.237476 121.649671,410.98501 121.201886,409.79 C120.612929,407.632543 120.513845,405.370694 120.911886,403.17 C121.201886,401.63 121.721886,400.17 122.041886,398.62 C122.342098,396.919855 122.542442,395.203581 122.641886,393.48 C123.182773,387.285769 124.400021,381.169348 126.271886,375.24 C128.091886,369.49 125.611886,363.67 124.961886,357.67 C124.661886,354.83 124.791886,351.9 123.801886,349.22 C123.201886,347.64 122.231886,346.22 121.641886,344.64 C120.271886,340.95 121.091886,336.85 121.921886,333.01 C116.011886,322.34 114.041886,309.62 111.811886,297.63 L108.061886,277.43 C107.501886,274.43 106.891886,271.32 105.061886,268.9 C103.118043,277.818088 102.354839,286.952993 102.791886,296.07 C103.018673,298.696868 102.985176,301.339724 102.691886,303.96 C102.231886,306.86 101.021886,309.59 100.311886,312.43 C98.7618863,318.7 99.6718863,325.28 99.3118863,331.73 C99.1718863,334.34 98.8418863,336.93 98.7318863,339.54 C98.2418863,351.06 102.121886,362.26 105.951886,373.13 C108.301886,379.8 108.821886,387.38 109.951886,394.36 C110.951886,401.05 112.061886,407.74 112.591886,414.49 C113.081886,420.69 113.301886,427.4 117.161886,432.27 C113.631886,434.56 109.991886,436.89 105.861886,437.68 C101.04896,438.432991 96.1242763,437.477772 91.9418863,434.98 C87.7831773,432.493381 84.0660053,429.333785 80.9418863,425.63 C81.7518863,425.35 82.0418863,424.17 82.1218863,423.32 C83.3218863,410.66 78.5118863,398.32 76.6918863,385.72 C75.7821023,379.407717 75.6209873,373.010075 76.2118863,366.66 C76.4418863,364.27 76.7718863,361.88 76.8618863,359.48 C77.3418863,346.97 71.3118863,334.92 71.5318863,322.4 C71.6318863,316.53 68.5318863,310.75 67.0118863,305.08 C65.7018863,300.08 65.6618863,294.78 65.6318863,289.58 L65.3818863,248.58 C65.3818863,243.04 65.3818863,237.36 67.1718863,232.13 C69.3718863,225.83 66.8518863,218.6 66.4718863,211.94 C76.8632083,215.23335 87.8003213,216.453115 98.6618863,215.53 C109.788109,214.412023 120.980471,214.097875 132.151886,214.59 Z" id="path125" fill="#001F3F"></path>
                <path d="M63.0118863,97.73 C58.8086923,89.137194 53.6745863,81.031948 47.7018863,73.56 C46.4539313,72.100679 45.3173983,70.549646 44.3018863,68.92 C42.1518863,65.19 41.5118863,60.81 40.1518863,56.73 C36.3518863,45.29 26.8718863,36.1 24.5618863,24.27 C23.7218863,19.97 20.9818863,16.27 19.1018863,12.27 C17.8318863,9.6 16.4318863,6.78 13.8918863,5.27 C10.6218863,3.27 6.10188633,4.19061061 3.38188633,6.87 C0.729717328,9.696539 -0.459901672,13.594206 0.161886328,17.42 C0.349136328,19.161985 1.04467233,20.810405 2.16188633,22.16 C3.61188633,23.79 5.78188633,24.53 7.73188633,25.51 C12.7706053,28.064034 16.6262403,32.467913 18.4918863,37.8 C21.8218863,47.45 22.2518863,57.67 26.4918863,66.99 C30.7318863,76.31 35.7118863,85.25 39.3718863,94.78 C41.4518863,100.19 43.1118863,105.78 46.1618863,110.78 C49.2118863,115.78 53.9718863,119.97 59.7218863,120.72 C59.6829283,117.095195 60.2334403,113.48816 61.3518863,110.04 C62.6018863,106.1 64.8218863,101.46 63.0118863,97.73 Z" id="path127" fill="#A0616A"></path>
                <path d="M124.921886,105.21 C124.664887,98.139144 125.768201,91.084724 128.171886,84.43 C129.091886,81.88 130.171886,79.29 130.081886,76.58 C129.951886,74.06 128.751886,71.75 127.661886,69.47 C123.901886,61.62 121.261886,53.3 118.661886,45 L113.661886,29.35 C112.031696,28.154575 110.556979,26.76048 109.271886,25.2 C106.606591,22.1184 104.84505,18.359984 104.181886,14.34 C103.537336,10.291185 104.550162,6.153377 106.991886,2.86 C108.070021,1.275345 109.779452,0.23292 111.681886,-2.84217094e-14 C113.360299,0.037099 114.950321,0.759836 116.081886,2 C117.731415,3.881899 119.007478,6.060709 119.841886,8.42 C121.471886,12.26 123.131886,16.26 122.981886,20.42 C122.841886,23.88 121.551886,27.74 123.581886,30.55 C130.221886,39.77 135.251886,50.36 140.511886,60.43 C141.853623,62.829534 142.997415,65.334505 143.931886,67.92 C145.21647,72.110107 145.824112,76.478374 145.731886,80.86 C145.731886,89.05 144.651886,97.21 143.531886,105.33 C142.821886,110.42 141.891886,115.96 138.041886,119.33 C134.041886,114.21 130.021886,109.21 124.921886,105.21 Z" id="path129" fill="#A0616A"></path>
                <circle id="circle131" fill="#A0616A" cx="99.4818863" cy="88.36" r="20.75"></circle>
                <path d="M109.531886,110.21 C110.031886,113.96 112.041886,117.32 114.001886,120.56 C115.181886,122.56 116.691886,124.69 119.001886,124.91 C112.9899,128.065122 106.67449,130.604688 100.151886,132.49 C97.9349573,133.234849 95.6105783,133.609858 93.2718863,133.600371 C91.2900763,133.452148 89.3501153,132.954461 87.5418863,132.13 C79.5288513,128.640484 73.5608333,121.666122 71.3518863,113.21 C73.9353333,113.278822 76.5189923,113.08111 79.0618863,112.62 C80.5140043,112.508474 81.8675273,111.842455 82.8418863,110.76 C83.4213423,109.746281 83.6924193,108.585513 83.6218863,107.42 C83.7218863,103.96 83.7318863,100.49 83.6218863,97.03 C88.7205353,96.705028 93.8350103,97.335859 98.7018863,98.89 C100.701886,99.54 102.701886,100.32 104.701886,100.83 C105.961886,101.15 109.431886,100.83 110.361886,101.56 C111.891886,102.59 109.181886,107.66 109.531886,110.21 Z" id="path133" fill="#A0616A"></path>
                <path d="M82.6218863,66.3 C82.2618863,64.93 82.3218863,63.3 83.4218863,62.38 C83.9718863,61.95 84.6918863,61.79 85.2818863,61.38 C86.1133893,60.681181 86.7938813,59.820359 87.2818863,58.85 C90.3632243,54.538029 96.1069143,53.079918 100.871886,55.4 C104.481886,57.29 106.661886,61.07 109.871886,63.62 C111.501886,64.94 113.391886,65.92 115.031886,67.24 C118.316426,70.077214 120.65148,73.853788 121.721886,78.06 C122.784734,82.236605 123.404819,86.513521 123.571886,90.82 C123.742558,92.112468 123.691833,93.424566 123.421886,94.7 C123.089551,95.769833 122.593686,96.781804 121.951886,97.7 C118.651886,102.7 114.301886,107.24 108.851886,109.82 C103.401886,112.4 96.7718863,112.82 91.3918863,110.12 C90.8506273,109.901306 90.3849333,109.529445 90.0518863,109.05 C89.7460833,108.319897 89.6727543,107.513279 89.8418863,106.74 C90.1335113,103.683628 89.5289043,100.60847 88.1018863,97.89 C87.1018863,95.89 85.6018863,94.17 84.8018863,92.1 C84.0579833,89.782969 83.7395183,87.350442 83.8618863,84.92 C83.7718863,78.63 84.2018863,72.36 82.6218863,66.3 Z" id="path137" fill="#1D262E"></path>
                <path d="M100.260317,120.824382 C103.139503,115.32838 104.883566,112.534785 110.351886,111.21 C112.491886,110.73 114.811886,110.79 116.721886,109.73 C120.001886,107.9 120.991886,103.44 124.141886,101.39 C127.291886,99.34 131.761886,100.48 134.501886,103.07 C137.241886,105.66 138.631886,109.35 139.751886,112.96 C141.423943,117.841196 142.331325,122.951549 142.441886,128.11 C142.483594,129.053562 142.333923,129.995806 142.001886,130.88 C141.408913,131.912123 140.660086,132.84647 139.781886,133.65 C137.407431,136.31473 136.312085,139.881906 136.781886,143.42 C137.066066,146.713592 136.764747,150.031486 135.891886,153.22 C133.891886,162.04 131.891886,170.85 130.281886,179.75 C129.904112,181.388018 129.779333,183.074217 129.911886,184.75 C130.221886,187.16 131.551886,189.44 131.261886,191.85 C130.978682,192.971916 130.768244,194.110954 130.631886,195.26 C130.697229,196.129695 130.899731,196.98358 131.231886,197.79 C133.501886,204.38 139.631886,219.48 139.571886,226.46 C128.921886,223.73 113.221886,223.12 102.221886,223.07 C99.1968573,223.038342 96.1723553,223.171875 93.1618863,223.47 C85.9318863,224.25 78.5318863,226.36 71.5218863,224.41 C65.0118863,222.6 59.2518863,217.41 52.5218863,218.06 C51.0618863,214.24 52.7818863,201.49 54.1518863,197.63 C59.4928943,182.430941 60.5310823,166.051787 57.1518863,150.3 C55.9218863,144.64 57.6118863,138.63 56.2418863,133.01 C55.9914933,131.680283 55.4818053,130.412857 54.7418863,129.28 C53.9842593,128.13635 52.6934103,127.46073 51.3218863,127.49 C51.1972543,118.450053 52.0353093,109.422523 53.8218863,100.56 C54.4818863,97.41 55.8218863,93.69 59.0518863,93.15 C61.9118863,92.66 64.3118863,95.08 66.6118863,96.85 C68.9701583,98.675479 71.7015083,99.959214 74.6118863,100.61 C75.7836373,100.749586 76.9067023,101.160464 77.8918863,101.81 C79.2618863,102.95 79.4618863,105 80.5818863,106.39 C82.5818863,108.88 87.0518863,108.67 88.4718863,111.54 C88.7823413,112.394884 89.0329463,113.270331 89.2218863,114.16 C89.8935963,115.865378 91.0385193,117.34337 92.5218863,118.42 C94.7493523,120.514117 97.3080656,120.029937 100.260317,120.824382 Z" id="path135" fill="#0074D9"></path>
            </g>
            <g id="crypto-coin" transform="translate(418.000000, 199.000000)">
                <circle id="Oval" fill="#FFD54E" cx="30" cy="30" r="30"></circle>
                <path d="M30,60 C48.1858953,61 60,43.3321228 60,30 C60,21.1119181 57,14.3331489 51,9.66369244 C43.919339,23.6320528 38.1697567,32.0282089 33.7512532,34.8521609 C16.5623102,45.8379502 1.5,41.3001098 1.5,41.3001098 C1.5,41.3001098 14.5435832,59.1500877 30,60 Z" id="Oval" fill-opacity="0.33" fill="#FFC200"></path>
                <path d="M30,0 C13.458,0 0,13.458 0,30 C0,46.542 13.458,60 30,60 C46.542,60 60,46.542 60,30 C60,13.458 46.542,0 30,0 Z M30,57 C15.1122857,57 3,44.8877143 3,30 C3,15.1122857 15.1122857,3 30,3 C44.8877143,3 57,15.1122857 57,30 C57,44.8877143 44.8877143,57 30,57 Z" id="Shape" fill="#FFE79A" fill-rule="nonzero"></path>
                <g id="Path" fill-rule="nonzero">
                    <use fill="black" fill-opacity="1" filter="url(#filter-17)" xlink:href="#path-16"></use>
                    <use fill="#FFFFFF" xlink:href="#path-16"></use>
                </g>
            </g>
            <g id="crypto-coin" transform="translate(288.000000, 344.000000)">
                <circle id="Oval" fill="#FFD54E" cx="30" cy="30" r="30"></circle>
                <path d="M30,60 C48.1858953,61 60,43.3321228 60,30 C60,21.1119181 57,14.3331489 51,9.66369244 C43.919339,23.6320528 38.1697567,32.0282089 33.7512532,34.8521609 C16.5623102,45.8379502 1.5,41.3001098 1.5,41.3001098 C1.5,41.3001098 14.5435832,59.1500877 30,60 Z" id="Oval" fill-opacity="0.33" fill="#FFC200"></path>
                <path d="M30,0 C13.458,0 0,13.458 0,30 C0,46.542 13.458,60 30,60 C46.542,60 60,46.542 60,30 C60,13.458 46.542,0 30,0 Z M30,57 C15.1122857,57 3,44.8877143 3,30 C3,15.1122857 15.1122857,3 30,3 C44.8877143,3 57,15.1122857 57,30 C57,44.8877143 44.8877143,57 30,57 Z" id="Shape" fill="#FFE79A" fill-rule="nonzero"></path>
                <g id="Path" fill-rule="nonzero">
                    <use fill="black" fill-opacity="1" filter="url(#filter-19)" xlink:href="#path-18"></use>
                    <use fill="#FFFFFF" xlink:href="#path-18"></use>
                </g>
            </g>
            <g id="crypto-coin" transform="translate(548.000000, 272.000000)">
                <circle id="Oval" fill="#FFD54E" cx="30" cy="30" r="30"></circle>
                <path d="M30,60 C48.1858953,61 60,43.3321228 60,30 C60,21.1119181 57,14.3331489 51,9.66369244 C43.919339,23.6320528 38.1697567,32.0282089 33.7512532,34.8521609 C16.5623102,45.8379502 1.5,41.3001098 1.5,41.3001098 C1.5,41.3001098 14.5435832,59.1500877 30,60 Z" id="Oval" fill-opacity="0.33" fill="#FFC200"></path>
                <path d="M30,0 C13.458,0 0,13.458 0,30 C0,46.542 13.458,60 30,60 C46.542,60 60,46.542 60,30 C60,13.458 46.542,0 30,0 Z M30,57 C15.1122857,57 3,44.8877143 3,30 C3,15.1122857 15.1122857,3 30,3 C44.8877143,3 57,15.1122857 57,30 C57,44.8877143 44.8877143,57 30,57 Z" id="Shape" fill="#FFE79A" fill-rule="nonzero"></path>
                <g id="Path" fill-rule="nonzero">
                    <use fill="black" fill-opacity="1" filter="url(#filter-21)" xlink:href="#path-20"></use>
                    <use fill="#FFFFFF" xlink:href="#path-20"></use>
                </g>
            </g>
            <g id="crypto-coin" transform="translate(678.000000, 48.000000)">
                <circle id="Oval" fill="#FFD54E" cx="30" cy="30" r="30"></circle>
                <path d="M30,60 C48.1858953,61 60,43.3321228 60,30 C60,21.1119181 57,14.3331489 51,9.66369244 C43.919339,23.6320528 38.1697567,32.0282089 33.7512532,34.8521609 C16.5623102,45.8379502 1.5,41.3001098 1.5,41.3001098 C1.5,41.3001098 14.5435832,59.1500877 30,60 Z" id="Oval" fill-opacity="0.33" fill="#FFC200"></path>
                <path d="M30,0 C13.458,0 0,13.458 0,30 C0,46.542 13.458,60 30,60 C46.542,60 60,46.542 60,30 C60,13.458 46.542,0 30,0 Z M30,57 C15.1122857,57 3,44.8877143 3,30 C3,15.1122857 15.1122857,3 30,3 C44.8877143,3 57,15.1122857 57,30 C57,44.8877143 44.8877143,57 30,57 Z" id="Shape" fill="#FFE79A" fill-rule="nonzero"></path>
                <g id="Path" fill-rule="nonzero">
                    <use fill="black" fill-opacity="1" filter="url(#filter-23)" xlink:href="#path-22"></use>
                    <use fill="#FFFFFF" xlink:href="#path-22"></use>
                </g>
            </g>
        </g>
    </g>
</svg>