<?xml version="1.0" encoding="UTF-8"?>
<svg width="24px" height="20px" viewBox="0 0 24 20" version="1.1" xmlns="http://www.w3.org/2000/svg" xmlns:xlink="http://www.w3.org/1999/xlink">
    <!-- Generator: Sketch 64 (93537) - https://sketch.com -->
    <title>logo</title>
    <desc>Created with Sketch.</desc>
    <g id="Page-1" stroke="none" stroke-width="1" fill="none" fill-rule="evenodd">
        <g id="logo" fill-rule="nonzero">
            <path d="M7.41069449,1.94328303 C8.22487483,1.11557343 9.50328081,0.947496783 10.6666223,1.01267552 C14.3211758,1.21998011 17.6199552,3.23237358 20.4732896,5.50880128 C21.5062247,6.33288984 22.5232889,7.22095011 23.193837,8.35584468 C24.5587397,10.6663705 24.1540302,13.8667671 22.2558632,15.7699259 C21.6101795,16.4174887 20.8274766,16.9141748 20.0236124,17.3541313 C18.5952258,18.1365779 18.5952258,18.1365779 16.8459339,18.6348089 C15.8461255,18.919573 13.103344,18.967305 11.9537573,18.7892705 C8.74147464,18.2922826 5.58817904,17.1932967 2.94539938,15.3130712 C1.78629013,14.4883792 0.693574408,13.4633228 0.215858456,12.129271 C-0.261857495,10.7952192 0.0439230365,9.10449488 1.22736776,8.31480621 C1.71698693,7.98830903 2.30236091,7.84075161 2.87530263,7.7022468 C3.71884425,7.49826149 4.57587619,7.29729372 5.33688881,6.8829863 C6.12303045,6.45479821 7.05412688,5.62678686 6.89753339,4.68018643 C6.73141732,3.66297569 6.5973077,2.77008736 7.41069449,1.94328303 Z" id="path13" fill="#E6F1FC"></path>
            <g id="Group" transform="translate(2.000000, 0.000000)">
                <polyline id="Path" fill="#FF767F" points="3.15789474 14.2105263 0 17.3052632 0 8.42105263 3.15789474 8.42105263 3.15789474 14.2105263"></polyline>
                <polyline id="Path" fill="#FFE79A" points="8.42105263 12.2736842 6.76842105 10.8631579 5.26315789 12.2526316 5.26315789 4.21052632 8.42105263 4.21052632 8.42105263 12.2736842"></polyline>
                <polygon id="Path" fill="#57B894" points="10.5263158 13.6842105 10.5263158 0 13.6842105 0 13.6842105 10.5263158"></polygon>
                <polyline id="Path" fill="#0074D9" points="16.6421053 10.3263158 14.7368421 8.42105263 20 8.42105263 20 13.6842105 18.1157895 11.8 10.5263158 19.3263158 6.87368421 16.1473684 2.89473684 20 0 20 6.81052632 13.3263158 10.5263158 16.4631579 16.6421053 10.3263158"></polyline>
            </g>
        </g>
    </g>
</svg>