<?xml version="1.0" encoding="UTF-8"?>
<svg width="1041px" height="585px" viewBox="0 0 1041 585" version="1.1" xmlns="http://www.w3.org/2000/svg" xmlns:xlink="http://www.w3.org/1999/xlink">
    <!-- Generator: Sketch 64 (93537) - https://sketch.com -->
    <title>pro-trader-blue</title>
    <desc>Created with Sketch.</desc>
    <defs>
        <polygon id="path-1" points="156 264.461091 324.302767 270.078397 345 116.208479 175.364836 104.973868"></polygon>
        <rect id="path-2" x="394" y="114.146341" width="186" height="152.874564"></rect>
        <polygon id="path-3" points="798.67 99.8780488 813 260.749129 644.67 264.982578 629 108.704791"></polygon>
        <polygon id="path-4" points="372 336.324042 372 493.121299 194 497.351916 194 336.324042"></polygon>
        <polygon id="path-5" points="776 336.324042 598 336.324042 598 493.121299 776 497.351916"></polygon>
        <polygon id="path-6" points="575 336.324042 575 493.121299 397 497.351916 397 336.324042"></polygon>
        <linearGradient x1="49.9918241%" y1="100%" x2="49.9918241%" y2="-0.0776833077%" id="linearGradient-7">
            <stop stop-color="#808080" stop-opacity="0.25" offset="0%"></stop>
            <stop stop-color="#808080" stop-opacity="0.12" offset="54%"></stop>
            <stop stop-color="#808080" stop-opacity="0.1" offset="100%"></stop>
        </linearGradient>
        <path d="M349.94156,581.942509 L349.94156,581.056609 L525.684975,579.042242 L632.760169,577.987599 L633.060379,577.987599 L632.950302,579.54847 L633.100408,577.987599 L633.290541,577.987599 L633.290541,577.80831 L634.661504,563.623368 L635.181869,558.255238 L635.341982,556.578356 L635.48208,555.175682 L641.666423,533.439499 L647.850766,511.734956 L653.05442,493.458001 L661,465.531068 C661,465.531068 656.496838,454.457321 653.995081,451.293394 C651.493324,448.129466 648.991567,426.509294 648.991567,426.509294 C648.991567,426.509294 627.636571,405.068412 618.300014,402.600549 C614.387266,401.545906 606.661841,400.143231 598.456079,398.381978 C595.383921,397.7281 592.231708,397.032036 589.199578,396.272693 C587.488377,395.861383 585.807196,395.428979 584.196065,394.996576 C581.060332,394.17112 577.970147,393.164168 574.939564,391.980298 C573.350623,391.371931 571.838321,390.560855 570.436402,389.565167 C563.081237,383.880644 544.648292,383.237312 543.937793,383.237312 C543.935844,383.212746 543.935844,383.188052 543.937793,383.163487 L543.937793,383.068569 C543.963625,382.626038 543.963625,382.182251 543.937793,381.73972 C543.937793,381.317863 543.937793,380.822181 543.84773,380.26322 C543.84773,380.094477 543.84773,379.915188 543.777681,379.735899 C543.727646,379.356227 543.667604,378.955463 543.57754,378.533606 C543.547156,378.34513 543.507069,378.158534 543.457456,377.974646 C543.16746,376.703858 542.748068,375.469799 542.206578,374.293943 C542.136528,374.125201 542.046465,373.945911 541.966409,373.777169 C541.475799,372.802937 540.906639,371.874951 540.265214,371.003459 C540.135123,370.824169 539.995025,370.634334 539.844919,370.455045 C539.025191,369.436369 538.113617,368.503915 537.123008,367.670788 C536.852818,367.449313 536.572621,367.217292 536.282417,367.006364 C536.120523,366.867951 535.950023,366.741111 535.772059,366.626692 L534.881434,366.015 L534.05085,365.508771 C533.320337,365.086914 532.549796,364.675604 531.709206,364.285386 C531.449023,364.158829 531.168826,364.042818 530.88863,363.926807 C530.608433,363.810797 530.168124,363.631507 529.797864,363.483858 L529.737822,363.483858 L528.987294,363.167465 C528.416894,362.967083 527.836486,362.787793 527.226058,362.608504 L526.295404,362.35539 L525.294701,362.112822 L524.293999,361.891347 C523.293296,361.680419 522.222544,361.490583 521.101757,361.342933 L519.960956,361.195283 L518.790134,361.068726 L517.579283,360.963262 L515.858074,360.857798 L513.856669,360.783972 C505.029737,360.783972 496.227638,361.76945 487.598229,363.726425 C481.603375,362.320536 475.463017,361.725145 469.325397,361.954626 L468.454786,361.954626 L467.454083,362.017904 L466.813633,362.017904 L465.522727,362.144462 C465.092424,362.144462 464.652115,362.239379 464.221813,362.302658 C463.791511,362.365936 463.341195,362.418669 462.910892,362.492494 L462.250429,362.608504 C461.599972,362.724515 460.939508,362.851072 460.249023,362.998722 C460.028869,363.040908 459.808714,363.09364 459.588559,363.156918 C458.717948,363.3573 457.847337,363.599868 456.986732,363.874075 C456.55643,364.000632 456.126128,364.148282 455.695826,364.306479 C455.475671,364.369757 455.265524,364.454129 455.055376,364.5385 L454.414926,364.781068 L453.784483,365.044728 L453.033956,365.361121 C452.653689,365.529864 452.283429,365.709153 451.913169,365.898989 C451.703022,365.993907 451.492874,366.099371 451.292734,366.215382 C451.092593,366.331392 450.882446,366.42631 450.692312,366.542321 C448.429663,367.774481 446.338607,369.328829 444.477948,371.161655 L443.96759,371.67843 L443.467238,372.216298 C443.297119,372.395587 443.137006,372.585422 442.976894,372.775258 C442.324728,373.526607 441.716513,374.319051 441.155615,375.148204 C440.995502,375.369679 440.845397,375.591154 440.695292,375.823175 C440.060235,376.81023 439.48534,377.838822 438.974083,378.902731 C438.843992,379.155845 438.723907,379.419506 438.603823,379.67262 C437.787209,381.454317 437.117603,383.306777 436.602417,385.209493 C436.41562,385.912588 436.2455,386.615683 436.092059,387.318778 C436.092059,387.318778 414.907182,397.16914 397.334842,404.298523 C392.66156,406.19688 388.258468,407.915947 384.575882,409.213157 C383.50513,409.592828 382.504427,409.94086 381.573774,410.2678 C379.554452,411.037045 377.454507,411.546951 375.319382,411.786485 C374.312987,411.80388 373.30934,411.902603 372.317273,412.081785 C364.241602,413.463366 350.401883,419.464282 348.890822,425.486291 C348.768139,425.967177 348.734168,426.46841 348.790752,426.962791 C348.790752,426.962791 348.790752,427.036616 348.790752,427.078801 C349.791455,434.461299 342.786535,433.406656 342.786535,433.406656 C342.786535,433.406656 340.284779,452.917543 336.782319,458.190756 C334.250541,461.987469 332.519325,470.456248 332.299171,476.847382 C332.17335,478.838617 332.321657,480.838562 332.73948,482.785019 C332.73948,482.837751 332.73948,482.890483 332.73948,482.932669 C333.139761,484.34589 332.179086,488.205882 330.547941,493.152155 C328.776697,498.583564 326.194884,505.333276 323.713141,511.703317 C319.970513,521.321657 316.448039,530.054097 316.227885,531.973546 C316.137822,532.827807 315.877639,534.357038 315.517386,536.32922 C314.05636,544.365596 310.814083,559.668459 309.212959,565.85921 C308.022122,570.478545 306.290907,576.8064 305.10007,581.151527 C305.10007,581.278084 305.030021,581.404641 305,581.520652 L349.861504,581.056609 L349.861504,581.942509 L350.001602,581.942509 L349.94156,581.942509 Z" id="path-8"></path>
        <path d="M473.575248,202.225238 C470.682664,203.030358 467.599184,202.346844 465.259462,200.38188 L467.338408,203.426055 C464.858464,203.727672 462.378633,202.860378 460.561842,201.056023 C460.373316,203.781131 460.480623,206.520014 460.88168,209.219466 C457.441741,209.394321 454.054904,208.27424 451.326522,206.059423 C451.21733,208.005716 452.270408,209.81758 453.965185,210.599351 C446.817047,209.699428 440.144594,214.527147 438.373086,221.880702 L443.590443,222.386309 C439.490116,223.309202 435.81003,225.675604 433.15573,229.096133 C431.556541,231.202828 430.337159,233.899397 431.036804,236.469565 C431.73645,239.039733 435.114738,240.682955 436.953806,238.85013 C431.658313,245.511041 429.426681,254.297799 430.856895,262.855919 C431.331292,264.657441 431.487142,266.535571 431.316662,268.396527 C430.986829,270.13455 429.947356,271.640837 429.42762,273.336727 C428.428126,276.412501 429.377645,279.751613 430.267194,282.816854 L434.954819,299.059472 C436.653958,304.926618 438.343102,310.804297 440.561977,316.48184 C442.133217,320.071404 443.46901,323.770311 444.559951,327.552522 C445.819313,332.650723 445.869288,338.233465 448.557925,342.689125 C450.400574,345.493067 452.863731,347.781631 455.734289,349.356814 C465.619279,355.318761 477.563227,356.582778 488.877493,355.150226 C500.19176,353.717673 511.046259,349.76762 521.810804,345.849167 C524.202167,345.090045 526.497669,344.028998 528.64734,342.689125 C536.093566,337.548789 537.752726,327.036381 539.142022,317.777457 C540.691236,307.454652 542.760188,297.152913 546.428329,287.44105 C548.607225,281.658172 551.425797,275.791026 550.94604,269.597343 C550.336349,261.370699 544.159479,254.70301 542.630254,246.613301 C542.118334,243.909182 542.142154,241.122751 542.700218,238.428791 C543.174472,236.823729 543.44009,235.158322 543.489818,233.478058 C543.319904,230.086279 540.681242,227.473978 538.202498,225.293548 C532.825223,220.560507 527.274702,216.087291 521.550936,211.873901 C521.261083,209.767206 523.979705,208.861328 525.209082,207.197039 C526.948201,204.848074 525.149112,201.119224 522.51045,200.023742 C519.871787,198.928261 516.913286,199.644537 514.164679,200.371347 C514.53242,197.326548 512.959078,194.388688 510.295665,193.146838 C507.632252,191.904988 504.511143,192.654001 502.620529,194.988741 C501.133748,191.395985 497.908496,188.941577 494.204794,188.584389 C487.578152,188.036648 487.448218,193.37712 483.210365,196.315959 C478.972513,199.254799 475.474285,195.37848 472.215937,192.555509 C470.997449,195.803229 471.515619,199.489332 473.575248,202.225238 L473.575248,202.225238 Z" id="path-9"></path>
        <path d="M723,558.637368 C723,558.637368 722.113018,560.875377 720.478578,564.116268 C718.006225,569.102356 714.996288,573.767893 711.509093,578.019372 L711.240008,578.325515 L709.625501,578.325515 L652.08127,578.885017 L650.705949,578.885017 L650.536525,578.673884 L639.374499,564.6441 L635.168807,559.35522 L634.999384,559.133531 L634.640604,558.690151 L634.441282,558.436792 L634.182164,558.109536 L626,547.827362 L628.989828,534.631553 L634.082503,512.399254 L634.212062,511.860865 L635.208672,507.638206 L635.916264,504.471212 L638.288195,494.146811 L646.420528,458.623693 L660.871365,466.541179 L676.109524,495.044126 L684.291688,510.351264 L688.776431,510.351264 C689.623549,510.351264 691.566937,512.082554 693.520292,514.077761 C694.217918,514.785056 694.915545,515.534578 695.513511,516.18909 C697.287476,518.131513 698.692695,519.799463 698.692695,519.799463 C698.692695,519.799463 705.957978,519.96837 707.911333,526.027885 C708.012188,526.321117 708.095406,526.620822 708.160485,526.9252 C708.808888,529.306989 709.652573,531.624192 710.681907,533.850361 C711.967533,536.816779 713.58204,540.184349 715.21648,543.551919 C718.256139,549.727558 721.345628,555.607611 722.481763,557.740053 L722.621288,558.003969 L723,558.637368 Z" id="path-10"></path>
    </defs>
    <g id="Page-1" stroke="none" stroke-width="1" fill="none" fill-rule="evenodd">
        <g id="pro-trader-blue">
            <path d="M961.213697,461.862224 C960.054006,464.49737 958.897647,467.097381 957.74462,469.662257 C955.945098,473.646599 954.168904,477.553643 952.416036,481.383389 C951.636244,483.080423 950.856451,484.745836 950.096653,486.411248 C941.498939,504.931058 933.471073,521.311129 926.652886,534.781997 C914.051277,559.643559 889.594684,575.282177 862.859846,575.574065 L711.250153,577.313262 L709.650578,577.313262 L696.654033,577.46083 L685.536989,577.587317 L651.446052,577.977319 L650.066419,577.977319 L632.711033,578.17759 L632.181174,578.17759 L525.209614,579.400298 L429.724999,580.454357 L418.617952,580.580844 L349.636292,581.371387 L349.556313,581.371387 L304.818207,581.877336 L304.338335,581.877336 L162.875944,583.490045 L120.557195,583.974912 C111.526291,584.082485 102.53345,582.72443 93.8942834,579.948408 C78.8603782,575.160319 65.3492762,566.140859 54.8146731,553.860458 C36.6395052,532.747664 23.3930269,508.114315 14.4953924,481.383389 C13.2090677,477.525534 12.0093867,473.61849 10.8963493,469.662257 C-19.9054618,359.882054 17.6445552,218.2482 85.2265878,123.467251 C88.059168,119.503991 90.9384026,115.639109 93.8642914,111.872606 L93.9342728,111.788282 C114.718747,84.8887063 138.022551,62.416177 162.845952,46.4366486 C206.834257,18.0719317 255.5713,10.0821676 303.508555,33.8933513 C344.067772,54.0469517 381.937704,63.5229385 418.647944,66.0948415 C422.356958,66.3478156 426.065972,66.5375461 429.754991,66.6534926 C513.962604,69.4467479 592.881622,37.4560694 685.556984,16.8070614 C689.246003,15.9848957 692.945019,15.1732706 696.674028,14.4038078 C762.786451,0.532396667 836.126953,-6.78277001 923.343766,8.59594495 C932.404939,10.1566499 941.346233,12.4112756 950.096653,15.34192 C953.942297,16.6489526 957.647979,18.0543641 961.213697,19.5581544 C1002.84263,37.413907 1025.54659,70.4059412 1035.19403,111.746119 C1036.10712,115.582893 1036.89691,119.486423 1037.5634,123.45671 C1054.66885,222.896599 1004.57217,363.95072 961.213697,461.862224 Z" id="path13" fill="#0074D9" fill-rule="nonzero" opacity="0.1"></path>
            <path d="M834.769176,395.663101 C846.142538,400.025359 858.886902,396.332545 866.553051,386.453388 C874.2192,376.57423 875.134723,362.663919 868.836324,351.761695 C862.537925,340.85947 850.399633,335.343709 838.563967,338.005635 L839.27724,353.479411 L832.338344,340.218633 C825.528097,343.594638 820.266863,349.685192 817.710824,357.151867 C816.803138,359.767204 816.251322,362.505056 816.071837,365.283765 C815.17179,378.680015 822.803946,391.0807 834.769176,395.663101 L834.769176,395.663101 Z" id="path10" fill="#57B894" fill-rule="nonzero"></path>
            <g id="g27" opacity="0.1" transform="translate(10.000000, 13.249129)" fill="#0074D9" fill-rule="nonzero">
                <path d="M152.9,32.7965583 L152.9,570.390062 L110.57,570.875312 C101.536695,570.982969 92.5414637,569.623842 83.9,566.845628 L83.9,98.1997944 L83.97,98.1997944 C104.76,71.2473318 128.07,48.7570577 152.9,32.7965583 Z" id="path15"></path>
                <path d="M1027.9,109.887986 L75.26,109.887986 C78.0933333,105.921596 80.9733333,102.053663 83.9,98.2841857 L83.9,98.1997944 L1025.53,98.1997944 C1026.44333,102.0185 1027.23333,105.914563 1027.9,109.887986 Z" id="path17"></path>
                <path d="M951.48,5.90738907 L951.48,456.345806 L948.01,456.345806 C946.21,460.333294 944.433333,464.243423 942.68,468.076193 C941.9,469.774567 941.12,471.441295 940.36,473.108022 L940.36,1.64562981 C944.206667,2.95369454 947.913333,4.37428096 951.48,5.90738907 Z" id="path19"></path>
                <path d="M686.87,0.706776907 L686.87,564.282243 L675.75,564.40883 L675.75,3.11192817 C679.44,2.28911327 683.14,1.47684727 686.87,0.706776907 Z" id="path21"></path>
                <path d="M419.88,52.9977191 L419.88,567.341427 L408.77,567.468014 L408.77,52.4386269 C412.48,52.6918008 416.19,52.8394855 419.88,52.9977191 Z" id="path23"></path>
                <path d="M948.01,456.356355 C946.21,460.343842 944.433333,464.253971 942.68,468.086742 L4.51,468.086742 C3.22333333,464.225841 2.02333333,460.315712 0.91,456.356355 L948.01,456.356355 Z" id="path25"></path>
            </g>
            <rect id="rect29" fill="#3F3D56" fill-rule="nonzero" x="212" y="280.270035" width="19" height="61.1498258"></rect>
            <rect id="rect31" fill="#3F3D56" fill-rule="nonzero" x="723" y="277.212544" width="19" height="64.2073171"></rect>
            <path d="M869.33137,574.808362 C866.898493,561.631649 877.440481,549.950485 887.852669,542.358166 C898.265175,534.764905 910.431602,527.304555 913.984355,514.419151 C919.090525,495.90042 903.881078,478.940868 892.043765,464.315667 C883.261196,453.462027 875.719037,441.539412 869.575116,428.797316 C866.904141,423.792401 865.08489,418.325205 864.201129,412.64746 C863.267882,404.438769 865.747034,396.27057 868.245056,388.440573 C876.566205,362.356862 885.462899,336.491653 894.935139,310.844948" id="path12" stroke="#3F3D56" stroke-width="1.8321147"></path>
            <polygon id="polygon33" fill="#65617D" fill-rule="nonzero" points="863 561.947987 863 575.606882 711.08 577.07784 709.46 577.109361 651.72 577.666224 650.34 577.687237 632.79 577.84484 632.27 577.84484 525.29 578.885017 349.68 580.597633 349.53 580.597633 304.88 581.03892 304.4 581.049427 106 582.961672 106 567.201408 152.65 537.782248 246.25 536.962714 248.25 536.952207 248.91 536.9417 250.91 536.91018 295.85 536.521427 297.86 536.51092 298.5 536.500413 300.5 536.489906 314.91 536.363824 315.29 536.353317 350.84 536.038112 351.13 536.038112 628.53 533.579511 635.32 533.526977 636 533.526977 641.18 533.474442 678.83 533.14873 680.83 533.11721 682.68 533.096196 683.64 533.096196 695.35 533.001634 697.67 532.970114 700.78 532.9491 710.53 532.854539 726 532.71795 728 532.696936 731.48 532.675922 732.13 532.675922 806.84 532.003484"></polygon>
            <path d="M865.710845,306.193106 C869.019325,296.561873 876.752324,289.373905 886.225124,287.124699 L888.571785,301.838504 L892.922272,286.385017 C905.317176,286.578865 916.171603,295.20418 919.77051,307.719586 C923.369416,320.234992 918.887208,333.769435 908.683844,341.196798 C898.48048,348.624161 884.896629,348.240594 875.084422,340.248053 C865.272215,332.255512 861.482588,318.487497 865.710845,306.193106 L865.710845,306.193106 Z" id="path16" fill="#57B894" fill-rule="nonzero"></path>
            <polygon id="polygon35" fill="#000000" fill-rule="nonzero" opacity="0.2" points="863 561.947987 863 575.606882 711.08 577.07784 709.46 577.109361 651.72 577.666224 650.34 577.687237 632.79 577.84484 632.27 577.84484 525.29 578.885017 349.68 580.597633 349.53 580.597633 304.88 581.03892 304.4 581.049427 106 582.961672 106 567.201408 152.65 537.782248 246.25 536.962714 248.25 536.952207 248.91 536.9417 250.91 536.91018 295.85 536.521427 297.86 536.51092 298.5 536.500413 300.5 536.489906 314.91 536.363824 315.29 536.353317 350.84 536.038112 351.13 536.038112 628.53 533.579511 635.32 533.526977 636 533.526977 641.18 533.474442 678.83 533.14873 680.83 533.11721 682.68 533.096196 683.64 533.096196 695.35 533.001634 697.67 532.970114 700.78 532.9491 710.53 532.854539 726 532.71795 728 532.696936 731.48 532.675922 732.13 532.675922 806.84 532.003484"></polygon>
            <path d="M296,508.562718 L296,534.817493 C296.001097,537.355725 294.643545,539.667714 292.512614,540.756711 C291.735234,541.16226 290.885397,541.381709 290.021624,541.399947 L255.247406,542.193272 C254.318703,542.217238 253.397588,542.008014 252.557137,541.582198 C250.387499,540.51223 248.997447,538.178742 249,535.610818 L249,508.562718 L296,508.562718 Z" id="path37" fill="#3F3D56" fill-rule="nonzero"></path>
            <path d="M296,508.562718 L296,534.817493 C296.001097,537.355725 294.643545,539.667714 292.512614,540.756711 C291.735234,541.16226 290.885397,541.381709 290.021624,541.399947 L255.247406,542.193272 C254.318703,542.217238 253.397588,542.008014 252.557137,541.582198 C250.387499,540.51223 248.997447,538.178742 249,535.610818 L249,508.562718 L296,508.562718 Z" id="path39" fill="#000000" fill-rule="nonzero" opacity="0.1"></path>
            <path d="M298,508.562718 L298,534.817493 C298.001097,537.355725 296.643545,539.667714 294.512614,540.756711 C293.735234,541.16226 292.885397,541.381709 292.021624,541.399947 L257.247406,542.193272 C256.318703,542.217238 255.397588,542.008014 254.557137,541.582198 C252.387499,540.51223 250.997447,538.178742 251,535.610818 L251,508.562718 L298,508.562718 Z" id="path41" fill="#3F3D56" fill-rule="nonzero"></path>
            <rect id="rect43" fill="#3F3D56" fill-rule="nonzero" x="681" y="510.601045" width="47" height="33.6324042"></rect>
            <rect id="rect45" fill="#000000" fill-rule="nonzero" opacity="0.1" x="681" y="510.601045" width="47" height="33.6324042"></rect>
            <rect id="rect47" fill="#3F3D56" fill-rule="nonzero" x="679" y="510.601045" width="47" height="33.6324042"></rect>
            <polygon id="polygon49" fill="#000000" fill-rule="nonzero" opacity="0.1" points="231 280.270035 231 286.385017 212 285.862096 212 280.270035"></polygon>
            <path d="M355.958152,110.95567 L333.097734,283.49939 C332.797639,285.781258 330.913591,287.461847 328.721911,287.404181 L145.67835,282.415731 L142.203726,282.321043 C140.980176,282.290571 139.826784,281.714442 139.03186,280.736668 C138.236935,279.758894 137.875603,278.471879 138.038183,277.197336 L163.702333,96.5735199 C164.045294,94.2541372 166.019546,92.5955795 168.248382,92.754412 L351.952823,105.821442 C353.151087,105.894415 354.265646,106.4908 355.026534,107.466143 C355.787422,108.441487 356.125236,109.706825 355.958152,110.95567 L355.958152,110.95567 Z" id="path51" fill="#65617D" fill-rule="nonzero"></path>
            <g id="polygon53" fill-rule="nonzero">
                <use fill="#D4DFEC" xlink:href="#path-1"></use>
                <use fill="#FF767F" xlink:href="#path-1"></use>
            </g>
            <path id="Line" d="M254.894811,118.580599 L264.75738,120.23279 L263.931284,125.164075 L251.852,197.263 L273.550767,200.898166 L238,249.695122 L220.292896,191.976334 L241.99,195.611 L254.068716,123.511884 L254.894811,118.580599 Z" fill-opacity="0.66" fill="#222222" fill-rule="nonzero"></path>
            <rect id="rect55" fill="#65617D" fill-rule="nonzero" x="384" y="101.916376" width="205" height="182.430314" rx="5.33"></rect>
            <g id="rect57" fill-rule="nonzero">
                <use fill="#D4DFEC" xlink:href="#path-2"></use>
                <use fill="#FFE79A" xlink:href="#path-2"></use>
            </g>
            <polygon id="polygon59" fill="#000000" fill-rule="nonzero" opacity="0.1" points="742 277.212544 742 280.908841 723 281.289199 723 277.212544"></polygon>
            <path d="M886.820276,463.950856 C900.425698,469.161695 915.56957,462.766975 922.016486,449.088744 C928.463403,435.410512 924.160963,418.80329 912.017089,410.491526 L908.677202,422.35977 L906.309039,407.481585 C906.286197,407.46994 906.262545,407.460158 906.238289,407.452325 C896.670552,403.762606 885.964303,405.750064 878.163196,412.664055 C870.36209,419.578045 866.655058,430.364837 868.442216,440.950355 C870.229373,451.535873 877.238346,460.306824 886.821907,463.950497 L886.820276,463.950856 Z" id="path20" fill="#57B894" fill-rule="nonzero"></path>
            <path d="M826.99345,273.753702 C827.048053,274.635964 826.759479,275.503569 826.194426,276.15598 C825.629374,276.808391 824.83675,277.18914 823.999761,277.210222 L637.193562,281.289199 C635.58392,281.323614 634.221392,280.041032 634.070146,278.348345 L618.013993,102.065818 C617.933887,101.181998 618.20012,100.302106 618.750678,99.6310949 C619.301235,98.9600839 620.088051,98.5565375 620.927851,98.5144543 L806.317037,88.7771841 L808.31283,88.6718024 C809.961915,88.580049 811.383109,89.8851234 811.526056,91.6224903 L826.99345,273.753702 Z" id="path61" fill="#65617D" fill-rule="nonzero"></path>
            <g id="polygon63" fill-rule="nonzero">
                <use fill="#FFFFFF" xlink:href="#path-3"></use>
                <use fill="#57B894" xlink:href="#path-3"></use>
            </g>
            <path d="M827.99335,273.755981 C828.04879,274.638254 827.755792,275.505869 827.182078,276.158288 C826.608364,276.810707 825.803591,277.191461 824.953772,277.212544 L807,88.7771855 L809.026385,88.6718025 C810.700748,88.5800479 812.143726,89.8851384 812.288865,91.6225267 L827.99335,273.755981 Z" id="path65" fill="#000000" fill-rule="nonzero" opacity="0.1"></path>
            <path d="M145.607744,282.308362 L142.165071,282.213734 C140.952773,282.183282 139.809986,281.607517 139.022371,280.630361 C138.234757,279.653206 137.876747,278.367006 138.037832,277.093269 L163.46599,96.5837446 C163.801938,94.248703 165.777348,92.5812391 168,92.7565389 L145.607744,282.308362 Z" id="path67" fill="#000000" fill-rule="nonzero" opacity="0.1"></path>
            <path id="Line" d="M719,115.165505 L750.983679,166.371406 L729.081,168.45 L735.97761,241.069165 L736.450257,246.046776 L726.495036,246.992069 L726.02239,242.014458 L719.126,169.396 L697.225487,171.475989 L719,115.165505 Z" fill-opacity="0.66" fill="#222222" fill-rule="nonzero"></path>
            <path id="Line" d="M518.020482,160.824142 L572.04279,187.779479 L518.065135,214.824123 L518.047,192.823 L455.004,192.876 L455.022308,214.876255 L401,187.920918 L454.977655,160.876273 L454.995,182.876 L518.038,182.823 L518.020482,160.824142 Z" fill-opacity="0.66" fill="#222222" fill-rule="nonzero"></path>
            <rect id="rect69" fill="#000000" fill-rule="nonzero" opacity="0.1" x="212" y="324.094077" width="19" height="17.325784"></rect>
            <polygon id="polygon71" fill="#000000" fill-rule="nonzero" opacity="0.1" points="298 510.601045 298 515.47929 251 516.716028 251 510.601045"></polygon>
            <path d="M382,329.267795 L382,506.178201 C381.974774,508.421094 380.276807,510.248797 378.140351,510.332755 L186.010025,515.696864 L185.9599,515.696864 C183.784202,515.668505 182.02703,513.824957 182,511.542309 L182,329.267795 C182.02703,326.985148 183.784202,325.1416 185.9599,325.11324 L378.0401,325.11324 C380.215798,325.1416 381.97297,326.985148 382,329.267795 Z" id="path73" fill="#65617D" fill-rule="nonzero"></path>
            <path d="M186,325.11324 L186,515.696864 L185.95,515.696864 C183.779742,515.668505 182.026963,513.824957 182,511.542309 L182,329.267795 C182.026963,326.985148 183.779742,325.1416 185.95,325.11324 L186,325.11324 Z" id="path75" fill="#000000" fill-rule="nonzero" opacity="0.1"></path>
            <g id="polygon77" fill-rule="nonzero">
                <use fill="#0074D9" xlink:href="#path-4"></use>
                <use fill="#E6F1FC" xlink:href="#path-4"></use>
            </g>
            <path d="M203.873971,349.82804 C256.176499,350.2363 309.072873,347.798092 361.341983,349.766025" id="Path" stroke-opacity="0.33" stroke="#0074D9" transform="translate(282.607977, 349.431815) rotate(-1.000000) translate(-282.607977, -349.431815) "></path>
            <path d="M204.020769,360.264876 C256.324115,360.771802 309.216215,358.433375 361.488936,360.499914" id="Path" stroke-opacity="0.33" stroke="#0074D9" transform="translate(282.754852, 360.065770) scale(1, -1) rotate(1.000000) translate(-282.754852, -360.065770) "></path>
            <path d="M204.213671,372.103409 C256.516198,372.511669 309.412572,370.073462 361.681683,372.041395" id="Path" stroke-opacity="0.33" stroke="#0074D9" transform="translate(282.947677, 371.707184) scale(-1, -1) rotate(-1.000000) translate(-282.947677, -371.707184) "></path>
            <path d="M204.423301,384.606703 C256.726647,385.113628 309.618747,382.775202 361.891468,384.84174" id="Path" stroke-opacity="0.33" stroke="#0074D9" transform="translate(283.157385, 384.407596) scale(-1, 1) rotate(1.000000) translate(-283.157385, -384.407596) "></path>
            <path d="M204.644331,396.347516 C256.946858,396.755776 309.843232,394.317568 362.112343,396.285501" id="Path" stroke-opacity="0.33" stroke="#0074D9" transform="translate(283.378337, 395.951291) rotate(-1.000000) translate(-283.378337, -395.951291) "></path>
            <path d="M204.791129,406.784352 C257.094475,407.291278 309.986574,404.952851 362.259295,407.01939" id="Path" stroke-opacity="0.33" stroke="#0074D9" transform="translate(283.525212, 406.585246) scale(1, -1) rotate(1.000000) translate(-283.525212, -406.585246) "></path>
            <path d="M204.98403,418.622885 C257.286558,419.031145 310.182932,416.592938 362.452042,418.560871" id="Path" stroke-opacity="0.33" stroke="#0074D9" transform="translate(283.718036, 418.226660) scale(-1, -1) rotate(-1.000000) translate(-283.718036, -418.226660) "></path>
            <path d="M205.193661,431.126179 C257.497007,431.633104 310.389106,429.294678 362.661828,431.361216" id="Path" stroke-opacity="0.33" stroke="#0074D9" transform="translate(283.927744, 430.927072) scale(-1, 1) rotate(1.000000) translate(-283.927744, -430.927072) "></path>
            <path d="M205.412237,442.718831 C257.714764,443.127091 310.611138,440.688883 362.880249,442.656816" id="Path" stroke-opacity="0.33" stroke="#0074D9" transform="translate(284.146243, 442.322606) rotate(-1.000000) translate(-284.146243, -442.322606) "></path>
            <path d="M205.559034,453.155667 C257.862381,453.662593 310.75448,451.324166 363.027201,453.390705" id="Path" stroke-opacity="0.33" stroke="#0074D9" transform="translate(284.293118, 452.956561) scale(1, -1) rotate(1.000000) translate(-284.293118, -452.956561) "></path>
            <path d="M205.751936,464.9942 C258.054464,465.40246 310.950837,462.964252 363.219948,464.932185" id="Path" stroke-opacity="0.33" stroke="#0074D9" transform="translate(284.485942, 464.597975) scale(-1, -1) rotate(-1.000000) translate(-284.485942, -464.597975) "></path>
            <path d="M205.961567,477.497493 C258.264913,478.004419 311.157012,475.665992 363.429733,477.732531" id="Path" stroke-opacity="0.33" stroke="#0074D9" transform="translate(284.695650, 477.298387) scale(-1, 1) rotate(1.000000) translate(-284.695650, -477.298387) "></path>
            <path d="M206.182596,489.238307 C258.485123,489.646567 311.381497,487.208359 363.650608,489.176292" id="Path" stroke-opacity="0.33" stroke="#0074D9" transform="translate(284.916602, 488.842082) rotate(-1.000000) translate(-284.916602, -488.842082) "></path>
            <rect id="rect79" fill="#000000" fill-rule="nonzero" opacity="0.1" x="723" y="323.074913" width="19" height="18.3449477"></rect>
            <polygon id="polygon81" fill="#000000" fill-rule="nonzero" opacity="0.1" points="726 516.716028 679 515.313684 679 509.581882 726 509.581882"></polygon>
            <path d="M789,329.267795 L789,511.542309 C788.972565,513.845288 787.185586,515.696864 784.990779,515.696864 L784.990779,515.696864 L592.858875,510.332755 C590.722847,510.248797 589.025221,508.421094 589,506.178201 L589,329.267795 C589.027025,326.985148 590.783845,325.1416 592.959106,325.11324 L785.000802,325.11324 C787.191704,325.118809 788.97262,326.968908 789,329.267795 Z" id="path83" fill="#65617D" fill-rule="nonzero"></path>
            <path d="M788,332.325286 L788,514.599801 C787.972628,516.902779 786.189759,518.754355 784,518.754355 L784,518.754355 L784,328.170732 L784,328.170732 C786.189759,328.170732 787.972628,330.022308 788,332.325286 L788,332.325286 Z" id="path85" fill="#000000" fill-rule="nonzero" opacity="0.1"></path>
            <g id="polygon87" fill-rule="nonzero">
                <use fill="#0074D9" xlink:href="#path-5"></use>
                <use fill="#E6F1FC" xlink:href="#path-5"></use>
            </g>
            <path d="M584,329.267795 L584,506.178201 C583.974774,508.421094 582.276807,510.248797 580.140351,510.332755 L388.010025,515.696864 L388.010025,515.696864 C385.814778,515.696864 384.027441,513.845288 384,511.542309 L384,329.267795 C384.02703,326.985148 385.784202,325.1416 387.9599,325.11324 L580.0401,325.11324 C582.215798,325.1416 583.97297,326.985148 584,329.267795 Z" id="path89" fill="#65617D" fill-rule="nonzero"></path>
            <g id="polygon91" fill-rule="nonzero">
                <use fill="#0074D9" xlink:href="#path-6"></use>
                <use fill="#E6F1FC" xlink:href="#path-6"></use>
            </g>
            <path d="M408,348.358197 C460.147461,348.80065 512.884464,346.491353 565,348.441846" id="Path" stroke-opacity="0.33" stroke="#0074D9"></path>
            <path d="M408,359.568999 C460.147461,360.011452 512.884464,357.702154 565,359.652648" id="Path" stroke-opacity="0.33" stroke="#0074D9" transform="translate(486.500000, 359.255226) scale(1, -1) translate(-486.500000, -359.255226) "></path>
            <path d="M408,370.7798 C460.147461,371.222253 512.884464,368.912956 565,370.863449" id="Path" stroke-opacity="0.33" stroke="#0074D9" transform="translate(486.500000, 370.466028) scale(-1, -1) translate(-486.500000, -370.466028) "></path>
            <path d="M408,384.028929 C460.147461,384.471382 512.884464,382.162085 565,384.112578" id="Path" stroke-opacity="0.33" stroke="#0074D9" transform="translate(486.500000, 383.715157) scale(-1, 1) translate(-486.500000, -383.715157) "></path>
            <path d="M408,395.239731 C460.147461,395.682183 512.884464,393.372886 565,395.32338" id="Path" stroke-opacity="0.33" stroke="#0074D9"></path>
            <path d="M408,406.450532 C460.147461,406.892985 512.884464,404.583687 565,406.534181" id="Path" stroke-opacity="0.33" stroke="#0074D9" transform="translate(486.500000, 406.136760) scale(1, -1) translate(-486.500000, -406.136760) "></path>
            <path d="M408,417.661333 C460.147461,418.103786 512.884464,415.794489 565,417.744982" id="Path" stroke-opacity="0.33" stroke="#0074D9" transform="translate(486.500000, 417.347561) scale(-1, -1) translate(-486.500000, -417.347561) "></path>
            <path d="M408,429.891298 C460.147461,430.333751 512.884464,428.024454 565,429.974948" id="Path" stroke-opacity="0.33" stroke="#0074D9" transform="translate(486.500000, 429.577526) scale(-1, 1) translate(-486.500000, -429.577526) "></path>
            <path d="M408,442.121264 C460.147461,442.563716 512.884464,440.254419 565,442.204913" id="Path" stroke-opacity="0.33" stroke="#0074D9"></path>
            <path d="M408,452.312901 C460.147461,452.755354 512.884464,450.446057 565,452.39655" id="Path" stroke-opacity="0.33" stroke="#0074D9" transform="translate(486.500000, 451.999129) scale(1, -1) translate(-486.500000, -451.999129) "></path>
            <path d="M408,463.523703 C460.147461,463.966155 512.884464,461.656858 565,463.607352" id="Path" stroke-opacity="0.33" stroke="#0074D9" transform="translate(486.500000, 463.209930) scale(-1, -1) translate(-486.500000, -463.209930) "></path>
            <path d="M408,476.772832 C460.147461,477.215284 512.884464,474.905987 565,476.856481" id="Path" stroke-opacity="0.33" stroke="#0074D9" transform="translate(486.500000, 476.459059) scale(-1, 1) translate(-486.500000, -476.459059) "></path>
            <path d="M408,487.983633 C460.147461,488.426086 512.884464,486.116788 565,488.067282" id="Path" stroke-opacity="0.33" stroke="#0074D9"></path>
            <path d="M608.18224,348.626001 C660.485586,349.132927 713.377686,346.7945 765.650407,348.861039" id="Path" stroke-opacity="0.33" stroke="#0074D9" transform="translate(686.916323, 348.426895) rotate(1.000000) translate(-686.916323, -348.426895) "></path>
            <path d="M607.975795,359.455978 C660.278322,359.864238 713.174696,357.42603 765.443807,359.393963" id="Path" stroke-opacity="0.33" stroke="#0074D9" transform="translate(686.709801, 359.059753) scale(1, -1) rotate(-1.000000) translate(-686.709801, -359.059753) "></path>
            <path d="M607.784589,370.803102 C660.087935,371.310028 712.980035,368.971601 765.252756,371.03814" id="Path" stroke-opacity="0.33" stroke="#0074D9" transform="translate(686.518672, 370.603996) scale(-1, -1) rotate(1.000000) translate(-686.518672, -370.603996) "></path>
            <path d="M607.574959,383.700633 C659.877486,384.108893 712.77386,381.670686 765.042971,383.638619" id="Path" stroke-opacity="0.33" stroke="#0074D9" transform="translate(686.308965, 383.304408) scale(-1, 1) rotate(-1.000000) translate(-686.308965, -383.304408) "></path>
            <path d="M607.41188,395.145477 C659.715227,395.652403 712.607326,393.313976 764.880047,395.380515" id="Path" stroke-opacity="0.33" stroke="#0074D9" transform="translate(686.145964, 394.946371) rotate(1.000000) translate(-686.145964, -394.946371) "></path>
            <path d="M607.205435,405.975454 C659.507963,406.383714 712.404337,403.945506 764.673447,405.913439" id="Path" stroke-opacity="0.33" stroke="#0074D9" transform="translate(685.939441, 405.579229) scale(1, -1) rotate(-1.000000) translate(-685.939441, -405.579229) "></path>
            <path d="M607.01423,417.322578 C659.317576,417.829504 712.209675,415.491077 764.482396,417.557616" id="Path" stroke-opacity="0.33" stroke="#0074D9" transform="translate(685.748313, 417.123472) scale(-1, -1) rotate(1.000000) translate(-685.748313, -417.123472) "></path>
            <path d="M606.804599,430.220109 C659.107126,430.628369 712.0035,428.190162 764.272611,430.158095" id="Path" stroke-opacity="0.33" stroke="#0074D9" transform="translate(685.538605, 429.823884) scale(-1, 1) rotate(-1.000000) translate(-685.538605, -429.823884) "></path>
            <path d="M606.643975,441.516792 C658.947321,442.023718 711.83942,439.685291 764.112141,441.751829" id="Path" stroke-opacity="0.33" stroke="#0074D9" transform="translate(685.378058, 441.317686) rotate(1.000000) translate(-685.378058, -441.317686) "></path>
            <path d="M606.43753,452.346769 C658.740057,452.755029 711.636431,450.316821 763.905542,452.284754" id="Path" stroke-opacity="0.33" stroke="#0074D9" transform="translate(685.171536, 451.950544) scale(1, -1) rotate(-1.000000) translate(-685.171536, -451.950544) "></path>
            <path d="M606.246324,463.693893 C658.54967,464.200819 711.441769,461.862392 763.714491,463.92893" id="Path" stroke-opacity="0.33" stroke="#0074D9" transform="translate(684.980407, 463.494787) scale(-1, -1) rotate(1.000000) translate(-684.980407, -463.494787) "></path>
            <path d="M606.036693,476.591424 C658.339221,476.999684 711.235595,474.561476 763.504705,476.529409" id="Path" stroke-opacity="0.33" stroke="#0074D9" transform="translate(684.770699, 476.195199) scale(-1, 1) rotate(-1.000000) translate(-684.770699, -476.195199) "></path>
            <path d="M605.873615,488.036268 C658.176961,488.543194 711.069061,486.204767 763.341782,488.271305" id="Path" stroke-opacity="0.33" stroke="#0074D9" transform="translate(684.607699, 487.837162) rotate(1.000000) translate(-684.607699, -487.837162) "></path>
            <path d="M857.437887,514.277011 C859.769933,528.277897 871.077569,538.641917 884.54321,539.120408 C898.008851,539.598899 909.951768,530.061071 913.171353,516.257457 C916.390939,502.453844 910.007143,488.157557 897.868877,481.988095 C885.730611,475.818632 871.155775,479.46237 862.93181,490.722429 L875.633862,510.893721 L858.278186,500.187423 C856.932413,504.745125 856.644225,509.577269 857.437887,514.277011 L857.437887,514.277011 Z" id="path24" fill="#57B894" fill-rule="nonzero"></path>
            <polygon id="polygon93" fill="#000000" fill-rule="nonzero" opacity="0.1" points="863 562.578397 863 575.827526 711.08 577.254355 709.46 577.28493 651.72 577.825087 650.34 577.84547 632.79 577.998345 632.27 577.998345 525.29 579.007317 349.68 580.668554 349.53 580.668554 304.88 581.096603 304.4 581.106794 106 582.961672 106 567.674216 308.51 566.318728 308.99 566.318728 349.98 566.033362 350.17 566.033362 633.25 564.127526 633.54 564.127526 633.71 564.117334 634.18 564.117334 638.97 564.08676 640.43 564.08676 714.92 563.577178 719.32 563.556794 720.3 563.546603"></polygon>
            <ellipse id="circle95" fill="#FBBEBE" fill-rule="nonzero" cx="487.5" cy="287.404181" rx="51.5" ry="54.0156794"></ellipse>
            <path d="M304,582.592166 C304,582.476036 304.059987,582.349348 304.099979,582.22266 C305.099769,578.432584 306.879395,572.024294 308.209115,566.903996 C308.379079,566.270557 308.539046,565.647675 308.689014,565.056465 C310.158705,559.281614 313.018104,545.757693 314.607769,537.322397 C315.167652,534.355792 315.607559,532.04374 315.69754,530.882435 C315.897498,529.098249 318.906865,521.46531 322.316148,512.69218 C324.705646,506.526708 327.315097,499.791141 329.224696,494.111305 C330.474722,490.737548 331.454617,487.259041 332.15408,483.712349 C332.303966,482.971135 332.303966,482.204856 332.15408,481.463641 C331.85393,480.256824 331.692799,479.016168 331.674181,477.768581 L331.674181,477.768581 C331.444229,471.223045 333.29384,460.876876 336.153239,456.537819 C339.652503,451.259161 342.151977,431.559211 342.151977,431.559211 C342.151977,431.559211 347.330888,432.351009 348.150716,427.832478 C348.237348,427.345447 348.270893,426.849543 348.250695,426.354454 C348.248581,425.962003 348.218502,425.570276 348.160714,425.182592 C347.270901,418.594827 362.877619,411.58477 371.655773,410.075073 C372.646935,409.895706 373.649666,409.796882 374.655143,409.779469 C376.787465,409.534322 378.884895,409.024034 380.903829,408.259215 C381.836966,407.956572 382.836756,407.604662 383.903198,407.203484 C387.582424,405.894377 391.981499,404.162977 396.650517,402.26266 C414.206826,395.073128 435.462356,385.370955 435.462356,385.370955 C435.612325,384.621386 435.782289,383.903488 435.972249,383.196148 C438.101797,374.168811 444.17058,366.749231 452.318811,363.21115 L452.318811,363.21115 C452.318811,362.514367 452.318811,361.807027 452.318811,361.099687 C452.318811,357.457413 452.168843,353.709566 452.018875,349.972276 C452.018875,349.243821 451.958887,348.515367 451.918896,347.786912 C451.918896,347.575766 451.918896,347.354062 451.918896,347.142916 C451.918896,346.931769 451.918896,346.77341 451.918896,346.593935 C451.918896,345.854923 451.84891,345.115911 451.808919,344.387456 L451.628957,344.239654 C450.092964,343.014606 448.773111,341.513694 447.729776,339.805581 C447.148968,338.807456 446.672923,337.745453 446.310075,336.638387 C445.060338,333.059457 444.770399,329.068791 443.930575,325.289272 L443.750613,324.508031 C442.656733,320.694167 441.320652,316.962496 439.751454,313.338391 C437.541919,307.616326 435.842276,301.725344 434.152631,295.760461 C433.126181,292.149859 432.089732,288.532219 431.043285,284.907541 L429.463617,279.375507 C429.163681,278.319776 428.863744,277.264044 428.633792,276.208313 L428.633792,276.208313 C428.522155,275.720906 428.435382,275.227521 428.373847,274.730288 C428.093275,273.110422 428.175448,271.44371 428.613796,269.863366 C429.002326,268.784586 429.442808,267.727476 429.933519,266.696171 C430.142767,266.228039 430.310126,265.740282 430.433414,265.239262 L430.433414,265.239262 C430.465922,265.128284 430.492623,265.015503 430.513397,264.901428 C430.584629,264.525973 430.621458,264.144147 430.623374,263.761238 C430.588767,262.376687 430.414486,260.999977 430.103483,259.654442 C430.097329,259.637446 430.097329,259.618651 430.103483,259.601655 C430.091661,259.505764 430.074974,259.410611 430.053493,259.316608 C429.874293,258.269324 429.754106,257.211733 429.693569,256.149413 C429.341848,250.43293 430.545596,244.729456 433.16284,239.711673 L433.3528,239.331609 C433.904032,238.311525 434.518579,237.331073 435.192413,236.396676 L435.192413,236.396676 C435.502348,235.953269 435.82228,235.530976 436.192203,235.108683 C434.792497,236.523364 432.49298,235.900482 431.193254,234.380228 C430.978394,234.142436 430.793565,233.876295 430.643369,233.58843 C430.556846,233.435619 430.480027,233.27691 430.413418,233.113351 C430.363428,232.986663 430.323437,232.849418 430.283445,232.712173 C429.583592,230.12563 430.803336,227.370171 432.402999,225.269265 C433.978829,223.222874 435.931049,221.534925 438.141793,220.307327 L438.141793,220.307327 C438.270862,220.225202 438.404398,220.151173 438.541709,220.085623 C439.390598,219.63592 440.273461,219.261603 441.181153,218.966548 L441.181153,218.966548 C441.715719,218.77965 442.259793,218.624566 442.810811,218.502026 L439.101591,218.143077 L437.601906,217.995275 C439.129054,211.598173 444.367965,206.95551 450.599173,206.477244 L451.678946,206.477244 C452.204491,206.485797 452.728896,206.531649 453.248616,206.614489 C451.54625,205.826689 450.488919,204.002383 450.599173,202.043171 C453.217112,204.207247 456.463293,205.348609 459.787241,205.27371 L460.167161,205.27371 C459.994179,204.130388 459.880699,202.977911 459.827233,201.821467 L459.827233,201.821467 C459.727253,200.253722 459.727253,198.68065 459.827233,197.112905 C461.640641,198.929003 464.123161,199.802812 466.605807,199.498858 L464.526244,196.437237 C466.379583,197.998619 468.719368,198.770714 471.084865,198.601486 L471.564764,198.5487 C471.96725,198.504235 472.365325,198.422991 472.754514,198.305881 L472.844495,198.305881 C472.654535,198.052506 472.484571,197.788573 472.314607,197.514083 L472.254619,197.387395 C471.838816,196.696871 471.503144,195.956062 471.25483,195.180916 C471.155064,194.880904 471.074892,194.574022 471.01488,194.26243 L471.01488,194.26243 C470.578853,192.343017 470.736524,190.326592 471.464785,188.508693 C474.694106,191.359168 478.233362,195.254817 482.462473,192.309326 C486.691584,189.363835 486.831554,183.95849 493.46016,184.50747 C497.17037,184.877072 500.394192,187.354331 501.868392,190.968547 C503.785339,188.680855 506.869848,187.93771 509.53678,189.121017 C512.158409,190.433271 513.712533,193.347463 513.415964,196.395007 C516.165386,195.666552 519.124763,194.948655 521.764208,196.046616 C524.403653,197.144577 526.103296,200.702392 524.603611,203.077788 C524.56274,203.152255 524.515912,203.222894 524.463641,203.288934 C523.233899,204.967547 520.514471,205.886034 520.80441,207.997497 L521.224322,208.314216 L522.524049,209.306604 C527.622976,213.191696 532.588599,217.273858 537.420916,221.55309 C539.900395,223.749012 542.53984,226.388341 542.709804,229.819468 C542.739609,230.661194 542.658858,231.503223 542.469854,232.321552 L542.469854,232.321552 C542.309888,233.145023 542.089934,233.968493 541.91997,234.791964 C541.492332,236.889335 541.37764,239.04438 541.580042,241.17914 L541.580042,241.17914 C541.650027,241.802021 541.740008,242.414346 541.849985,243.037227 C543.379663,251.198032 549.558364,257.933599 550.168236,266.263321 L550.168236,266.854531 C550.205024,267.74549 550.181637,268.638084 550.09825,269.525532 C549.638347,274.593043 547.418814,279.459966 545.619192,284.305774 C545.509215,284.601378 545.399238,284.896983 545.29926,285.192588 C541.829989,294.694172 539.830409,304.818638 538.300731,314.921989 C537.807254,318.506555 537.139849,322.06201 536.301152,325.57432 C535.389017,329.594004 533.651764,333.353022 531.212222,336.5856 C530.237407,337.801175 529.106742,338.867183 527.852928,339.752795 C527.009049,340.323275 526.123038,340.821077 525.203485,341.241376 C525.203485,341.241376 525.203485,341.241376 525.203485,341.30472 C525.313462,341.948716 525.403443,342.592713 525.51342,343.236709 C525.573407,343.574543 525.623397,343.912377 525.683384,344.29244 L525.683384,344.29244 C525.679049,344.313307 525.679049,344.334918 525.683384,344.355784 C526.523208,349.349395 527.483006,354.237432 528.492794,358.88265 L529.002686,361.194703 C541.600037,365.998281 543.089724,375.837699 543.179705,379.606661 C543.215101,380.109199 543.215101,380.613819 543.179705,381.116357 C543.179705,381.116357 562.175711,381.644223 569.674134,387.450746 C571.075522,388.455269 572.59027,389.27098 574.183186,389.878929 C577.206965,391.085279 580.294912,392.104036 583.431241,392.929993 C585.040903,393.3734 586.720549,393.80625 588.43019,394.228543 C591.429559,394.956998 594.608891,395.664338 597.678245,396.340006 C605.866523,398.081963 613.574902,399.507201 617.48408,400.562932 C626.812119,403.054459 648.147633,424.654726 648.147633,424.654726 C648.147633,424.654726 650.647107,446.445025 653.146581,449.622777 C655.646056,452.800529 660.14511,463.970169 660.14511,463.970169 L676.681632,495.019234 L683.680161,508.078633 L688.179215,508.078633 C688.799084,508.078633 690.018828,509.007677 691.38854,510.29567 C692.57829,511.414745 693.898012,512.808311 695.057768,514.075189 L696.977365,516.239438 L698.177112,517.643561 C698.177112,517.643561 705.445584,517.833593 707.41517,523.904049 C713.333925,523.724575 720.602397,524.13631 725.691327,526.543378 C726.385749,526.866165 727.054435,527.24746 727.690906,527.683568 C729.801271,528.974244 731.299934,531.143022 731.820038,533.659009 C731.921743,534.159276 731.981958,534.667952 732,535.179262 C732,535.781029 732,536.382796 732,536.974006 C731.640076,544.965894 726.711112,551.617003 722.182065,556.093304 L722.501997,556.695071 C722.501997,556.695071 722.352029,557.075135 722.06209,557.750803 C721.982107,557.951392 721.882128,558.173096 721.772151,558.426471 L721.772151,558.426471 C721.182275,559.756693 720.242472,561.752026 719.012731,564.085192 C716.403359,569.135349 713.187448,573.808638 709.444743,577.989177 L709.154804,578.305896 L651.426943,578.865434 L651.256979,578.654288 L640.059333,564.549714 L634.490504,557.539657 L634.32054,557.317953 L634.160574,558.996566 L633.620687,564.591943 L632.320961,578.115865 L632.250975,578.791533 L632.250975,578.971007 L632.101007,580.53349 L632.210984,578.971007 L631.921045,578.971007 L524.94354,580.026739 L349.360462,582.074858 L349.360462,582.961672 L349.220491,582.961672 L349.220491,582.074858 L304.479899,582.581609 L304,582.592166 Z" id="path97" fill="url(#linearGradient-7)" fill-rule="nonzero"></path>
            <path d="M539,397.981871 C539,397.981871 439.10417,410.597574 448.641963,397.981871 C452.095648,393.419192 453.049427,379.899364 452.858672,364.497694 C452.798433,359.819371 452.637796,354.972839 452.406881,350.147333 C451.302505,327.018545 448.641963,304.415412 448.641963,304.415412 C448.641963,304.415412 535.988065,261.311762 525.948284,295.479289 C521.932371,309.28297 523.247582,328.6691 526.299676,346.86725 C527.193217,352.176358 528.227314,357.380336 529.31161,362.321486 C531.957838,374.373611 535.191533,386.275982 539,397.981871 L539,397.981871 Z" id="path99" fill="#FBBEBE" fill-rule="nonzero"></path>
            <path d="M539,397.974289 C539,397.974289 439.10417,410.607052 448.641963,397.974289 C452.095648,393.40544 453.049427,379.86733 452.858672,364.444832 C468.089021,357.62314 487.4658,362.707827 487.4658,362.707827 C507.866636,358.44427 520.948472,359.275927 529.31161,362.265681 C531.957838,374.334104 535.191533,386.25257 539,397.974289 L539,397.974289 Z" id="path101" fill="#000000" fill-rule="nonzero" opacity="0.1"></path>
            <g id="path103" fill-rule="nonzero">
                <use fill="#575A88" xlink:href="#path-8"></use>
                <use fill="#0074D9" xlink:href="#path-8"></use>
            </g>
            <path d="M366,458.623693 C366,458.623693 423.367742,489.50273 444,485.839116 L366,458.623693 Z" id="path105" fill="#000000" fill-rule="nonzero" opacity="0.1"></path>
            <path d="M482,446.393728 C482,446.393728 537.176,465.01356 555.568,467.599648 C573.96,470.185735 482,446.393728 482,446.393728 Z" id="path107" fill="#000000" fill-rule="nonzero" opacity="0.1"></path>
            <path d="M544,384.137376 C515.054104,389.589857 460.55597,388.415634 437,387.588572 C445.633862,355.935591 487.735168,366.697605 487.735168,366.697605 C539.847761,356.058119 543.840299,378.13352 544,384.137376 Z" id="path109" fill="#000000" fill-rule="nonzero" opacity="0.1"></path>
            <path d="M544,382.099049 C515.054104,387.55153 460.55597,386.377306 437,385.550244 C445.633862,353.897264 487.735168,364.659277 487.735168,364.659277 C539.847761,354.019792 543.840299,376.095193 544,382.099049 Z" id="path111" fill="#FFFFFF" fill-rule="nonzero"></path>
            <path d="M698,525.82375 C698,525.82375 732.30884,520.194669 732.981759,536.277756 C733.654678,552.360844 715.485858,563.597561 715.485858,563.597561 L698,525.82375 Z" id="path113" fill="#FBBEBE" fill-rule="nonzero"></path>
            <path d="M525.60855,346.042231 C524.135559,346.734657 522.629728,347.347057 521.097007,347.877009 C510.289358,351.799638 499.391477,355.7539 488.012366,357.18798 C476.633254,358.622059 464.692706,357.356695 454.767313,351.388394 C453.725157,350.769287 452.72065,350.082554 451.759618,349.332178 C450.656797,326.133836 448,303.462729 448,303.462729 C448,303.462729 535.223147,260.229456 525.197498,294.499734 C521.20729,308.344926 522.560752,327.789354 525.60855,346.042231 Z" id="path115" fill="#000000" fill-rule="nonzero" opacity="0.1"></path>
            <g id="path117" fill-rule="nonzero">
                <use fill="#3F3D56" xlink:href="#path-9"></use>
                <use fill="#001F3F" xlink:href="#path-9"></use>
            </g>
            <g id="path119" fill-rule="nonzero">
                <use fill="#575A88" xlink:href="#path-10"></use>
                <use fill="#0074D9" xlink:href="#path-10"></use>
            </g>
            <path d="M636.972736,510.542747 L636.872884,512.038304 L636.872884,512.142888 L636.703137,514.548329 L635.375114,533.906899 L633.767508,557.229218 L633.308192,563.797117 L632.309678,577.853259 L632.309678,578.031053 L525.46875,579.076896 L350.139792,581.064 L350.139792,581.942509 L350,581.942509 L350,581.064 L350,580.771164 L350.449331,565.752845 L351.308052,536.406466 L352.046952,511.52584 L352.116848,509.04719 C352.205135,506.023682 353.476911,503.171322 355.633677,501.159586 C357.790442,499.147851 360.642293,498.153876 363.519871,498.410958 C368.232854,498.829295 374.353741,499.341759 381.672843,499.885598 L384.668383,500.115683 C426.935453,503.190464 505.049152,507.164671 583.871796,502.207371 C585.529328,502.113245 587.196845,502.008661 588.864363,501.88316 C601.086166,501.07786 613.297984,500.042474 625.389981,498.745628 C628.484398,498.406044 631.563507,499.519362 633.79893,501.786064 C636.034353,504.052766 637.196507,507.240057 636.972736,510.490455 L636.972736,510.542747 Z" id="path121" fill="#000000" fill-rule="nonzero" opacity="0.1"></path>
            <path d="M350,581.900624 L350,581.021046 L525.431951,579.021053 L632.317378,577.973936 L632.617057,577.973936 L632.617057,577.795926 L633.615986,563.722677 L634.045526,557.439976 L635.68377,533.764666 L636.972388,515.021275 L636.972388,514.560544 C637.03195,513.696874 636.995073,512.828867 636.862506,511.974166 C636.868095,511.939507 636.868095,511.904112 636.862506,511.869454 C636.588093,510.102262 635.901849,508.433376 634.864648,507.010832 C632.62848,504.004992 629.070923,502.42148 625.454734,502.822365 C613.357701,504.12079 601.140797,505.157435 588.913903,505.963715 C587.245691,506.089369 585.57748,506.194081 583.919257,506.288321 C505.063784,511.199299 426.91755,507.220255 384.632876,504.194088 L381.636089,503.963722 C374.313937,503.419221 368.190501,502.916605 363.475555,502.487288 C358.103308,502.012092 353.256638,505.867644 352.247591,511.419194 C352.146729,511.986092 352.086625,512.56013 352.067784,513.136465 L351.388512,536.340573 L350.459507,565.733141 L350.019979,580.769738 L350.019979,581.062931 L350.019979,581.942509 L350,581.900624 Z" id="path123" fill="#3F3D56" fill-rule="nonzero"></path>
            <path d="M637.983878,518.104007 L636.752065,534.301363 L634.919368,558.444192 L634.45869,564.487824 L633.457215,578.022601 L633.397127,578.698811 L633.397127,578.87843 L633.397127,578.87843 L633.246906,580.442167 L633.357068,578.87843 L633.066641,578.87843 L525.908917,579.935009 L350,581.942509 L350,581.646667 L350.490722,566.474193 L351.492196,536.826587 L352.13314,517.121389 C352.197175,514.843811 353.350809,512.75563 355.19765,511.574349 C356.33169,510.84108 357.657651,510.508004 358.983222,510.623428 C361.086318,510.803047 363.670121,511.014363 366.684558,511.24681 C371.581766,511.627178 377.620654,512.070942 384.651002,512.535836 C397.670165,513.402231 414.004207,514.33202 432.721757,515.092757 C484.798407,517.205915 555.101886,517.913823 621.880175,511.743402 C624.884598,511.468691 627.989167,511.162284 631.023634,510.855876 C632.22475,510.729502 633.43491,510.971644 634.508763,511.553218 C634.812935,511.713063 635.101421,511.904173 635.370031,512.12377 C636.241842,512.790233 636.932516,513.686507 637.372979,514.722955 C637.475151,514.92916 637.558966,515.144923 637.623348,515.367468 C637.924192,516.242854 638.047031,517.175243 637.983878,518.104007 Z" id="path125" fill="#000000" fill-rule="nonzero" opacity="0.1"></path>
            <path d="M298,532.003484 L298,535.425729 C298.001097,537.965721 296.643545,540.279311 294.512614,541.369063 L254.557137,542.195122 C252.387499,541.124413 250.997447,538.789308 251,536.219604 L251,533.001192 L298,532.003484 Z" id="path127" fill="#000000" fill-rule="nonzero" opacity="0.1"></path>
            <polygon id="polygon129" fill="#3F3D56" fill-rule="nonzero" points="298 543.179506 246 544.233449 246 535.095756 298 534.041812"></polygon>
            <polygon id="polygon131" fill="#000000" fill-rule="nonzero" opacity="0.1" points="298 543.179506 246 544.233449 246 535.095756 298 534.041812"></polygon>
            <polygon id="polygon133" fill="#3F3D56" fill-rule="nonzero" points="300 543.179506 248 544.233449 248 535.095756 300 534.041812"></polygon>
            <g id="g153" opacity="0.1" transform="translate(428.000000, 196.698606)" fill="#000000" fill-rule="nonzero">
                <path d="M45.59,4.89297875 C44.6130511,3.55719999 43.9639205,1.98871507 43.7,0.326198584 C43.4590028,1.95142774 43.6032763,3.61413379 44.12,5.16656466 C44.6163546,5.11836174 45.1080455,5.02685172 45.59,4.89297875 Z" id="path135"></path>
                <path d="M32.89,11.879942 C32.7014156,10.5899484 32.5779092,9.29034796 32.52,7.98660403 C32.52,9.28087583 32.52,10.5856702 32.52,11.8904645 L32.89,11.879942 Z" id="path137"></path>
                <path d="M114.39,46.9936411 C114.44535,46.0561704 114.56567,45.1242027 114.75,44.2051694 C115.223011,42.6046403 115.492027,40.9451244 115.55,39.2701005 C115.527571,38.8941182 115.474035,38.5209091 115.39,38.1547118 C115.22,39.122785 114.95,40.0908582 114.75,41.0484089 C114.350586,43.0004179 114.229259,45.0040758 114.39,46.9936411 Z" id="path139"></path>
                <path d="M93.59,14.4790081 L94.68,15.3102884 C95.5989416,14.6108747 96.4587993,13.8293067 97.25,12.9742856 C98.015765,11.8598266 98.1605035,10.4009378 97.63,9.14408288 C97.5303915,9.38429171 97.4027426,9.61051313 97.25,9.81752511 C96.02,11.4800856 93.3,12.3955462 93.59,14.4790081 Z" id="path141"></path>
                <path d="M11.42,24.6016867 C11.0552587,25.3691317 10.7638294,26.1727859 10.55,27.0008247 C12.1143168,26.0820173 13.7992313,25.4118395 15.55,25.0120656 L11.42,24.6016867 Z" id="path143"></path>
                <path d="M25.21,13.1531687 C24.5531343,12.7723849 23.9246648,12.3397198 23.33,11.8588969 C23.3048227,12.2751745 23.3351163,12.6931116 23.42,13.100556 C24.0170741,13.0706028 24.6154459,13.0881905 25.21,13.1531687 Z" id="path145"></path>
                <path d="M122.98,75.1519447 C122.57,80.2553741 120.31,85.1693979 118.48,90.009764 C114.81,99.7115412 112.74,110.00258 111.19,120.325187 C109.8,129.574495 108.19,140.075985 100.69,145.20046 C98.5470147,146.547625 96.2526143,147.608075 93.86,148.35722 C83.08,152.282126 72.21,156.217554 60.86,157.648619 C49.51,159.079683 37.6,157.827502 27.7,151.871747 C24.829586,150.29575 22.3656924,148.010037 20.52,145.210982 C17.85,140.75995 17.8,135.183007 16.52,130.0901 C15.4285506,126.308379 14.0920862,122.609812 12.52,119.020393 C10.31,113.359269 8.61,107.445604 6.92,101.626643 C5.35333333,96.2180596 3.79,90.8059692 2.23,85.3903712 C1.71621201,83.7612675 1.3348415,82.0891907 1.09,80.3921671 C0.7,83.085936 1.46,85.9059754 2.23,88.5471317 C3.79,93.9697447 5.35333333,99.3818352 6.92,104.783403 C8.61,110.644455 10.31,116.51603 12.52,122.177153 C14.0920862,125.766573 15.4285506,129.46514 16.52,133.24686 C17.78,138.339767 17.83,143.916711 20.52,148.367743 C22.3656924,151.166798 24.829586,153.45251 27.7,155.028508 C37.6,160.984262 49.54,162.236444 60.86,160.805379 C72.18,159.374314 83.04,155.438886 93.86,151.513981 C96.2526143,150.764835 98.5470147,149.704385 100.69,148.35722 C108.14,143.232746 109.8,132.731256 111.19,123.481948 C112.74,113.159341 114.81,102.868302 118.48,93.1665245 C120.66,87.4001753 123.48,81.5391234 123,75.3413503 C123,75.2782151 122.98,75.2150799 122.98,75.1519447 Z" id="path147"></path>
                <path d="M3.29,71.0797236 C3.29,71.0797236 3.29,71.0060659 3.29,70.9639757 C3.47040142,69.1084944 3.31430288,67.2338422 2.83,65.4396449 C2.63049614,64.2849107 2.5002388,63.1181117 2.44,61.9461633 C2.32487327,64.1713227 2.45575017,66.4030228 2.83,68.5964054 C2.99,69.4171631 3.17,70.2484434 3.29,71.0797236 Z" id="path149"></path>
                <path d="M6.34,45.3416031 C7.10909718,43.9820409 7.98197286,42.6905292 8.95,41.4798328 C7.12,43.3212764 3.74,41.679761 3.03,39.122785 C2.76830504,40.1570228 2.76830504,41.2453077 3.03,42.2795455 C3.53120707,43.8512836 4.79441759,45.0198707 6.34,45.3416031 L6.34,45.3416031 Z" id="path151"></path>
            </g>
            <path d="M684.5,509.581882 C684.5,509.581882 687.875,521.571549 684.5,531.997346 C681.125,542.423143 684.5,509.581882 684.5,509.581882 Z" id="path155" fill="#000000" fill-rule="nonzero" opacity="0.1"></path>
            <path d="M687.70319,521.811847 C687.70319,521.811847 689.047031,537.183679 686.015811,539.9106 C682.98459,542.637521 687.70319,521.811847 687.70319,521.811847 Z" id="path157" fill="#000000" fill-rule="nonzero" opacity="0.1"></path>
        </g>
    </g>
</svg>