<?xml version="1.0" encoding="UTF-8"?>
<svg width="733px" height="789px" viewBox="0 0 733 789" version="1.1" xmlns="http://www.w3.org/2000/svg" xmlns:xlink="http://www.w3.org/1999/xlink">
    <!-- Generator: Sketch 64 (93537) - https://sketch.com -->
    <title>easy-customization</title>
    <desc>Created with Sketch.</desc>
    <g id="Page-1" stroke="none" stroke-width="1" fill="none" fill-rule="evenodd">
        <g id="easy-customization">
            <ellipse id="ellipse4" fill="#E6F1FC" fill-rule="nonzero" cx="163.5" cy="766.62726" rx="134" ry="21.5"></ellipse>
            <rect id="rect8" fill="#FF767F" fill-rule="nonzero" x="384" y="332" width="277.82574" height="165.45454" rx="15.745902"></rect>
            <rect id="rect8" fill="#E6F1FC" fill-rule="nonzero" x="384" y="526" width="277.82574" height="165.45454" rx="15.745902"></rect>
            <path d="M635.51706,8.3573586 C626.822882,8.84842599 619.153,14.2111484 615.70706,22.208359 C610.75356,34.182179 617.13156,48.247221 626.70606,56.978641 C636.28056,65.710061 648.57966,70.700891 659.75436,77.260981 C674.76386,86.072271 688.25112,98.303801 695.76122,114.00484 C703.27132,129.70588 704.07012,149.15493 695.24232,164.15475 C687.04862,178.07715 672.14986,186.40965 657.94016,194.09445" id="path16" stroke="#3F3D56"></path>
            <rect id="rect10" fill="#0074D9" fill-rule="nonzero" x="381.04541" y="138.52815" width="277" height="164.96278" rx="15.699102"></rect>
            <ellipse id="ellipse18" fill="#57B894" fill-rule="nonzero" cx="648.13635" cy="9.3999996" rx="17.5" ry="8.5"></ellipse>
            <ellipse id="ellipse20" fill="#57B894" fill-rule="nonzero" cx="662.13635" cy="65.400009" rx="17.5" ry="8.5"></ellipse>
            <ellipse id="ellipse22" fill="#57B894" fill-rule="nonzero" cx="630.13635" cy="74.400017" rx="17.5" ry="8.5"></ellipse>
            <ellipse id="ellipse24" fill="#57B894" fill-rule="nonzero" cx="680.13635" cy="121.40002" rx="17.5" ry="8.5"></ellipse>
            <ellipse id="ellipse26" fill="#57B894" fill-rule="nonzero" cx="715.13641" cy="121.40002" rx="17.5" ry="8.5"></ellipse>
            <path d="M22.880651,567.08463 C14.1864948,567.575719 6.51664137,572.938438 3.0707104,580.93563 C-1.8827896,592.90945 4.4952009,606.97449 14.069711,615.70591 C23.644221,624.43733 35.943311,629.42812 47.118001,635.98825 C62.127521,644.79954 75.614801,657.03107 83.124911,672.73211 C90.635021,688.43319 91.433791,707.88219 82.606001,722.88199 C74.412301,736.80439 59.513451,745.13689 45.303811,752.82169" id="path28" stroke="#3F3D56"></path>
            <ellipse id="ellipse30" fill="#57B894" fill-rule="nonzero" cx="35.5" cy="568.12726" rx="17.5" ry="8.5"></ellipse>
            <ellipse id="ellipse32" fill="#57B894" fill-rule="nonzero" cx="49.5" cy="624.12726" rx="17.5" ry="8.5"></ellipse>
            <ellipse id="ellipse34" fill="#57B894" fill-rule="nonzero" cx="17.5" cy="633.12726" rx="17.5" ry="8.5"></ellipse>
            <ellipse id="ellipse36" fill="#57B894" fill-rule="nonzero" cx="67.5" cy="680.12726" rx="17.5" ry="8.5"></ellipse>
            <ellipse id="ellipse38" fill="#57B894" fill-rule="nonzero" cx="102.49999" cy="680.12726" rx="17.5" ry="8.5"></ellipse>
            <path d="M252,381.12725 C252,381.12725 254,396.12725 249,402.12725 C244,408.12725 236,448.12725 236,448.12725 L236,472.12725 C236,472.12725 267,427.12725 273,409.12725 C279,391.12725 273,377.12725 273,377.12725 L252,381.12725 Z" id="path40" fill="#FFC1C7" fill-rule="nonzero"></path>
            <path d="M249,307.12725 L249.42258,307.60265 C254.586659,313.410063 258.639395,320.117147 261.37882,327.38965 C267.94373,344.82235 282.055,387.79438 277,392.12725 C270,398.12725 250,402.12725 249,401.12725 C248,400.12725 228,338.12725 228,338.12725 L249,307.12725 Z" id="path42" fill="#0074D9" fill-rule="nonzero"></path>
            <path d="M216.5,732.12729 C216.5,732.12729 240.5,737.12729 241.5,732.12729 C242.13952,729.018927 243.146598,725.997692 244.5,723.12729 C244.5,723.12729 266.25284,724.03359 260.57358,743.10429 C260.004087,744.983626 258.76092,746.586611 257.08244,747.60589 C251.90192,750.77619 239.6989,758.25299 233.5,762.12729 C228.84075,765.03929 222.14632,762.86339 217.36771,760.53829 C213.845574,758.812335 211.931373,754.927349 212.70887,751.08289 L216.5,732.12729 Z" id="path44" fill="#1D262E" fill-rule="nonzero"></path>
            <path d="M147.5,735.12729 C147.5,735.12729 123.5,740.12729 122.5,735.12729 C121.86048,732.018927 120.853402,728.997692 119.5,726.12729 C119.5,726.12729 97.788996,727.03189 103.41007,746.04929 C103.987782,747.964706 105.254277,749.598366 106.96529,750.63519 C112.17266,753.82189 124.32006,761.26479 130.5,765.12729 C135.60231,768.31619 143.14528,765.40349 147.94015,762.87509 C150.676018,761.446889 152.14417,758.387166 151.54642,755.35939 L147.5,735.12729 Z" id="path46" fill="#1D262E" fill-rule="nonzero"></path>
            <path d="M117.5,394.12725 C117.5,394.12725 115.5,409.12725 120.5,415.12725 C125.5,421.12725 133.5,444.12725 133.5,444.12725 L133.5,468.12725 C133.5,468.12725 102.5,440.12725 96.499996,422.12725 C90.500001,404.12725 96.499996,390.12725 96.499996,390.12725 L117.5,394.12725 Z" id="path48" fill="#FFC1C7" fill-rule="nonzero"></path>
            <circle id="circle50" fill="#FFC1C7" fill-rule="nonzero" cx="187.5" cy="246.12726" r="25"></circle>
            <path d="M207.5,256.12725 C207.5,256.12725 200.5,288.12725 207.5,292.12725 C214.5,296.12725 165.5,292.12725 165.5,292.12725 C165.5,292.12725 176.5,265.12725 171.5,256.12725 C166.5,247.12725 207.5,256.12725 207.5,256.12725 Z" id="path52" fill="#FFC1C7" fill-rule="nonzero"></path>
            <path d="M231.5,469.12725 C231.5,469.12725 240.5,482.12725 237.5,522.12725 C234.5,562.12725 231.5,604.12725 231.5,604.12725 C231.5,604.12725 253.5,730.12729 246.5,733.12729 C239.5,736.12729 216.5,739.12729 213.5,736.12729 C210.5,733.12729 196.5,616.12725 196.5,616.12725 L183.5,520.12725 L163.5,630.12725 C163.5,630.12725 152.5,737.12729 144.5,742.12729 C138.781,745.70159 127.44064,743.14349 121.43862,741.39409 C119.121734,740.728483 117.561723,738.563226 117.66384,736.15479 C118.39693,719.32799 121.68845,652.92089 129.5,612.12725 C138.5,565.12725 120.5,471.12725 136.5,469.12725 C152.5,467.12725 231.5,469.12725 231.5,469.12725 L231.5,469.12725 Z" id="path54" fill="#001F3F" fill-rule="nonzero"></path>
            <path d="M161.5,288.12725 C161.5,288.12725 165.5,270.12725 180.5,272.12725 C195.5,274.12725 205.5,273.12725 208.5,283.12725 C211.5,293.12725 243.5,301.12725 243.5,301.12725 C243.5,301.12725 251.5,302.12725 250.5,315.12725 C249.5,328.12725 229.5,376.12725 229.5,376.12725 C229.5,376.12725 230.5,416.12725 235.5,434.12725 C240.5,452.12725 240.5,474.12725 229.5,479.12725 C218.5,484.12725 149.5,502.12725 133.5,480.12725 C133.5,480.12725 124.5,448.12725 130.5,435.12725 C136.5,422.12725 129.5,371.12725 129.5,371.12725 L110.5,329.12725 C110.5,329.12725 116.5,309.12725 133.5,303.12725 C143.560739,299.623213 153.009074,294.561605 161.5,288.12725 Z" id="path56" fill="#0074D9" fill-rule="nonzero"></path>
            <path d="M118.5,320.12725 L110.5,329.12725 C110.5,329.12725 86.500001,388.12725 93.500001,394.12725 C100.5,400.12725 120.5,404.12725 121.5,403.12725 C122.5,402.12725 139.5,351.12725 139.5,351.12725 L118.5,320.12725 Z" id="path58" fill="#0074D9" fill-rule="nonzero"></path>
            <path d="M216.5,231.12725 C216.5,231.12725 212.5,234.12725 211.5,241.12725 C210.5,248.12725 204.35926,237.13869 202.92963,251.63297 C201.5,266.12725 177.5,276.12725 168.5,269.12725 C159.5,262.12725 144.5,218.12725 165.5,211.12725 C186.5,204.12725 207.5,205.12725 211.5,212.12725 C215.5,219.12725 216.5,231.12725 216.5,231.12725 Z" id="path60" fill="#1D262E" fill-rule="nonzero"></path>
            <path d="M196.92969,251.63293 C198.35925,237.13866 204.5,248.12725 205.5,241.12725 C206.5,234.12725 210.5,231.12725 210.5,231.12725 C210.5,231.12725 209.5,219.12725 205.5,212.12725 C203.58618,208.77801 197.77515,206.80669 189.93982,206.42364 C200.74951,205.9284 209.124,207.96925 211.5,212.12725 C215.5,219.12725 216.5,231.12725 216.5,231.12725 C216.5,231.12725 212.5,234.12725 211.5,241.12725 C210.5,248.12725 204.35925,237.13866 202.92969,251.63293 C201.71753,263.92093 184.28662,272.97375 173.52319,271.18127 C183.78076,269.77264 195.92505,261.81707 196.92969,251.63293 Z" id="path62" fill="#000000" fill-rule="nonzero" opacity="0.1"></path>
        </g>
    </g>
</svg>