<?xml version="1.0" encoding="UTF-8"?>
<svg width="733px" height="789px" viewBox="0 0 733 789" version="1.1" xmlns="http://www.w3.org/2000/svg" xmlns:xlink="http://www.w3.org/1999/xlink">
    <!-- Generator: Sketch 64 (93537) - https://sketch.com -->
    <title>click-get-started</title>
    <desc>Created with Sketch.</desc>
    <defs>
        <linearGradient x1="50.0005405%" y1="100.000571%" x2="50.0005405%" y2="0.000571428574%" id="linearGradient-1">
            <stop stop-color="#808080" stop-opacity="0.25" offset="0%"></stop>
            <stop stop-color="#808080" stop-opacity="0.12" offset="53.514%"></stop>
            <stop stop-color="#808080" stop-opacity="0.1" offset="100%"></stop>
        </linearGradient>
    </defs>
    <g id="Page-1" stroke="none" stroke-width="1" fill="none" fill-rule="evenodd">
        <g id="click-get-started" fill-rule="nonzero">
            <ellipse id="ellipse4-3" fill="#E6F1FC" cx="685.410928" cy="770.11331" rx="39.6124372" ry="14.5701266"></ellipse>
            <ellipse id="ellipse4" fill="#E6F1FC" cx="116.836089" cy="764.346926" rx="116.266036" ry="23.7917251"></ellipse>
            <rect id="rect23" fill="#0074D9" x="160.493464" y="129.051009" width="178.219608" height="167.095372" rx="15.75"></rect>
            <rect id="rect25" fill="#E6F1FC" x="160.493464" y="347.049606" width="493.457516" height="17.7054698"></rect>
            <rect id="rect29" fill="#E6F1FC" x="409.617647" y="139.563632" width="172.470588" height="17.7054698"></rect>
            <rect id="rect31" fill="#E6F1FC" x="409.617647" y="204.852552" width="244.333333" height="17.7054698"></rect>
            <rect id="rect39" fill="#E6F1FC" x="160.493464" y="402.3792" width="493.457516" height="17.7054698"></rect>
            <rect id="rect43" fill="#E6F1FC" x="160.493464" y="457.708793" width="493.457516" height="17.7054698"></rect>
            <rect id="rect47" fill="#E6F1FC" x="160.493464" y="513.038386" width="493.457516" height="17.7054698"></rect>
            <rect id="rect51" fill="#E6F1FC" x="160.493464" y="568.367979" width="493.457516" height="17.7054698"></rect>
            <rect id="rect55" fill="#E6F1FC" x="160.493464" y="623.697573" width="493.457516" height="17.7054698"></rect>
            <path d="M106.740131,752.615215 C106.706388,752.62916 106.674219,752.647737 106.644314,752.670545 C107.784536,749.826604 108.848105,746.949465 109.815856,744.028062 C109.930837,743.685019 110.036235,743.330909 110.151216,742.987866 C110.141634,743.076393 110.141634,743.164921 110.132052,743.264514 C110.103307,743.81781 110.06498,744.371106 110.026654,744.935468 C109.969163,745.809675 109.921207,746.694949 109.911673,747.580222 C109.902092,747.85687 109.902092,748.122452 109.902092,748.3991 C109.905148,749.477191 110.001443,750.552233 110.189542,751.608217 L110.151216,751.608217 C109.911673,751.630348 109.691294,751.641414 109.461333,751.685678 C108.557695,751.824957 107.676482,752.115732 106.845529,752.54882 C106.808459,752.566577 106.773128,752.588834 106.740131,752.615215 L106.740131,752.615215 Z" id="path61" fill="url(#linearGradient-1)"></path>
            <path d="M124.882983,317.968981 C124.985507,322.589865 126.341241,327.066837 126.553782,331.679245 C114.770304,332.35628 103.148115,325.755061 91.4818877,327.777756 C94.7428083,325.340377 96.486965,320.948015 97.5128201,316.62331 C98.8200743,311.043902 99.2103247,305.230963 98.6633618,299.485522 C98.6320422,299.166287 98.5831014,298.849689 98.5168385,298.537659 C98.084426,296.277999 96.9632138,293.078985 97.2636863,291.301655 C97.6594105,288.948941 99.5793627,289.414396 101.308764,289.549787 C106.582576,290.013712 111.831739,290.796214 117.034699,291.89408 C118.390279,292.164907 131.595337,295.97331 131.793208,295.575523 C129.478659,299.863894 127.562743,304.422585 126.077341,309.175747 C125.253038,312.00816 124.84923,314.981118 124.882983,317.968981 L124.882983,317.968981 Z" id="path63" fill="#A0616A"></path>
            <path d="M241.412831,303.69171 C240.400437,305.286909 239.187746,306.698853 237.81476,307.880968 C236.920672,308.727279 236.004671,309.590476 235.044757,310.369129 C233.335199,311.89295 231.298293,312.849716 229.153105,313.136527 C226.346424,313.356573 220.388724,311.452372 218.644692,308.676497 C217.909454,307.281341 217.559295,305.660791 217.64076,304.030261 C217.67007,301.818942 217.996372,299.626272 218.608013,297.530539 C219.701179,294.119895 221.232822,290.918809 223.151425,288.034952 C225.181212,284.776669 227.438277,281.569135 230.457471,279.597189 C231.463448,278.975366 232.501022,278.424272 233.564529,277.946917 C235.396549,277.083665 237.221288,276.211936 239.05328,275.348739 C239.364965,275.172799 239.703541,275.069287 240.049777,275.044083 C241.522705,275.061014 241.793924,277.659148 240.958438,279.064055 C239.28763,281.890711 235.528489,282.677774 234.473266,285.88533 C236.297234,285.950456 237.877237,287.365176 238.386298,289.389022 C238.427729,289.912923 238.612558,290.40797 238.913991,290.802394 C239.397656,291.250918 240.152464,290.997032 240.702061,291.335572 C241.67652,291.936451 241.251667,293.612152 241.354182,294.881624 C241.593487,295.981989 241.929891,297.051104 242.358114,298.072182 C242.776855,300.014669 242.430854,302.07158 241.412831,303.69171 L241.412831,303.69171 Z" id="path65" fill="#A0616A"></path>
            <path d="M78.9842665,766.989335 C79.8914139,765.942565 81.3731853,766.120461 82.6397998,766.351794 C89.4388444,767.593292 96.309864,768.235177 103.193292,768.271886 C104.05508,763.411823 101.553404,758.688081 100.747458,753.815259 C100.630988,752.557683 100.356754,751.326358 99.9333682,750.159953 C98.9640739,748.012059 96.777463,747.029604 94.7253505,746.52969 C91.0214008,745.627386 85.2314386,744.035322 83.1627498,748.360259 C80.680601,753.549621 79.8864601,761.214131 78.9842665,766.989335 L78.9842665,766.989335 Z" id="path67" fill="#65617D"></path>
            <path d="M154.290147,748.631484 C151.498222,750.831931 148.0321,751.517476 144.67587,752.016737 C141.312253,752.50761 137.8608,752.888466 134.819655,754.614915 C132.196272,756.112909 129.983197,758.567174 127.205855,759.642007 C124.622988,760.460082 121.902819,760.509572 119.298922,759.785864 C116.177204,759.108829 112.850332,757.797053 111.16495,754.682639 C109.662674,751.915185 109.823867,748.402973 110.029078,745.144691 C110.270862,741.463259 110.507792,737.776161 110.739867,734.083398 C110.72834,733.146859 110.93325,732.223708 111.333482,731.409075 C113.590471,727.609138 119.079137,733.000144 122.017671,732.991668 C126.670928,732.982815 131.668675,730.071881 135.024828,726.508898 C135.318737,726.154575 135.660246,725.857373 136.036176,725.628759 C137.36259,724.943248 138.688908,726.212719 139.868712,727.32138 C140.000566,727.448351 140.132506,727.575266 140.264437,727.693759 C142.9831,730.18192 146.632434,730.689691 149.988702,731.6968 C153.352233,732.703909 156.950305,734.735081 157.99082,738.560425 C158.058334,738.801551 158.112179,739.047499 158.152013,739.296707 C158.760298,742.817362 156.906296,746.566518 154.290147,748.631484 L154.290147,748.631484 Z" id="path69" fill="#3F3D56"></path>
            <path d="M154.290147,748.631484 C151.498222,750.831931 148.0321,751.517476 144.67587,752.016737 C141.312253,752.50761 137.8608,752.888466 134.819655,754.614915 C132.196272,756.112909 129.983197,758.567174 127.205855,759.642007 C124.622988,760.460082 121.902819,760.509572 119.298922,759.785864 C116.177204,759.108829 112.850332,757.797053 111.16495,754.682639 C109.662674,751.915185 109.823867,748.402973 110.029078,745.144691 C110.270862,741.463259 110.507792,737.776161 110.739867,734.083398 C110.72834,733.146859 110.93325,732.223708 111.333482,731.409075 C113.590471,727.609138 119.079137,733.000144 122.017671,732.991668 C126.670928,732.982815 131.668675,730.071881 135.024828,726.508898 C135.318737,726.154575 135.660246,725.857373 136.036176,725.628759 C137.36259,724.943248 138.688908,726.212719 139.868712,727.32138 C140.000566,727.448351 140.132506,727.575266 140.264437,727.693759 C142.9831,730.18192 146.632434,730.689691 149.988702,731.6968 C153.352233,732.703909 156.950305,734.735081 157.99082,738.560425 C158.058334,738.801551 158.112179,739.047499 158.152013,739.296707 C158.760298,742.817362 156.906296,746.566518 154.290147,748.631484 L154.290147,748.631484 Z" id="path71" fill="#1D262E"></path>
            <path d="M154.290147,749.870159 C151.498222,752.070595 148.0321,752.756151 144.67587,753.255401 C141.312253,753.746274 137.8608,754.12713 134.819655,755.853579 C132.196272,757.351572 129.983197,759.805838 127.205855,760.880671 C124.622987,761.698739 121.90282,761.748229 119.298922,761.024528 C115.976591,760.212814 113.058877,757.937937 111.16495,754.68265 C109.662674,751.915196 109.823867,748.402984 110.029078,745.144702 C110.270862,741.46327 110.507792,737.776172 110.739867,734.083409 C110.72834,733.14687 110.93325,732.223719 111.333482,731.409086 C113.590471,727.609149 119.079137,733.000155 122.017671,732.991679 C126.670928,732.982826 131.668675,730.071892 135.024828,726.508909 C135.318736,726.154583 135.660245,725.857376 136.036176,725.628759 C137.36259,724.943248 138.688908,726.212719 139.868712,727.32138 C139.092845,730.082487 137.993208,732.70787 136.600452,735.124347 C134.32359,739.250334 130.557321,741.970822 126.34859,742.529571 C124.267368,742.707323 122.13499,742.233392 120.119786,742.85118 C118.111921,743.469023 116.235921,745.847155 116.94671,748.106794 C117.64283,750.307185 120.105116,750.789582 122.13499,750.916552 C124.978167,751.094293 127.894789,751.255092 130.591529,750.231041 C132.240329,749.596311 133.749849,748.546886 135.354726,747.77672 C142.177049,744.509972 150.794782,746.337973 156.430057,740.820064 C156.964645,740.255481 157.540813,739.745768 158.152023,739.296707 C159.627393,742.863762 156.906296,747.805148 154.290147,749.870159 L154.290147,749.870159 Z" id="path73" fill="#E8EAF2"></path>
            <path d="M154.290147,749.870159 C151.498222,752.070595 148.0321,752.756151 144.67587,753.255401 C141.312253,753.746274 137.8608,754.12713 134.819655,755.853579 C132.196272,757.351572 129.983197,759.805838 127.205855,760.880671 C124.622987,761.698739 121.90282,761.748229 119.298922,761.024528 C115.976591,760.212814 113.058877,757.937937 111.16495,754.68265 C109.662674,751.915196 109.823867,748.402984 110.029078,745.144702 C110.270862,741.46327 110.507792,737.776172 110.739867,734.083409 C110.72834,733.14687 110.93325,732.223719 111.333482,731.409086 C113.590471,727.609149 119.079137,733.000155 122.017671,732.991679 C126.670928,732.982826 131.668675,730.071892 135.024828,726.508909 C135.318736,726.154583 135.660245,725.857376 136.036176,725.628759 C137.36259,724.943248 138.688908,726.212719 139.868712,727.32138 C139.092845,730.082487 137.993208,732.70787 136.600452,735.124347 C134.32359,739.250334 130.557321,741.970822 126.34859,742.529571 C124.267368,742.707323 122.13499,742.233392 120.119786,742.85118 C118.111921,743.469023 116.235921,745.847155 116.94671,748.106794 C117.64283,750.307185 120.105116,750.789582 122.13499,750.916552 C124.978167,751.094293 127.894789,751.255092 130.591529,750.231041 C132.240329,749.596311 133.749849,748.546886 135.354726,747.77672 C142.177049,744.509972 150.794782,746.337973 156.430057,740.820064 C156.964645,740.255481 157.540813,739.745768 158.152023,739.296707 C159.627393,742.863762 156.906296,747.805148 154.290147,749.870159 L154.290147,749.870159 Z" id="path75" fill="#000000" opacity="0.05"></path>
            <path d="M80.2601464,508.761187 C78.0855209,521.087741 80.1474968,533.907859 86.00999,544.510235 C87.6084858,547.370687 89.4816888,550.055976 90.6833968,553.164702 C91.47097,555.381878 92.0814577,557.677536 92.5072445,560.023037 L97.6863926,584.781205 C99.0845733,591.465019 100.49292,598.278128 100.072974,605.137106 C99.780358,609.916321 98.7372846,615.290086 101.287665,619.068865 C101.902713,619.790525 102.421944,620.613292 102.828498,621.510449 C103.082782,622.561473 103.091543,623.671519 102.853889,624.727721 C100.233592,642.702934 98.2904229,661.495 103.023437,678.884327 C107.31325,694.645261 107.558111,712.109139 111.20572,728.084309 C111.657392,730.062486 112.173941,732.147714 113.471418,733.540548 C114.446507,734.488341 115.616386,735.130377 116.868504,735.40489 C122.243684,736.881936 127.91996,735.15148 132.933181,732.468637 C136.456478,730.583137 140.248809,727.276696 139.947819,722.805512 C139.80463,720.678587 138.728864,718.814455 137.998719,716.854836 C136.566677,713.011388 136.45162,708.717944 136.065219,704.557635 C135.094947,694.111098 132.306385,684.02428 130.198766,673.803676 C128.091146,663.583072 126.659382,652.903144 128.441894,642.600342 C132.087453,621.289402 137.922753,600.557253 145.82394,580.843929 C146.167633,579.795457 146.711858,578.850131 147.416025,578.078456 C148.208459,577.559315 148.962211,576.965101 149.669517,576.301933 C150.216666,575.324347 150.568798,574.218509 150.700431,573.064444 C151.484367,569.803539 153.813046,567.397687 155.374106,564.533628 C159.315787,557.301895 158.066678,548.03213 157.920653,539.488577 C157.778662,531.180285 158.814568,522.79597 157.635234,514.598482 C156.455899,506.400993 152.389617,498.021592 145.546674,495.453015 C142.157004,494.180667 138.492407,494.469255 134.945482,494.87471 C116.154409,497.022715 97.8951682,500.96486 80.2601368,508.761187 L80.2601464,508.761187 Z" id="path77" fill="#001F3F"></path>
            <path d="M80.2601464,508.761187 C78.0855209,521.087741 80.1474968,533.907859 86.00999,544.510235 C87.6084858,547.370687 89.4816888,550.055976 90.6833968,553.164702 C91.47097,555.381878 92.0814577,557.677536 92.5072445,560.023037 L97.6863926,584.781205 C99.0845733,591.465019 100.49292,598.278128 100.072974,605.137106 C99.780358,609.916321 98.7372846,615.290086 101.287665,619.068865 C101.902713,619.790525 102.421944,620.613292 102.828498,621.510449 C103.082782,622.561473 103.091543,623.671519 102.853889,624.727721 C100.233592,642.702934 98.2904229,661.495 103.023437,678.884327 C107.31325,694.645261 107.558111,712.109139 111.20572,728.084309 C111.657392,730.062486 112.173941,732.147714 113.471418,733.540548 C114.446507,734.488341 115.616386,735.130377 116.868504,735.40489 C122.243684,736.881936 127.91996,735.15148 132.933181,732.468637 C136.456478,730.583137 140.248809,727.276696 139.947819,722.805512 C139.80463,720.678587 138.728864,718.814455 137.998719,716.854836 C136.566677,713.011388 136.45162,708.717944 136.065219,704.557635 C135.094947,694.111098 132.306385,684.02428 130.198766,673.803676 C128.091146,663.583072 126.659382,652.903144 128.441894,642.600342 C132.087453,621.289402 137.922753,600.557253 145.82394,580.843929 C146.167633,579.795457 146.711858,578.850131 147.416025,578.078456 C148.208459,577.559315 148.962211,576.965101 149.669517,576.301933 C150.216666,575.324347 150.568798,574.218509 150.700431,573.064444 C151.484367,569.803539 153.813046,567.397687 155.374106,564.533628 C159.315787,557.301895 158.066678,548.03213 157.920653,539.488577 C157.778662,531.180285 158.814568,522.79597 157.635234,514.598482 C156.455899,506.400993 152.389617,498.021592 145.546674,495.453015 C142.157004,494.180667 138.492407,494.469255 134.945482,494.87471 C116.154409,497.022715 97.8951682,500.96486 80.2601368,508.761187 L80.2601464,508.761187 Z" id="path79" fill="#000000" opacity="0.1"></path>
            <path d="M156.796442,560.868861 C156.74084,564.097731 156.424353,567.313556 155.851102,570.474477 C152.538836,591.928504 149.009168,613.337368 145.262098,634.701069 C144.932372,636.554499 144.609891,638.407919 144.177564,640.22751 C142.781522,646.172455 140.339354,651.721226 137.003516,656.527431 C121.387512,679.005455 120.039117,711.647702 111.567937,738.755086 C110.996417,740.591563 110.42484,742.428041 109.816537,744.239167 C108.285653,748.83261 106.541489,753.327412 104.591636,757.704011 C104.363864,758.34182 103.991817,758.897185 103.514442,759.311966 C102.988933,759.61728 102.400628,759.749075 101.81439,759.692822 C94.1920195,759.743439 86.6619968,757.765525 79.8083884,753.912495 C78.8299467,753.495861 78.0048414,752.704251 77.4707987,751.669798 C77.2079379,750.845376 77.1224158,749.959549 77.2215883,749.088507 C77.4561292,743.714454 77.7418746,738.145708 79.9622514,733.423327 C81.4356193,730.597716 83.2629976,728.039517 85.3849854,725.831885 C86.0445225,708.964902 87.4881684,692.064091 90.6977885,675.594828 C92.3465882,667.174018 94.3836958,658.660121 98.6193052,651.542666 C101.741023,646.287052 106.218551,641.099161 105.668925,634.760293 C105.427045,631.975953 104.415773,628.506046 106.379715,626.872661 C107.237038,626.153377 108.504764,626.060191 109.083671,625.036184 C109.316967,624.553792 109.447582,624.014238 109.464735,623.462057 C109.868286,619.111761 109.632938,614.713999 108.768615,610.454202 C108.054478,607.671378 107.493972,604.839019 107.090476,601.974201 C106.841256,599.079777 107.266338,595.948465 108.937147,593.781902 C109.039671,587.99311 108.900449,581.984327 109.003069,576.204 C109.200523,572.909335 108.963299,569.599147 108.299524,566.386804 C107.918546,564.87188 107.3396,563.424712 107.046467,561.875948 C105.998613,556.315678 108.614752,549.655212 105.500355,545.245908 C104.20329,543.417896 102.202755,542.503873 100.502607,541.18361 C97.1097276,538.56849 94.8819825,534.286156 93.6435287,529.792242 C92.5446343,525.242186 91.8932417,520.563597 91.7016823,515.845046 C91.6004222,514.844727 91.5905948,513.834879 91.6723623,512.832184 C91.7272825,512.313352 91.8457059,511.806153 92.0240874,511.325769 C92.9914366,508.812201 95.5929063,507.838898 97.9084868,507.195769 C112.625129,503.119454 127.709849,501.082402 142.843782,501.127673 C148.442292,496.726901 151.593368,498.301028 153.967637,502.964206 C155.27886,505.810594 156.339423,508.801777 157.133382,511.892787 C158.217906,515.675771 158.283838,536.850506 159.33909,540.650432 C160.709503,545.592902 156.745122,555.68097 156.796461,560.868861 L156.796442,560.868861 Z" id="path81" fill="#001F3F"></path>
            <path d="M55.5716045,368.179093 C55.1555863,371.510831 56.5427002,374.785081 56.6960744,378.146608 C56.8300745,381.083636 56.0205646,383.952309 55.5574428,386.844365 C53.7498743,398.131292 57.2226846,409.564267 60.7569519,420.292377 C61.4291058,422.034522 61.8462248,423.89343 61.9913047,425.793322 C62.085857,429.294911 60.3395922,432.503153 59.8613601,435.962647 C58.8564314,443.232015 63.4993301,450.0701 63.5955495,457.430695 C63.6398553,460.819622 62.7157675,464.268858 63.4499077,467.550412 C63.9398391,469.740412 65.1235144,471.622426 65.9634365,473.665781 C67.451714,477.286428 67.8511271,481.394374 69.2717099,485.051107 C71.8390208,491.659673 77.3544482,495.974729 82.6033797,499.939094 C85.5895834,498.789345 88.8180699,497.424253 90.4574316,494.320761 C91.1770528,492.791853 91.6420673,491.120667 91.8283716,489.393827 C92.9632951,481.865516 92.9239622,474.175422 92.8813141,466.534007 C92.9772592,459.958527 92.6746518,453.383353 91.9757094,446.856668 C90.9153985,438.554263 88.5830117,430.549178 86.9096924,422.382485 C84.7992657,412.082505 83.7178272,401.440555 80.4308635,391.560283 C77.5423836,382.87782 73.04322,375.084237 68.3075705,367.619301 C66.5006345,364.771 65.0741878,360.699583 61.5671996,361.357286 C58.5280114,361.954808 56.1342544,364.678432 55.5716045,368.179093 L55.5716045,368.179093 Z" id="path83" fill="#0074D9"></path>
            <path d="M55.5716045,368.179093 C55.1555863,371.510831 56.5427002,374.785081 56.6960744,378.146608 C56.8300745,381.083636 56.0205646,383.952309 55.5574428,386.844365 C53.7498743,398.131292 57.2226846,409.564267 60.7569519,420.292377 C61.4291058,422.034522 61.8462248,423.89343 61.9913047,425.793322 C62.085857,429.294911 60.3395922,432.503153 59.8613601,435.962647 C58.8564314,443.232015 63.4993301,450.0701 63.5955495,457.430695 C63.6398553,460.819622 62.7157675,464.268858 63.4499077,467.550412 C63.9398391,469.740412 65.1235144,471.622426 65.9634365,473.665781 C67.451714,477.286428 67.8511271,481.394374 69.2717099,485.051107 C71.8390208,491.659673 77.3544482,495.974729 82.6033797,499.939094 C85.5895834,498.789345 88.8180699,497.424253 90.4574316,494.320761 C91.1770528,492.791853 91.6420673,491.120667 91.8283716,489.393827 C92.9632951,481.865516 92.9239622,474.175422 92.8813141,466.534007 C92.9772592,459.958527 92.6746518,453.383353 91.9757094,446.856668 C90.9153985,438.554263 88.5830117,430.549178 86.9096924,422.382485 C84.7992657,412.082505 83.7178272,401.440555 80.4308635,391.560283 C77.5423836,382.87782 73.04322,375.084237 68.3075705,367.619301 C66.5006345,364.771 65.0741878,360.699583 61.5671996,361.357286 C58.5280114,361.954808 56.1342544,364.678432 55.5716045,368.179093 L55.5716045,368.179093 Z" id="path85" fill="#000000" opacity="0.05"></path>
            <ellipse id="circle87" fill="#A0616A" cx="119.587494" cy="277.8042" rx="27.2116802" ry="31.4268095"></ellipse>
            <path d="M135.42336,329.250109 C134.237069,330.835457 132.645184,332.582489 130.885706,332.071354 C130.249756,331.820441 129.653364,331.451772 129.119876,330.979779 C125.983019,328.64487 122.132757,328.096974 118.442442,327.454919 C111.004035,326.160477 103.655451,324.252446 96.4530842,321.745469 C94.3626647,320.866689 92.1706753,320.35196 89.9490937,320.218184 C85.3370194,320.245738 81.2495814,323.786423 78.3593193,327.937371 C75.4690572,332.088318 73.4214001,336.945504 70.5852555,341.14595 C68.5645421,344.138716 66.1581558,346.775869 64.2710593,349.882825 C59.5069042,357.72658 58.4829464,367.959921 59.712882,377.435158 C60.9428177,386.910395 64.2206596,395.844675 67.4689131,404.660837 C69.2048402,409.779339 71.3237479,414.713365 73.8015828,419.406904 C72.7058005,426.606136 73.284171,434.839213 76.2482985,441.297659 C77.2136547,443.401036 78.3966688,445.452148 78.7158352,447.80401 C78.8621778,449.395614 78.8045633,451.003438 78.5448498,452.575634 L77.1598918,463.953424 C76.7381724,467.417952 76.3162806,470.883688 75.7701142,474.324956 C74.770513,480.623168 73.4143767,487.458663 75.9400073,493.158862 C78.9645761,499.985128 75.7878499,508.733312 76.5825561,516.346266 C85.0960957,512.548515 94.016071,510.100989 103.098893,509.070524 C108.946461,508.408505 114.903173,508.324858 120.54482,506.429089 C124.068222,505.245158 127.409552,503.370834 130.98687,502.426889 C133.887994,501.769345 136.835398,501.421842 139.791724,501.388785 C146.312271,501.085014 152.878916,500.783855 159.333599,501.893922 C159.856281,501.983777 160.492937,502.032323 160.80577,501.540465 C160.945241,501.272943 161.013438,500.963923 161.001859,500.651938 C161.101071,497.857732 160.523204,495.086984 159.333264,492.65139 C158.510407,490.974162 157.367099,489.333517 157.398776,487.406144 C157.458293,486.507324 157.649423,485.62668 157.96403,484.801703 L160.824033,475.992855 C163.238391,468.556558 162.08943,459.9189 163.34332,452.110191 C164.323297,446.006569 164.951235,439.834526 165.222991,433.634798 C165.455146,428.335762 165.310855,422.597319 162.542309,418.363156 C161.732765,417.342449 161.030592,416.214745 160.450423,415.003543 C160.052981,413.716382 159.883579,412.3501 159.95228,410.985851 C159.890574,400.38203 160.142448,389.784034 160.707902,379.191862 C158.293611,374.184102 155.776461,369.062662 153.362169,364.054891 C150.552422,358.226859 147.703534,352.278873 146.569099,345.738273 C145.818191,341.408954 145.844263,336.950694 145.307103,332.579169 C145.250634,331.46888 144.916389,330.401376 144.344918,329.506164 C143.422919,328.299979 141.863862,328.12735 140.471382,328.177578 C138.751642,328.240536 137.049904,328.602097 135.42336,329.250109 L135.42336,329.250109 Z" id="path89" fill="#0074D9"></path>
            <path d="M144.511927,378.33536 C146.16822,380.720176 147.894468,383.172583 150.243959,384.580964 C152.947148,386.201402 156.131309,386.238351 159.176249,386.163534 C171.714583,385.854593 184.204944,384.269983 196.502353,381.428096 C197.903392,381.149594 199.279433,380.723655 200.613275,380.155604 C202.091741,379.342671 203.485577,378.338647 204.768044,377.162793 C208.816503,373.801443 212.922501,370.377249 216.000823,365.847293 C219.663354,360.376414 221.965428,353.856072 222.659529,346.987327 C225.587697,343.871552 227.142615,339.44285 228.608423,335.167499 C229.332342,333.353782 229.790604,331.413886 229.964531,329.426876 C230.043197,327.394067 228.876864,325.263048 229.19948,323.262606 C229.764318,319.813246 231.278794,316.666866 233.517358,314.292053 C233.991965,313.901219 234.350599,313.350785 234.544324,312.715856 C234.604539,312.186829 234.518992,311.649336 234.299819,311.179619 C233.046762,307.956272 230.181604,305.877938 227.210942,305.033199 C224.202002,304.363164 221.12268,304.221971 218.077216,304.614398 C217.062091,304.836275 216.062251,305.142965 215.085579,305.53205 L212.957628,312.003521 C212.671724,313.085962 212.19873,314.090206 211.567237,314.955543 C211.093301,315.452485 210.588346,315.908477 210.056462,316.319827 C207.863519,318.470225 206.740954,321.73996 207.062104,325.041608 C203.06963,326.831577 200.968848,331.896581 202.263378,336.61138 C199.008966,337.417255 196.351418,340.119301 195.246843,343.745401 C195.095315,344.557867 194.781498,345.318202 194.330421,345.965766 C193.628255,346.580612 192.760342,346.888644 191.88038,346.835315 C189.475795,347.00708 187.373197,349.194226 185.194031,348.007771 C182.718615,346.66791 179.950912,346.221157 177.252268,346.72584 C176.697439,346.876707 176.126779,346.935159 175.55762,346.89942 C175.070787,346.802846 174.601158,346.613848 174.167785,346.340093 C173.186514,345.679584 172.123433,345.196552 171.015521,344.907798 C169.878183,344.633893 168.707519,345.156135 168.024948,346.241916 C167.261871,345.275507 166.807114,344.037884 166.111837,343.005511 C165.483364,341.883206 164.361476,341.264915 163.210709,341.406652 C163.935086,340.661252 163.193654,339.177732 162.252204,338.906617 C161.286649,338.815019 160.315101,338.855688 159.357822,339.027778 C156.841093,339.012507 154.910064,336.37333 152.465418,335.682551 C150.218395,335.0476 147.223481,335.804785 146.071646,333.48788 C145.663274,332.666468 145.583334,331.552451 144.888306,331.049538 C144.417477,330.782435 143.881378,330.710684 143.370134,330.846346 C141.774271,331.091622 140.223598,331.635159 138.7789,332.455652 C136.422578,343.100103 137.658799,354.154535 139.454227,364.943905 C140.110188,369.837352 141.852699,374.45106 144.511927,378.33536 L144.511927,378.33536 Z" id="path91" fill="#0074D9"></path>
            <path d="M130.829356,321.363086 C127.910033,319.264357 124.473317,318.374336 121.090517,317.660861 C119.059585,317.127042 116.97011,316.953495 114.893936,317.146185 C112.978354,317.422258 111.139731,318.276414 109.212276,318.400463 C106.506931,318.574574 103.913204,317.30725 101.299766,316.481179 C98.6863292,315.655108 95.6674806,315.339519 93.4672063,317.165739 C92.9989264,317.698154 92.4065146,318.061528 91.7623441,318.211468 C91.0942584,318.117884 90.4732122,317.766113 90.0001354,317.213322 C86.187133,314.061463 80.9928289,314.377631 77.4878254,317.974923 C72.4986346,323.377758 73.0632745,333.934379 67.2162437,338.032222 C65.6045444,339.161764 63.5441437,339.75928 62.6032016,341.645974 C62.3753701,342.246981 62.1094824,342.827771 61.8077002,343.383622 C61.4160187,343.880725 60.9366916,344.275179 60.4019691,344.540443 C58.70542,345.414954 57.0905473,346.487074 55.5824318,347.740153 C54.0622653,349.018289 53.0602188,350.958193 52.8085299,353.110266 C52.7869213,354.671437 53.0784664,356.217201 53.6603429,357.626555 C59.5233757,374.234513 73.8045248,384.781108 89.3179184,383.959591 C90.6621773,384.039547 91.9869228,383.562042 93.0531619,382.613223 C93.6156998,381.880762 94.0592248,381.03712 94.362434,380.122815 C97.1111553,373.466499 102.273871,368.552767 105.552125,362.224279 C107.505929,358.452571 108.760078,354.234088 110.793985,350.51927 C113.877203,344.887824 118.566132,340.72768 123.155651,336.690667 C125.743745,334.414131 128.625048,332.025077 131.876464,332.184537 C134.7742,332.327066 136.881943,332.50671 135.819592,328.402206 C134.934343,325.44486 133.164967,322.949016 130.829356,321.363086 L130.829356,321.363086 Z" id="path93" fill="#0074D9"></path>
            <path d="M130.829356,321.363086 C127.910033,319.264357 124.473317,318.374336 121.090517,317.660861 C119.059585,317.127042 116.97011,316.953495 114.893936,317.146185 C112.978354,317.422258 111.139731,318.276414 109.212276,318.400463 C106.506931,318.574574 103.913204,317.30725 101.299766,316.481179 C98.6863292,315.655108 95.6674806,315.339519 93.4672063,317.165739 C92.9989264,317.698154 92.4065146,318.061528 91.7623441,318.211468 C91.0942584,318.117884 90.4732122,317.766113 90.0001354,317.213322 C86.187133,314.061463 80.9928289,314.377631 77.4878254,317.974923 C72.4986346,323.377758 73.0632745,333.934379 67.2162437,338.032222 C65.6045444,339.161764 63.5441437,339.75928 62.6032016,341.645974 C62.3753701,342.246981 62.1094824,342.827771 61.8077002,343.383622 C61.4160187,343.880725 60.9366916,344.275179 60.4019691,344.540443 C58.70542,345.414954 57.0905473,346.487074 55.5824318,347.740153 C54.0622653,349.018289 53.0602188,350.958193 52.8085299,353.110266 C52.7869213,354.671437 53.0784664,356.217201 53.6603429,357.626555 C59.5233757,374.234513 73.8045248,384.781108 89.3179184,383.959591 C90.6621773,384.039547 91.9869228,383.562042 93.0531619,382.613223 C93.6156998,381.880762 94.0592248,381.03712 94.362434,380.122815 C97.1111553,373.466499 102.273871,368.552767 105.552125,362.224279 C107.505929,358.452571 108.760078,354.234088 110.793985,350.51927 C113.877203,344.887824 118.566132,340.72768 123.155651,336.690667 C125.743745,334.414131 128.625048,332.025077 131.876464,332.184537 C134.7742,332.327066 136.881943,332.50671 135.819592,328.402206 C134.934343,325.44486 133.164967,322.949016 130.829356,321.363086 L130.829356,321.363086 Z" id="path95" fill="#000000" opacity="0.05"></path>
            <path d="M144.990964,776.847574 C143.019769,778.971821 140.308445,779.902741 137.677637,780.562835 C131.669627,781.915959 125.587302,782.784123 119.474822,783.161024 C117.496297,783.330332 115.510442,783.50804 113.531917,783.685736 C107.728109,784.193551 101.916981,784.709788 96.0912504,784.735206 C88.9005144,784.763365 81.7220776,784.046743 74.6421853,782.593951 C74.067641,782.65758 73.501026,782.402657 73.1151573,781.906934 C72.7292885,781.411211 72.5699239,780.733472 72.6856693,780.080427 C72.8114984,771.708628 73.6956363,763.375026 75.3236357,755.215795 C75.9979382,751.864382 81.2007052,759.379634 81.4352556,759.692767 C82.878844,761.588491 83.9707074,762.46022 86.1617737,762.595612 C92.1487836,762.976456 98.8539131,758.770267 103.60978,755.029577 C104.628168,754.154783 105.709276,753.381849 106.841361,752.719168 C107.673097,752.28815 108.554153,751.997427 109.45751,751.855916 C112.53785,751.528013 115.633757,752.251939 118.361046,753.937858 C121.937108,755.985916 125.073515,758.931066 128.612908,761.038426 C131.490931,762.746262 134.597461,763.882089 137.802151,764.39825 C141.041254,764.914497 144.910363,765.159961 146.573832,768.40129 C146.579601,768.40799 146.582421,768.417354 146.581498,768.426742 C147.944494,771.109552 146.955136,774.731793 144.99129,776.847574 L144.990964,776.847574 Z" id="path97" fill="#1D262E"></path>
            <path d="M144.990964,778.086205 C143.019769,780.210451 140.308445,781.141372 137.677637,781.801476 C131.669626,783.154591 125.587302,784.022752 119.474822,784.399654 C117.496297,784.568963 115.510442,784.74667 113.531917,784.924367 C107.728109,785.432182 101.916981,785.948418 96.0912504,785.973836 C88.9005143,786.002001 81.722077,785.285379 74.6421853,783.832581 C73.9861565,783.802677 73.3703684,783.459364 72.9420373,782.884719 C72.3829981,782.02983 71.9352987,781.085055 71.6131706,780.080427 C71.7377327,771.718875 73.6968452,763.365777 75.3236357,755.215795 C75.9979382,751.864382 81.2007052,759.379634 81.4352556,759.692767 C82.878844,761.588491 83.9707074,762.46022 86.1617737,762.595612 C92.1487836,762.976456 98.8539131,758.770267 103.60978,755.029577 C104.628168,754.154783 105.709276,753.381849 106.841361,752.719168 C107.673097,752.28815 108.554153,751.997427 109.45751,751.855916 C108.688033,756.83226 102.510577,762.841054 99.3228319,764.669077 C92.8742428,768.367462 85.2091899,766.522508 78.0131325,766.954189 C77.4863462,766.938176 76.9653457,767.084215 76.5035262,767.377339 C75.6388736,768.037443 75.5875157,769.450815 75.6168645,770.644098 C75.6754566,772.624488 75.8952416,774.951838 77.3828483,775.958903 C78.1270169,776.371473 78.9468571,776.568988 79.7717864,776.534442 C97.5049532,777.431019 115.271724,776.712239 132.9071,774.384776 C135.873152,774.155652 138.791555,773.405078 141.561511,772.158978 C143.371426,771.179141 145.059636,769.923924 146.581172,768.426764 C148.846391,770.482247 146.95481,775.970423 144.990964,778.086205 L144.990964,778.086205 Z" id="path99" fill="#E8EAF2"></path>
            <path d="M129.483147,271.77977 C129.372095,275.753243 131.450001,283.462259 125.755626,281.309927 C122.361166,280.026834 121.401539,274.780537 117.094987,275.94984 C112.748747,277.139846 111.797074,284.041726 110.337838,288.574006 C107.924472,295.886 102.904874,301.177175 96.9186206,302.719249 C95.7025945,303.088186 94.4375788,303.084398 93.2228633,302.708183 C90.4470259,301.673398 88.8608359,297.937864 87.7267105,294.471421 C86.7446406,291.539599 85.9308145,288.516663 85.2919471,285.427556 C84.8494088,283.254721 84.5547906,281.035145 84.411525,278.794688 L84.411525,278.783622 C84.3151206,277.258475 84.3098091,275.725854 84.3956385,274.199632 C84.9112709,265.166146 88.8529339,256.929385 93.8970125,250.700136 C98.9410874,244.470886 105.071698,239.969614 111.12302,235.530421 C113.099254,233.921145 115.237261,232.677883 117.475735,231.836285 C119.683698,231.255155 121.94818,231.132933 124.185387,231.474142 C127.130899,231.638235 130.026183,232.526454 132.719107,234.092128 C133.823174,234.803327 134.836926,235.73165 135.724877,236.844598 C136.988571,238.372538 137.891127,240.339995 138.326155,242.515052 C139.42073,248.351162 136.565508,253.607772 134.249726,258.222791 C132.187524,262.320523 129.633771,266.666541 129.483137,271.778309 L129.483147,271.77977 Z" id="path101" fill="#1D262E"></path>
            <path d="M88.7312501,282.167315 C89.3045266,282.579829 89.9438905,282.854724 90.6111796,282.975591 C92.3123041,283.546629 94.1446011,283.229532 95.6260781,282.107714 L88.7312501,282.167315 Z" id="path105" fill="#000000" opacity="0.1"></path>
            <path d="M690.817814,763.217903 C690.622827,762.850072 686.026485,753.986493 684.432953,735.581104 C682.971361,718.695176 683.91123,690.232637 696.69245,650.52967 C720.906075,575.315064 691.11226,514.627762 690.807849,514.023253 L692.277778,513.038386 C692.35539,513.19166 700.042883,528.66457 704.584512,553.302738 C710.585413,585.967799 708.400252,619.931573 698.28512,651.213654 C674.112888,726.299896 692.083653,761.845066 692.267813,762.195745 L690.817814,763.217903 Z" id="path8" fill="#57B894"></path>
            <ellipse id="circle10" fill-opacity="0.94117647" fill="#FF767F" cx="681.349591" cy="496.853739" rx="11.0425636" ry="12.7530729"></ellipse>
            <ellipse id="circle12" fill="#57B894" cx="716.176232" cy="543.941978" rx="11.0425636" ry="12.7530729"></ellipse>
            <ellipse id="circle14" fill-opacity="0.94117647" fill="#FF767F" cx="692.392164" cy="575.334163" rx="11.0425636" ry="12.7530729"></ellipse>
            <ellipse id="circle16" fill-opacity="0.94117647" fill="#FF767F" cx="721.272709" cy="601.82138" rx="11.0425636" ry="12.7530729"></ellipse>
            <ellipse id="circle18" fill="#57B894" cx="683.897882" cy="643.023558" rx="11.0425636" ry="12.7530729"></ellipse>
            <path d="M697.488785,763.68732 C697.488785,763.68732 686.44626,732.29519 719.573931,708.751009 L697.488785,763.68732 Z" id="path20" fill="#57B894"></path>
            <path d="M683.908163,763.117868 C683.908163,763.117868 678.882562,729.734979 639.985462,730.021033 L683.908163,763.117868 Z" id="path22" fill="#57B894"></path>
            <rect id="rect25-6" fill="#E6F1FC" x="159.215898" y="58.5747735" width="493.457516" height="17.7054698"></rect>
            <rect id="rect25-6-7" fill="#E6F1FC" x="159.056238" y="0.294275975" width="493.457516" height="17.7054698"></rect>
            <rect id="rect31-5" fill="#E6F1FC" x="409.138562" y="272.515875" width="244.333333" height="17.7054698"></rect>
        </g>
    </g>
</svg>