<?xml version="1.0" encoding="UTF-8"?>
<svg width="734px" height="789px" viewBox="0 0 734 789" version="1.1" xmlns="http://www.w3.org/2000/svg" xmlns:xlink="http://www.w3.org/1999/xlink">
    <!-- Generator: Sketch 64 (93537) - https://sketch.com -->
    <title>great-diversifier-blue</title>
    <desc>Created with Sketch.</desc>
    <g id="Page-1" stroke="none" stroke-width="1" fill="none" fill-rule="evenodd">
        <g id="great-diversifier-blue">
            <rect id="Rectangle" fill="#FFFFFF" x="0" y="0" width="733" height="789"></rect>
            <ellipse id="ellipse4" fill="#E6F1FC" fill-rule="nonzero" cx="533.292399" cy="762.5" rx="155.414557" ry="21.5"></ellipse>
            <path d="M493.845227,531.82142 L386.719712,439.45677 L314.245567,554.18877 C373.24731,581.86678 446.339217,572.76391 493.845227,531.82142 Z" id="path72" fill="#0074D9" fill-rule="nonzero"></path>
            <path d="M384.638007,383.98802 C427.96623,346.630011 433.449057,274.311096 410,225.50049 C386.550943,176.689884 338.787835,151.197423 277.51255,151.197423 L277.51255,291.62337 L384.638007,383.98802 Z" id="path16" fill="#E6F1FC" fill-rule="nonzero"></path>
            <path d="M277.512492,151.197423 C208.241899,151.204592 153.431872,203.182916 141.352412,254.626138 C129.272953,306.069361 144.210638,377.779837 205.038347,406.35537 L277.512492,291.62337 L277.512492,151.197423 Z" id="path18" fill="#FF767F" fill-rule="nonzero"></path>
            <rect id="rect22" fill="#E6F1FC" fill-rule="nonzero" x="452.067717" y="64" width="29.0103203" height="25.012991"></rect>
            <rect id="rect24" fill="#0074D9" fill-rule="nonzero" x="493.971517" y="64" width="29.0103203" height="25.012991"></rect>
            <polygon id="polygon32" fill="#FFB9B9" fill-rule="nonzero" points="591.19505 732.49396 602.056671 736.90096 614.195244 733.59596 622.500644 736.90096 625.056866 724.23096 610.362072 709.90796 589.277883 718.72196"></polygon>
            <path d="M596.944878,729.18875 C596.944878,729.18875 587.039369,719.23205 586.880892,724.21045 C586.722416,729.18875 564.999717,746.26565 564.999717,746.26565 C564.999717,746.26565 531.137901,755.07955 557.332885,760.58825 C583.52787,766.09695 641.029191,750.12175 642.945905,746.81655 C644.862619,743.51135 626.973325,718.17135 625.056611,720.37485 C623.139897,722.57835 613.556363,730.29055 596.944878,729.18875 Z" id="path34" fill="#1D262E" fill-rule="nonzero"></path>
            <path d="M572.666561,565.58075 C572.666561,565.58075 568.833145,591.47158 572.666561,595.32766 C576.499977,599.18374 574.583263,606.89591 572.666561,607.99766 C570.749859,609.09941 575.222168,613.50635 578.416691,615.70983 C581.611214,617.91331 586.083523,627.82894 586.083523,627.82894 C586.083523,627.82894 603.333912,666.94065 603.333912,670.79675 C603.333912,674.65275 611.000744,682.91585 610.36184,685.67015 C609.722935,688.42445 614.83416,697.23845 614.195267,698.89105 C613.556374,700.54365 622.501004,715.41705 619.945386,717.62055 C617.389767,719.82405 582.250107,727.53615 584.166821,722.57835 C586.083534,717.62055 587.361332,711.56095 586.083523,711.56095 C584.805714,711.56095 579.055595,705.50145 580.333393,703.29795 C581.61119,701.09455 541.999209,643.25329 541.999209,643.25329 L572.666561,565.58075 Z" id="path36" fill="#001F3F" fill-rule="nonzero"></path>
            <path d="M596.944878,729.18875 C596.944878,729.18875 587.039369,719.23205 586.880892,724.21045 C586.722416,729.18875 564.999717,746.26565 564.999717,746.26565 C564.999717,746.26565 531.137901,755.07955 557.332885,760.58825 C583.52787,766.09695 641.029191,750.12175 642.945905,746.81655 C644.862619,743.51135 626.973325,718.17135 625.056611,720.37485 C623.139897,722.57835 613.556363,730.29055 596.944878,729.18875 Z" id="path38" fill="#000000" fill-rule="nonzero" opacity="0.1"></path>
            <path d="M572.666561,565.58075 C572.666561,565.58075 568.833145,591.47158 572.666561,595.32766 C576.499977,599.18374 574.583263,606.89591 572.666561,607.99766 C570.749859,609.09941 575.222168,613.50635 578.416691,615.70983 C581.611214,617.91331 586.083523,627.82894 586.083523,627.82894 C586.083523,627.82894 603.333912,666.94065 603.333912,670.79675 C603.333912,674.65275 611.000744,682.91585 610.36184,685.67015 C609.722935,688.42445 614.83416,697.23845 614.195267,698.89105 C613.556374,700.54365 622.501004,715.41705 619.945386,717.62055 C617.389767,719.82405 582.250107,727.53615 584.166821,722.57835 C586.083534,717.62055 587.361332,711.56095 586.083523,711.56095 C584.805714,711.56095 579.055595,705.50145 580.333393,703.29795 C581.61119,701.09455 541.999209,643.25329 541.999209,643.25329 L572.666561,565.58075 Z" id="path40" fill="#000000" fill-rule="nonzero" opacity="0.1"></path>
            <polygon id="polygon42" fill="#FFB9B9" fill-rule="nonzero" points="503.665339 748.79196 524.110472 747.68996 535.609989 738.87596 535.609989 720.14696 507.498512 711.88396 500.470062 727.30796"></polygon>
            <path d="M511.331858,730.61305 C511.331858,730.61305 504.303931,710.78175 500.470503,716.29045 C498.042144,719.828408 495.90714,723.510066 494.08148,727.30785 C494.08148,727.30785 462.775224,744.93565 454.469487,744.93565 C446.163751,744.93565 438.496907,753.74955 449.358204,757.05475 C460.219501,760.35995 543.276961,764.76695 544.554758,757.05475 C545.832556,749.34265 543.276961,724.55355 539.443545,727.30785 C535.610129,730.06225 515.804179,736.12175 511.331858,730.61305 L511.331858,730.61305 Z" id="path44" fill="#1D262E" fill-rule="nonzero"></path>
            <path d="M495.359278,486.57824 C495.359278,486.57824 481.942316,506.40952 480.664483,508.61299 C479.386651,510.81646 472.358747,525.13905 485.775709,530.64774 C499.19267,536.15643 510.69293,490.43433 510.69293,490.43433 L495.359278,486.57824 Z" id="path46" fill="#FFB9B9" fill-rule="nonzero"></path>
            <path d="M509.415156,454.62786 C509.415156,454.62786 488.970255,488.78172 492.803671,489.88346 C496.637087,490.9852 511.970763,497.59562 511.970763,497.59562 L518.998702,462.89089 L509.415156,454.62786 Z" id="path48" fill="#0074D9" fill-rule="nonzero"></path>
            <path d="M509.415156,454.62786 C509.415156,454.62786 488.970255,488.78172 492.803671,489.88346 C496.637087,490.9852 511.970763,497.59562 511.970763,497.59562 L518.998702,462.89089 L509.415156,454.62786 Z" id="path50" fill="#000000" fill-rule="nonzero" opacity="0.1"></path>
            <path d="M508.137347,517.97779 C510.05406,524.03734 506.859537,614.93069 509.415156,619.8885 C511.970774,624.84631 513.887476,656.79675 513.887476,660.65275 C513.887476,664.50885 508.776193,695.90835 507.498442,698.66275 C506.220691,701.41705 502.387159,710.78185 504.303931,715.18875 C506.220702,719.59575 532.415664,730.61305 536.249045,726.75705 C540.082426,722.90105 536.887949,710.78185 540.082461,710.23095 C543.276978,709.68015 547.1104,683.78935 547.1104,683.78935 L568.194205,582.42945 C568.194205,582.42945 607.806198,497.59567 598.861557,489.33264 C589.916916,481.06961 510.692953,483.27306 510.692953,483.27306 C510.692953,483.27306 506.220633,511.91824 508.137347,517.97779 Z" id="path52" fill="#001F3F" fill-rule="nonzero"></path>
            <ellipse id="circle54" fill="#FFB9B9" fill-rule="nonzero" cx="534.332354" cy="260.72209" rx="31.3062572" ry="26.992571"></ellipse>
            <path d="M531.776759,310.85112 C530.49895,315.80894 561.805206,302.03722 561.805206,302.03722 C561.805206,302.03722 559.888492,275.04465 561.805206,267.88336 C563.72192,260.72207 522.832118,282.75682 522.832118,282.75682 C522.832118,282.75682 533.054568,305.8933 531.776759,310.85112 Z" id="path56" fill="#FFB9B9" fill-rule="nonzero"></path>
            <path d="M608.445137,440.85614 C608.445137,440.85614 610.36184,466.19614 607.167328,474.45914 C603.972817,482.72214 603.972817,488.78173 602.056045,494.29042 C601.493885,495.89342 593.846074,496.75278 583.106232,497.13288 C573.254237,497.47993 560.802028,497.43037 548.848178,497.19348 C529.054963,496.79687 510.60337,495.88248 507.498384,495.39216 C500.470445,494.29043 508.776193,484.92566 506.220575,479.96784 C503.664956,475.01002 510.692953,411.66007 510.692953,411.66007 C510.692953,411.66007 510.054049,375.8536 513.248572,362.08188 C516.443095,348.31016 528.582248,326.27542 531.137854,323.52107 C533.693461,320.76672 531.776759,319.11412 526.026571,315.80891 C520.276383,312.5037 526.026571,299.83372 526.026571,299.83372 C536.887926,292.12156 564.360766,291.01982 564.360766,291.01982 C564.360766,291.01982 606.528366,328.47889 609.083984,336.19105 C610.630069,340.85138 610.074311,378.07905 609.39704,406.82342 C609.135201,417.63707 608.860361,427.2552 608.675047,433.48001 C608.53471,438.1018 608.445137,440.85614 608.445137,440.85614 Z" id="path58" fill="#0074D9" fill-rule="nonzero"></path>
            <path d="M554.777267,502.00257 C554.777267,502.00257 530.498961,544.97033 549.666041,547.72467 C568.833122,550.47901 578.416691,508.61299 578.416691,508.61299 L554.777267,502.00257 Z" id="path60" fill="#FFB9B9" fill-rule="nonzero"></path>
            <path d="M512.37825,235.17479 C521.790481,228.880884 533.370209,225.476213 545.281356,225.500361 C553.659929,225.53982 562.30709,227.45085 568.639828,232.18117 C576.026287,237.69858 579.395675,246.54656 578.775501,254.95584 C578.155327,263.36512 573.913635,271.34096 568.192234,278.17227 C565.446221,281.45098 561.036043,284.84499 556.648075,283.41604 C554.931104,282.722937 553.457784,281.649958 552.378095,280.30633 C549.563554,277.295272 547.111052,274.045483 545.058359,270.60701 C543.487976,267.97582 542.127624,265.20251 539.901902,262.95001 C537.67618,260.69751 534.331113,259.00338 530.931281,259.40786 C528.122893,259.74198 525.368054,261.44656 522.689519,260.64572 C519.709572,259.75472 518.989226,256.46924 518.752242,253.7575 C518.492445,250.78517 518.676506,247.34212 517.719222,244.53195 C516.672215,245.01394 505.574445,249.25846 505.059918,247.04027 C503.95281,242.41071 508.056369,238.08309 512.37825,235.17479 Z" id="path62" fill="#2F2E41" fill-rule="nonzero"></path>
            <path d="M608.675047,433.48 C601.519366,455.7296 585.105988,493.22723 584.166821,494.84127 C583.930347,495.25443 583.559892,496.06419 583.10629,497.13287 C573.254295,497.47992 560.802086,497.43036 548.848236,497.19347 C550.701149,493.01791 552.860564,488.98555 552.860564,487.67999 C552.860564,484.92565 568.19424,413.86358 568.19424,413.86358 C568.19424,413.86358 556.055122,382.46407 545.193721,356.02237 C534.332319,329.58067 577.458328,334.81392 577.458328,334.81392 C600.458847,329.85607 604.611733,338.39457 604.611733,338.39457 C604.611733,338.39457 606.637017,384.83279 609.39711,406.82346 C610.106357,412.45887 610.860222,416.48572 611.639661,417.71966 C612.661975,419.33371 611.281801,425.40429 608.675047,433.48001 L608.675047,433.48 Z" id="path64" fill="#000000" fill-rule="nonzero" opacity="0.1"></path>
            <path d="M568.19424,316.91068 C568.19424,316.91068 538.804652,327.37718 549.666041,353.81888 C560.527431,380.26058 572.666561,411.66006 572.666561,411.66006 C572.666561,411.66006 557.332885,482.72216 557.332885,485.47651 C557.332885,488.23086 547.749374,503.10431 551.582755,505.85865 C555.416137,508.61299 580.972344,514.12165 581.611202,511.36734 C583.569398,505.021736 585.915318,498.769831 588.639141,492.6378 C589.916939,490.43433 619.945386,421.57573 616.11197,415.51618 C612.278554,409.45663 609.084042,336.19108 609.084042,336.19108 C609.084042,336.19108 591.194748,311.95286 568.19424,316.91068 L568.19424,316.91068 Z" id="path66" fill="#0074D9" fill-rule="nonzero"></path>
            <path d="M503.123708,524.82142 L390.199143,433.45677 L323.524048,552.18877 C345.751718,562.647807 370.675934,568.112931 395.998193,568.080297 C437.833356,568.080297 475.707896,548.45956 503.123708,524.82142 L503.123708,524.82142 Z" id="path68" fill="#575A89" fill-rule="nonzero"></path>
            <path d="M503.123708,524.82142 L390.199143,433.45677 L323.524048,552.18877 C345.751718,562.647807 370.675934,568.112931 395.998193,568.080297 C437.833356,568.080297 475.707896,548.45956 503.123708,524.82142 L503.123708,524.82142 Z" id="path70" fill="#0074D9" fill-rule="nonzero"></path>
            <line x1="714.22787" y1="762.46021" x2="714.22787" y2="646.36658" id="line76" stroke="#3F3D56" stroke-width="2" fill="#3F3D56" fill-rule="nonzero"></line>
            <ellipse id="circle78" fill="#57B894" fill-rule="nonzero" cx="714.22787" cy="646.36658" rx="19.0409172" ry="16.417271"></ellipse>
            <path d="M714.227882,717.91745 C714.227882,717.91745 711.507744,667.47455 655.745082,673.33785" id="path80" fill="#57B894" fill-rule="nonzero"></path>
            <path d="M26.641574,634.36186 C33.8301837,636.615097 41.8853401,634.707636 46.7307736,629.604739 C51.5762071,624.501842 52.1548608,617.316732 48.17391,611.685397 C44.1929593,606.054062 36.5208695,603.205006 29.0400614,604.57998 L29.4908796,612.57266 L25.1050576,605.72286 C20.8006322,607.466699 17.4752766,610.612667 15.8597471,614.46943 C15.2860112,615.820403 14.9372291,617.234665 14.8238047,618.67003 C14.2549515,625.589593 19.0788965,631.994907 26.641574,634.36186 L26.641574,634.36186 Z" id="path10" fill="#57B894" fill-rule="nonzero"></path>
            <path d="M48.3426607,727.06334 C46.7944348,720.26592 53.5031199,714.23979 60.129695,710.32283 C66.7562702,706.40587 74.4990466,702.55729 76.7600965,695.91 C80.0096525,686.35668 70.3304571,677.60763 62.7969104,670.06282 C57.2076827,664.46372 52.4078466,658.313168 48.4978433,651.73987 C46.798001,649.157913 45.6402163,646.337471 45.0777998,643.40841 C44.4837451,639.17379 46.0616668,634.95994 47.6512979,630.92067 C52.9469136,617.46467 58.608836,604.121403 64.6370651,590.89087" id="path12" stroke="#3F3D56"></path>
            <path d="M46.1413457,588.13067 C48.2320063,583.157001 53.1185717,579.445057 59.1045389,578.28354 L60.5874721,585.88195 L63.336686,577.90161 C71.1691541,578.001771 78.0281381,582.456011 80.3022725,588.919101 C82.5764069,595.38219 79.7440029,602.37149 73.2963668,606.20702 C66.8487307,610.042551 58.2649569,609.844438 52.0645406,605.716992 C45.8641242,601.589545 43.4694473,594.479605 46.1413457,588.13067 L46.1413457,588.13067 Z" id="path16-3" fill="#57B894" fill-rule="nonzero"></path>
            <path d="M59.635384,670.21681 C68.2420307,672.908653 77.8213447,669.604197 81.8994192,662.536665 C85.9774937,655.469134 83.2562032,646.88825 75.5746545,642.59316 L73.4620604,648.72581 L71.9640496,641.03781 C71.9494421,641.031814 71.9343197,641.026799 71.918817,641.02281 C65.8697853,639.128849 59.1083152,640.16189 54.1823815,643.732644 C49.2564477,647.303398 46.9147653,652.869131 48.0397676,658.332466 C49.1647699,663.795801 53.5854627,668.326341 59.6359639,670.21681 L59.635384,670.21681 Z" id="path20" fill="#57B894" fill-rule="nonzero"></path>
            <path d="M40.8855501,696.00496 C42.3587893,703.232835 49.5021466,708.583185 58.0087577,708.830183 C66.5153689,709.07718 74.0600169,704.153311 76.0938918,697.027269 C78.1277668,689.901226 74.0949244,682.520859 66.4268413,679.335929 C58.7587581,676.151 49.5514458,678.032083 44.356166,683.84504 L52.3804237,694.25841 L41.4162793,688.73132 C40.56616,691.084206 40.384142,693.578762 40.8855501,696.00496 L40.8855501,696.00496 Z" id="path24" fill="#57B894" fill-rule="nonzero"></path>
            <ellipse id="ellipse113" fill="#0074D9" fill-rule="nonzero" opacity="0.1" cx="41.8147297" cy="760.76898" rx="39.7930866" ry="5.8000002"></ellipse>
            <path d="M15.127443,733.819 C15.127443,733.819 37.8249272,733.219 44.6678069,729.019 C51.5106821,724.819 79.5780871,719.809 81.2714099,726.539 C82.9647327,733.269 115.393024,760.039 89.76122,760.219 C64.1294162,760.399 30.2165728,756.779 23.3852911,753.219 C16.5540095,749.659 15.127443,733.819 15.127443,733.819 Z" id="path115" fill="#A8A8A8" fill-rule="nonzero"></path>
            <path d="M90.1903498,757.879 C64.558546,758.059 30.6457025,754.439 23.8144209,750.879 C18.6184715,748.149 16.5424114,738.349 15.8465253,733.879 L15.0926487,733.879 C15.0926487,733.879 16.5308133,749.669 23.3504968,753.249 C30.1701804,756.829 64.10622,760.459 89.7264257,760.249 C97.1260143,760.249 99.6775966,757.929 99.5384194,754.569 C98.5061884,756.569 95.6878498,757.839 90.1903498,757.879 Z" id="path117" fill="#000000" fill-rule="nonzero" opacity="0.2"></path>
            <rect id="rect22-6" fill="#FF767F" fill-rule="nonzero" x="410" y="65.22089" width="29.0103203" height="25.012991"></rect>
        </g>
    </g>
</svg>