<?xml version="1.0" encoding="UTF-8"?>
<svg width="1001px" height="837px" viewBox="0 0 1001 837" version="1.1" xmlns="http://www.w3.org/2000/svg" xmlns:xlink="http://www.w3.org/1999/xlink">
    <!-- Generator: Sketch 64 (93537) - https://sketch.com -->
    <title>pie-chart-blue</title>
    <desc>Created with Sketch.</desc>
    <defs>
        <linearGradient x1="49.9909728%" y1="99.9964804%" x2="49.9909728%" y2="0.00175981979%" id="linearGradient-1">
            <stop stop-color="#808080" stop-opacity="0.25" offset="0%"></stop>
            <stop stop-color="#808080" stop-opacity="0.12" offset="54%"></stop>
            <stop stop-color="#808080" stop-opacity="0.1" offset="100%"></stop>
        </linearGradient>
        <path d="M826.8,513.5 L826.8,514.32 L826.42,527.85 C826.42,527.85 824.74,532.51 824.93,533.25 C825.12,533.99 819.35,568.25 817.29,572.53 C815.23,576.81 815.42,597.86 815.42,597.86 C815.42,597.86 815.6,604.74 812.8,609.03 C810,613.32 810.42,616.5 810.98,619.5 C811.44,621.92 809.43,639.81 807.46,647.64 C807.247208,648.884832 806.795575,650.076735 806.13,651.15 C805.930553,651.407947 805.778215,651.699083 805.68,652.01 C803,658.92 796.08,701.6 796.08,701.6 C796.08,701.6 796.01,702.42 795.94,703.54 C795.82,705.6 795.71,708.7 796.08,709.42 C796.140192,709.896032 796.085324,710.379558 795.92,710.83 C795.02,714.52 791.24,723.76 791.24,723.76 C791.24,723.76 783.98,707.56 763.68,725.06 C763.68,725.06 755.86,724.31 758.29,717.61 C760.72,710.91 761.64,709.42 759.96,706.82 C758.28,704.22 760.89,700.12 760.89,700.12 C761.100191,698.621013 760.973796,697.094026 760.52,695.65 C759.77,692.86 762.2,686.16 762.2,686.16 L762.39,678.34 L766.31,659.74 L767.49,654.14 L768.71,648.35 L775.21,535.5 L775.46,531.3 L777.28,499.61 L821.21,492.35 L822.71,503.88 L825.09,509.54 L826.8,513.5 Z" id="path-2"></path>
        <path d="M833.69,698.01 C833.69,698.01 825.31,713.09 818.98,713.47 C812.65,713.85 804.28,718.87 804.28,718.87 C804.28,718.87 796.64,709.93 797.19,708.26 C797.74,706.59 792.73,702.67 792.73,702.67 C792.73,702.67 787.33,693.73 787.33,692.81 C787.33,691.89 781.55,684.43 781.55,684.43 L768.34,659.3 C768.34,659.3 746.19,622.05 745.63,619.82 C745.289856,618.472657 744.575726,617.248929 743.57,616.29 C737.25,611.07 737.43,600.09 737.06,599.53 L730.92,590.22 L730.36,574.58 C730.36,574.58 726.82,566.02 727.01,563.41 C727.2,560.8 725.14,554.29 725.14,553.35 C725.14,552.41 722.91,533.44 722.73,532.69 C722.55,531.94 721.79,527.85 721.79,527.85 C721.79,527.85 721.98,505.51 720.5,503.64 C719.68,502.64 719.42,497.37 719.36,492.79 C719.3,488.96 719.36,485.59 719.36,485.59 L829.01,474.23 C829.01,474.23 829.69,480.48 830.08,486.74 C830.43,492.33 830.55,497.95 829.76,499.18 C828.08,501.79 826.76,513.52 826.76,513.52 L777.24,531.39 L777.79,544.98 C777.79,544.98 780.59,569.93 780.59,572.53 C780.59,575.13 779.28,596.36 779.28,596.36 C779.28,596.36 785.98,606.36 785.28,608.84 C784.58,611.32 791.04,618.14 791.04,618.14 L802.21,639.37 C802.21,639.37 804.27,647.01 805.38,647.75 C806.49,648.49 811.54,659.5 811.54,659.5 C811.54,659.5 818.98,670.87 818.98,671.61 C818.98,672.35 824.38,681.11 824.38,681.11 C824.38,681.11 828.29,687.25 828.47,689.11 C828.65,690.97 833.69,698.01 833.69,698.01 Z" id="path-3"></path>
        <path d="M828.47,434.39 C828.47,434.39 836.67,463.81 829.41,486.9 C822.15,509.99 769.83,510.5 769.83,510.5 L768.34,496.17 L763.34,505.86 C763.34,505.86 724.25,495.05 716.62,488.72 C708.99,482.39 712.89,472.9 712.89,472.9 C712.89,472.9 715.5,460.62 717.73,458 C719.96,455.38 720.34,446.27 719.59,445 C718.84,443.73 722.2,431.4 723.32,429.54 C724.44,427.68 723.13,377.97 723.13,377.97 C723.13,377.97 706.56,385.41 705.63,387.65 C704.7,389.89 685.15,400.65 685.15,400.65 C685.15,400.65 666.72,402.89 663.37,402.89 C660.02,402.89 641.58,400.65 641.58,400.65 C641.58,400.65 636.58,400.46 635.07,399.35 C633.555091,398.447292 631.923098,397.75748 630.22,397.3 C630.22,397.3 625.02,396.18 623.52,394.14 C622.02,392.1 609.52,385.2 609.52,385.2 C611.94,383.71 612.13,364.2 612.13,364.2 L635.77,369.97 C635.77,369.97 637.27,366.81 639.5,368.11 C641.73,369.41 655.33,370.5 655.33,370.5 C655.33,370.5 666.69,368.27 667.25,369.19 C667.81,370.11 669.48,369.94 669.48,369.94 C669.48,369.94 671.72,369.75 671.72,369.02 C671.72,368.29 673.72,369.19 673.72,369.19 L677.45,369.75 C677.45,369.75 676.89,364.92 678.57,364.55 C679.5482,364.309848 680.281173,363.497635 680.42,362.5 C680.42,362.5 685.42,355.8 687.87,355.8 C690.32,355.8 691.97,349.1 691.97,349.1 L700.91,339.98 C700.91,339.98 699.79,335.32 700.91,335.13 C702.03,334.94 702.2,332.9 702.2,332.9 C702.2,332.9 702.58,328.81 704.63,327.9 C706.68,326.99 707.79,321.58 707.79,321.58 C707.79,321.58 717.28,310.97 718.03,307.24 C718.78,303.51 722.69,302.77 722.69,302.77 C724.803596,301.400028 727.127871,300.386536 729.57,299.77 C732.74,299.21 741.12,298.27 741.12,298.27 C741.12,298.27 756.38,296.98 757.88,295.27 C759.38,293.56 761.97,293.77 763.64,293.77 C764.001698,293.744095 764.348548,293.615761 764.64,293.4 C766.15,292.46 767.95,289.84 769.75,288.19 C771.98,286.14 775.89,287.07 775.89,287.07 L777.57,299.92 L777.88,300.23 L779.8,302.15 L782.22,302.15 L786.88,308.49 C786.88,308.49 793.58,303.09 794.14,304.39 C794.7,305.69 803.82,302.15 803.82,302.15 L804.17,302.15 C812.43,301.8 813.87,289.51 813.87,289.51 C817.97,285.96 821.51,300.87 821.51,300.87 L822.8,301.56 C825.42,303.02 831.22,306.36 831.93,307.94 C832.86,309.94 843.29,316.12 843.29,316.12 L828.47,434.39 Z" id="path-4"></path>
        <path d="M835.92,320.82 L843.37,316.17 C843.37,316.17 851.93,317.47 853.05,335.17 C854.17,352.87 861.99,388.23 861.99,388.23 L866.27,427.5 C866.27,427.5 867.76,434.95 866.46,438.67 C865.602746,440.841956 864.93362,443.083527 864.46,445.37 C864.27,446.68 854.03,453.01 854.22,461.2 C854.41,469.39 841.22,477.02 841.22,477.02 C841.22,477.02 832.65,482.02 829.86,485.59 C829.86,485.59 826.69,470.69 819.81,466.97 C812.93,463.25 834.33,433.65 834.33,433.65 L835.92,320.82 Z" id="path-5"></path>
        <path d="M286,285 L0,282.004228 L0,0 C95.3333333,5.94858469 165.574276,35.4643188 210.722828,88.5472023 C256.474412,134.138816 281.566803,199.623082 286,285 Z" id="path-6"></path>
        <path d="M286,279.59 L4,276.5 L4,0 C96.6666667,5.94858469 165.574276,35.4643188 210.722828,88.5472023 C256.474412,134.138816 281.566803,197.819749 286,279.59 Z" id="path-7"></path>
        <path d="M286,285 L0,282.004228 L0,0 C95.3333333,5.94858469 165.574276,35.4643188 210.722828,88.5472023 C256.474412,134.138816 281.566803,199.623082 286,285 Z" id="path-8"></path>
        <path d="M286,279.59 L4,276.5 L4,0 C96.6666667,5.94858469 165.574276,35.4643188 210.722828,88.5472023 C256.474412,134.138816 281.566803,197.819749 286,279.59 Z" id="path-9"></path>
    </defs>
    <g id="Page-1" stroke="none" stroke-width="1" fill="none" fill-rule="evenodd">
        <g id="pie-chart-blue">
            <ellipse id="ellipse47" fill="#0074D9" fill-rule="nonzero" opacity="0.1" cx="157.20476" cy="810.53003" rx="23.314762" ry="6.1599998"></ellipse>
            <path d="M319.99,31.27 C350.77,3.84 399.1,-1.73 443.08,0.43 C581.24,7.3 705.95,73.99 813.82,149.43 C852.87,176.74 891.32,206.17 916.67,243.78 C968.27,320.35 952.97,426.41 881.21,489.48 C856.8,510.94 827.21,527.4 796.82,541.98 C742.82,567.91 684.51,588.72 623.2,594.65 C579.47,598.87 535.2,595.44 491.74,589.54 C370.3,573.07 251.09,536.65 151.18,474.34 C107.36,447.01 66.05,413.04 47.99,368.83 C29.93,324.62 41.49,268.59 86.23,242.42 C104.74,231.6 126.87,226.71 148.53,222.12 C180.42,215.36 212.82,208.7 241.59,194.97 C271.31,180.78 306.51,153.34 300.59,121.97 C294.31,88.26 289.24,58.67 319.99,31.27 Z" id="path13" fill="#0074D9" fill-rule="nonzero" opacity="0.1"></path>
            <ellipse id="ellipse15" fill="#0074D9" fill-rule="nonzero" opacity="0.1" cx="967.42" cy="831.34" rx="33.42" ry="5.65"></ellipse>
            <ellipse id="ellipse17" fill="#0074D9" fill-rule="nonzero" opacity="0.1" cx="393.44" cy="761.68" rx="148.72" ry="26.33"></ellipse>
            <ellipse id="ellipse19" fill="#0074D9" fill-rule="nonzero" opacity="0.1" cx="792.81" cy="756.47" rx="75.59" ry="16.65"></ellipse>
            <path d="M974.32,759.99 C974.32,759.99 980.46,767.99 971.49,780.13 C962.52,792.27 955.13,802.48 958.12,810.03 C958.12,810.03 971.65,787.53 982.66,787.21 C993.67,786.89 986.42,773.5 974.32,759.99 Z" id="path21" fill="#57B894" fill-rule="nonzero"></path>
            <path d="M974.32,759.99 C974.856821,760.766328 975.28103,761.614746 975.58,762.51 C986.32,775.14 992.05,786.92 981.72,787.21 C972.1,787.49 960.55,804.7 957.79,809.04 C957.878487,809.380052 957.988714,809.714072 958.12,810.04 C958.12,810.04 971.65,787.54 982.66,787.22 C993.67,786.9 986.42,773.5 974.32,759.99 Z" id="path23" fill="#000000" fill-rule="nonzero" opacity="0.1"></path>
            <path d="M985.73,770.22 C985.73,773.05 985.41,775.33 985.02,775.33 C984.63,775.33 984.31,773.05 984.31,770.22 C984.31,767.39 984.71,768.73 985.1,768.73 C985.49,768.73 985.73,767.4 985.73,770.22 Z" id="path25" fill="#FFD037" fill-rule="nonzero"></path>
            <path d="M989.65,773.59 C987.17,774.94 985,775.76 984.82,775.42 C984.64,775.08 986.49,773.7 988.97,772.35 C991.45,771 990.47,771.98 990.66,772.35 C990.85,772.72 992.13,772.24 989.65,773.59 Z" id="path27" fill="#57B894" fill-rule="nonzero"></path>
            <path d="M941.91,759.99 C941.91,759.99 935.77,767.99 944.74,780.13 C953.71,792.27 961.11,802.48 958.12,810.03 C958.12,810.03 944.58,787.53 933.57,787.21 C922.56,786.89 929.79,773.5 941.91,759.99 Z" id="path29" fill="#57B894" fill-rule="nonzero"></path>
            <path d="M941.91,759.99 C941.374678,760.765731 940.953702,761.614418 940.66,762.51 C929.91,775.14 924.18,786.92 934.51,787.21 C944.14,787.49 955.68,804.7 958.44,809.04 C958.35,809.38 958.24,809.71 958.12,810.04 C958.12,810.04 944.58,787.54 933.57,787.22 C922.56,786.9 929.79,773.5 941.91,759.99 Z" id="path31" fill="#000000" fill-rule="nonzero" opacity="0.1"></path>
            <path d="M930.5,770.22 C930.5,773.05 930.82,775.33 931.21,775.33 C931.6,775.33 931.92,773.05 931.92,770.22 C931.92,767.39 931.52,768.73 931.13,768.73 C930.74,768.73 930.5,767.4 930.5,770.22 Z" id="path33" fill="#FFD037" fill-rule="nonzero"></path>
            <path d="M926.59,773.59 C929.07,774.94 931.23,775.76 931.42,775.42 C931.61,775.08 929.74,773.7 927.26,772.35 C924.78,771 925.76,771.98 925.58,772.35 C925.4,772.72 924.11,772.24 926.59,773.59 Z" id="path35" fill="#FFD037" fill-rule="nonzero"></path>
            <path d="M932.42,808.98 C932.42,808.98 949.57,808.45 954.74,804.77 C959.91,801.09 981.14,796.69 982.42,802.6 C983.7,808.51 1008.2,831.97 988.83,832.12 C969.46,832.27 943.83,829.12 938.66,825.96 C933.49,822.8 932.42,808.98 932.42,808.98 Z" id="path37" fill="#CED6E0" fill-rule="nonzero"></path>
            <path d="M989.22,830.07 C969.85,830.22 944.22,827.07 939.05,823.91 C935.12,821.51 933.55,812.91 933.05,808.96 L932.48,808.96 C932.48,808.96 933.56,822.8 938.72,825.96 C943.88,829.12 969.52,832.28 988.89,832.12 C994.48,832.12 996.41,830.12 996.31,827.12 C995.51,828.92 993.42,830.03 989.22,830.07 Z" id="path39" fill="#000000" fill-rule="nonzero" opacity="0.2"></path>
            <ellipse id="ellipse41" fill="#0074D9" fill-rule="nonzero" opacity="0.1" cx="33.42" cy="789.34" rx="33.42" ry="5.65"></ellipse>
            <path d="M10.97,763.09 C10.97,763.09 30.04,762.5 35.78,758.41 C41.52,754.32 65.11,749.41 66.54,756 C67.97,762.59 95.19,788.63 73.67,788.81 C52.15,788.99 23.67,785.45 17.92,781.96 C12.17,778.47 10.97,763.09 10.97,763.09 Z" id="path43" fill="#CED6E0" fill-rule="nonzero"></path>
            <path d="M74.05,786.5 C52.52,786.67 24.05,783.15 18.3,779.65 C13.93,776.99 12.19,767.45 11.61,763.04 L10.97,763.04 C10.97,763.04 12.18,778.42 17.97,781.91 C23.76,785.4 52.19,788.91 73.72,788.76 C79.93,788.76 82.08,786.49 81.96,783.22 C81.04,785.25 78.67,786.5 74.05,786.5 Z" id="path45" fill="#000000" fill-rule="nonzero" opacity="0.2"></path>
            <path d="M866.8,424.5 L862.42,384.97 C862.42,384.97 854.49,349.38 853.36,331.59 C852.23,313.8 843.66,312.5 843.59,312.5 C843.59,312.5 833.02,306.32 832.08,304.26 C831.35,302.68 825.48,299.32 822.82,297.84 L821.52,297.15 C821.52,297.15 818.22,283.4 814.29,285.37 L813.97,284.44 C812.938776,281.4818 812.316359,278.39663 812.12,275.27 C812.12,274.88 812.12,274.5 812.12,274.12 C816.443441,269.911888 819.552519,264.616093 821.12,258.79 C821.652606,256.740083 821.987471,254.643828 822.12,252.53 C822.12,252.14 822.12,251.74 822.12,251.34 C824.05,249.99 824.37,247.13 824.88,244.74 C825.82,240.36 828.28,236.44 829.45,232.12 C829.55,231.75 829.63,231.37 829.7,230.98 C829.7,230.9 829.7,230.82 829.7,230.73 C829.841898,229.937599 829.91882,229.134929 829.93,228.33 C829.93,228.27 829.93,228.22 829.93,228.16 C829.93,224.9 828.93,221.7 826.23,219.96 C825.606493,219.63721 825.028191,219.233744 824.51,218.76 C824.124736,218.286353 823.826765,217.747973 823.63,217.17 L821.63,212.41 C821.413367,211.785309 821.073288,211.210576 820.63,210.72 C819.836686,210.117757 818.927789,209.685435 817.96,209.45 C814.96,208.3 812.96,205.51 811.49,202.73 C810.02,199.95 808.67,196.95 806.38,194.73 C802.66,191.18 797.14,190.43 792.02,189.87 C791.641143,191.470549 791.519621,193.121225 791.66,194.76 C783.53,192.98 774.66,191.27 767.17,194.86 C765.837739,195.410203 764.765035,196.44715 764.17,197.76 C764.120645,197.914128 764.080573,198.071076 764.05,198.23 C764.029946,198.432839 764.029946,198.637161 764.05,198.84 C764.147133,199.276417 764.190787,199.723034 764.18,200.17 C764.004512,200.792507 763.538824,201.291724 762.93,201.51 C760.47,202.6 757.5,201.19 754.93,202.06 C752.58,202.86 751.28,205.33 750.55,207.69 C749.82,210.05 749.35,212.58 747.76,214.47 C746.96,215.47 745.91,216.14 745.08,217.07 C743.559134,218.816503 742.86974,221.13637 743.19,223.43 C743.185214,223.489905 743.185214,223.550095 743.19,223.61 C743.19,223.91 743.3,224.21 743.38,224.51 C743.484548,224.851324 743.61149,225.185382 743.76,225.51 C743.9,225.8 744.05,226.08 744.21,226.36 C745.33,228.25 747,229.89 747.42,232.03 C747.42,232.03 747.42,232.09 747.42,232.11 C747.91,234.86 746.16,237.48 745.72,240.22 C745.72,240.44 745.66,240.65 745.65,240.87 C745.65,240.87 745.65,240.87 745.65,240.93 C745.65,241.15 745.65,241.38 745.65,241.61 C745.8,245.61 749.47,248.26 751.65,251.2 C752.23,251.98 753.31,254.25 754.47,255.1 C754.53,255.53 754.6,255.95 754.69,256.36 C755.299574,259.607165 756.398773,262.74292 757.95,265.66 C761.736407,272.776199 767.927977,278.315651 775.42,281.29 C775.42,281.68 775.5,282.08 775.54,282.48 C775.54,283.22 775.64,283.98 775.64,284.72 C775.64,285.08 775.64,285.44 775.64,285.8 L775.31,283.26 C774.071562,283.001532 772.794873,282.984555 771.55,283.21 C718.051191,232.765275 647.300897,204.666197 573.77,204.66 L573.77,342.75 C565.51,340.27 558.77,339.99 559.27,345.83 C559.73,351.83 566.27,357.91 573.77,362.94 L573.77,494.03 L718.01,494.03 C718.16,497.37 718.46,500.37 719.01,501.1 C720.56,502.98 720.42,525.5 720.42,525.5 C720.42,525.5 721.18,529.63 721.37,530.37 C721.56,531.11 723.82,550.23 723.82,551.16 C723.82,552.09 725.9,558.66 725.71,561.28 C725.52,563.9 729.11,572.51 729.11,572.51 L729.67,588.25 C729.67,588.25 735.52,597.06 735.9,597.62 C736.28,598.18 736.09,609.23 742.5,614.48 C743.512404,615.444957 744.233153,616.675083 744.58,618.03 C745.06,619.93 761.16,646.97 766.14,655.31 L765.54,658.14 L761.54,676.85 L761.35,684.72 C761.35,684.72 758.89,691.46 759.65,694.27 C760.109641,695.723095 760.239458,697.260403 760.03,698.77 C760.03,698.77 757.39,702.88 759.09,705.51 C760.79,708.14 759.84,709.63 757.39,716.37 C756.31,719.37 757.24,721.14 758.62,722.24 C758.62,722.57 758.54,722.92 758.5,723.24 C758.15,726.24 757.76,729.67 757.76,730.58 C757.76,731.49 757.41,735.58 757.39,739.18 C757.39,742.03 757.57,744.59 758.33,745.01 C760.03,745.94 769.47,747.01 769.65,750.25 C769.83,753.49 773.43,758.11 780.97,758.11 C788.51,758.11 801.54,755.49 804.74,755.86 C805.27,755.93 805.58,755.58 805.74,754.96 C805.769144,754.854688 805.792512,754.747862 805.81,754.64 C806.946438,755.92685 808.508502,756.761135 810.21,756.99 C821.53,759.06 835.3,753.99 837.95,748.94 C838.279923,748.305011 838.534965,747.633846 838.71,746.94 C839.97,741.94 837.95,735.65 837.95,735.65 C837.346816,733.112855 837.265166,730.479641 837.71,727.91 C837.939127,726.753332 838.474403,725.679327 839.26,724.8 C841.07,722.9 842.82,717.68 844,713.48 C844.91,710.21 845.49,707.55 845.49,707.55 C845.49,707.55 844.3,705.73 842.49,703.23 C838.86,698.14 832.73,690.23 828.9,688.88 C828.711244,688.507684 828.576554,688.11035 828.5,687.7 C828.32,685.83 824.35,679.7 824.35,679.7 C824.35,679.7 818.88,670.89 818.88,670.15 C818.88,669.41 811.34,657.97 811.34,657.97 C811.34,657.97 808.44,651.68 806.53,648.27 C806.75,647.67 806.97,646.91 807.2,646.01 C809.2,638.13 811.2,620.14 810.77,617.7 C810.2,614.7 809.77,611.52 812.65,607.21 C815.53,602.9 815.3,595.98 815.3,595.98 C815.3,595.98 815.11,574.8 817.18,570.5 C819.25,566.2 825.1,531.73 824.92,530.97 C824.74,530.21 826.42,525.5 826.42,525.5 L826.77,511.91 L826.77,511.08 C826.77,511.08 828.09,499.28 829.77,496.65 C830.122236,495.839465 830.299431,494.963713 830.29,494.08 L861.42,494.08 C861.42,492.2 861.35,490.33 861.3,488.46 L861.42,488.46 C861.319379,475.349988 860.317012,462.262427 858.42,449.29 C861.34,445.75 864.87,443.29 864.98,442.53 C865.477709,440.225468 866.170196,437.967357 867.05,435.78 C868.31,431.99 866.8,424.5 866.8,424.5 Z M803.97,717.63 C803.97,717.63 804.77,717.15 806.07,716.48 C806.15,716.8 806.23,717.14 806.31,717.48 C807.15,721.1 808.16,726.12 807.93,728.48 C807.54,732.41 806.93,738.6 806.93,738.6 C805.871944,740.835754 805.07018,743.184015 804.54,745.6 C803.94,743.13 803.35,741.18 803.35,741.18 C803.35,741.18 790.51,732.58 790.51,728.26 C790.423223,726.093434 790.128537,723.940213 789.63,721.83 L789.63,721.83 C789.52,721.29 789.4,720.77 789.28,720.26 C789.838085,720.938634 790.314672,721.680364 790.7,722.47 C790.7,722.47 794.53,713.18 795.45,709.47 C795.616931,709.016464 795.671822,708.529311 795.61,708.05 C795.329731,706.790359 795.252089,705.494089 795.38,704.21 C796.28,705.21 796.97,706.21 796.74,706.93 C796.22,708.64 803.97,717.63 803.97,717.63 Z" id="path63" fill="url(#linearGradient-1)" fill-rule="nonzero"></path>
            <path d="M805.01,756.85 C801.85,756.48 789.01,759.08 781.55,759.08 C774.09,759.08 770.55,754.44 770.38,751.26 C770.21,748.08 760.89,746.99 759.21,746.06 C758.47,745.64 758.28,743.06 758.28963,740.26 C758.28963,736.69 758.65,732.65 758.65,731.71 C758.65,730.77 759.03,727.39 759.38,724.42 C759.68,721.85 759.96,719.62 759.96,719.62 C768.71,709.01 788.64,716.82 788.64,716.82 C788.64,716.82 789.49,719.77 790.18,723.07 L790.18,723.07 C790.670506,725.167864 790.961799,727.307362 791.05,729.46 C791.05,733.75 803.72,742.31 803.72,742.31 C804.577534,745.213626 805.278543,748.161203 805.82,751.14 C806.33,754.29 806.42,757.02 805.01,756.85 Z" id="path65" fill="#1D262E" fill-rule="nonzero"></path>
            <path d="M805.01,756.84 C801.85,756.48 789.01,759.08 781.56,759.08 C774.11,759.08 770.56,754.43 770.39,751.26 C770.22,748.09 760.89,746.98 759.21,746.05 C758.47,745.64 758.28,743.05 758.28963,740.26 C761.85,741.34 766.81,743.11 768.53,744.94 C771.32,747.94 772.06,751.26 773.93,751.64 C775.8,752.02 777.65,754.64 786.58,752.38 C792.16,750.98 800.4,750.97 805.82,751.16 C806.33,754.29 806.42,757.01 805.01,756.84 Z" id="path67" fill="#000000" fill-rule="nonzero" opacity="0.1"></path>
            <path d="M839.08,725.95 C835.92,729.3 837.79,736.74 837.79,736.74 C837.79,736.74 840.39,744.94 837.79,749.97 C835.19,755 821.59,759.97 810.42,757.97 C808.254247,757.724471 806.351248,756.420841 805.34,754.49 C802.61,749.11 807.25,739.72 807.25,739.72 C807.25,739.72 807.81,733.58 808.19,729.67 C808.41,727.31 807.41,722.32 806.59,718.72 C806.04,716.36 805.59,714.59 805.59,714.59 C805.59,714.59 822.59,690.2 827.75,690.02 C827.996027,690.008079 828.242394,690.035078 828.48,690.1 C832.22,691.02 838.59,699.28 842.3,704.51 C844.07,707.01 845.25,708.82 845.25,708.82 C845.25,708.82 842.26,722.6 839.08,725.95 Z" id="path69" fill="#1D262E" fill-rule="nonzero"></path>
            <path d="M839.08,725.95 C835.92,729.3 837.79,736.74 837.79,736.74 C837.79,736.74 840.39,744.94 837.79,749.96 C835.19,754.98 821.59,760.02 810.42,757.96 C808.256915,757.714882 806.355069,756.415787 805.34,754.49 C808.56,753.81 813.63,752.94 821.59,752.01 C840.76,749.77 835.73,737.12 835.73,737.12 C835.73,737.12 833.5,728.18 836.29,723.71 C838.29,720.54 840.92,710.21 842.29,704.51 C844.07,707 845.24,708.81 845.24,708.81 C845.24,708.81 842.26,722.6 839.08,725.95 Z" id="path71" fill="#000000" fill-rule="nonzero" opacity="0.1"></path>
            <path d="M790.18,723.07 C787.51,719.42 779.61,712.39 763.68,726.13 C762.122123,725.944531 760.63979,725.355045 759.38,724.42 C759.68,721.85 759.96,719.62 759.96,719.62 C768.71,709.01 788.64,716.82 788.64,716.82 C788.64,716.82 789.49,719.77 790.18,723.07 Z" id="path73" fill="#000000" fill-rule="nonzero" opacity="0.1"></path>
            <g id="path75" fill-rule="nonzero">
                <use fill="#575A88" xlink:href="#path-2"></use>
                <use fill="#001F3F" xlink:href="#path-2"></use>
            </g>
            <path d="M806.01,511.78 L779.1,529.5 L780.1,545.01 C780.1,545.01 782.89,569.96 782.89,572.56 C782.89,575.16 781.58,596.39 781.58,596.39 C781.58,596.39 788.29,606.39 787.58,608.87 C786.87,611.35 793.34,618.17 793.34,618.17 L804.42,639.37 C804.42,639.37 806.29,646.29 807.42,647.59 C807.207208,648.834832 806.755575,650.026735 806.09,651.1 C803.86,653.33 796.04,701.55 796.04,701.55 C796.04,701.55 795.97,702.37 795.9,703.49 C795.33,702.98 794.9,702.67 794.9,702.67 C794.9,702.67 789.5,693.73 789.5,692.81 C789.5,691.89 783.73,684.43 783.73,684.43 L770.57,659.3 L767.49,654.09 L768.71,648.3 L777.28,499.56 L821.21,492.3 L822.71,503.83 L782.71,514.02 L806.01,511.78 Z" id="path77" fill="#000000" fill-rule="nonzero" opacity="0.1"></path>
            <path d="M824.56,513.5 L775.42,531.25 L777.24,499.56 L821.17,492.3 L822.67,503.83 L825.05,509.49 C824.75,511.78 824.56,513.5 824.56,513.5 Z" id="path79" fill="#000000" fill-rule="nonzero" opacity="0.1"></path>
            <path d="M796.08,709.37 C796.140192,709.846032 796.085324,710.329558 795.92,710.78 C795.23,709.63 794.81,708.69 794.92,708.26 C795.48,706.58 790.45,702.67 790.45,702.67 C790.45,702.67 785.06,693.73 785.06,692.81 C785.06,691.89 779.28,684.43 779.28,684.43 L766.28,659.69 L767.46,654.09 L768.68,648.3 L775.21,535.5 L775.6,545.03 C775.6,545.03 778.42,569.93 778.42,572.5 C778.42,575.07 777.12,596.33 777.12,596.33 C777.12,596.33 783.82,606.33 783.12,608.81 C782.42,611.29 788.89,618.11 788.89,618.11 L800.06,639.34 C800.06,639.34 802.06,646.98 803.23,647.72 C804.243204,649.012117 805.08985,650.426553 805.75,651.93 C803.07,658.84 796.15,701.52 796.15,701.52 C796.15,701.52 796.08,702.34 796.01,703.46 C795.82,705.55 795.71,708.65 796.08,709.37 Z" id="path81" fill="#000000" fill-rule="nonzero" opacity="0.1"></path>
            <path d="M833.69,699.13 C833.69,699.13 825.31,714.21 818.98,714.59 C814.71,714.84 809.51,717.2 806.59,718.72 C806.04,716.36 805.59,714.59 805.59,714.59 C805.59,714.59 822.59,690.2 827.75,690.02 C827.996027,690.008079 828.242394,690.035078 828.48,690.1 C828.48,690.1 828.48,690.17 828.48,690.19 C828.66,692.06 833.69,699.13 833.69,699.13 Z" id="path83" fill="#000000" fill-rule="nonzero" opacity="0.1"></path>
            <g id="path85" fill-rule="nonzero">
                <use fill="#2F2E41" xlink:href="#path-3"></use>
                <use fill="#575A88" xlink:href="#path-3"></use>
                <use fill="#001F3F" xlink:href="#path-3"></use>
            </g>
            <path d="M766.67,604.18 C766.67,604.18 775.79,614.61 780.44,614.8 C785.09,614.99 766.67,604.18 766.67,604.18 Z" id="path87" fill="#000000" fill-rule="nonzero" opacity="0.1"></path>
            <path d="M801.48,706.58 C801.48,706.58 829.03,692.43 825.48,698.95 C821.93,705.47 811.89,708.95 811.89,708.95 L801.48,706.58 Z" id="path89" fill="#000000" fill-rule="nonzero" opacity="0.1"></path>
            <path d="M765.55,703.42 C765.55,703.42 782.49,704.53 784.72,707.33 C784.72,707.33 766.67,703.6 765.55,703.42 Z" id="path91" fill="#000000" fill-rule="nonzero" opacity="0.1"></path>
            <path d="M765.73,709.19 C765.73,709.19 781.19,709.75 786.21,711.98 C786.21,711.98 769.83,711.42 765.73,709.19 Z" id="path93" fill="#000000" fill-rule="nonzero" opacity="0.1"></path>
            <path d="M613.42,384.5 L608.52,382.26 L600.76,378.72 C600.76,378.72 563.9,364.01 562.76,349.31 C561.62,334.61 605.76,358.99 605.76,358.99 C606.972748,360.930653 608.340545,362.769989 609.85,364.49 C611.26,366.07 612.85,367.41 614.14,367.55 C617.54,367.92 613.42,384.5 613.42,384.5 Z" id="path95" fill="#C37871" fill-rule="nonzero"></path>
            <path d="M818.42,304.81 L806.32,318.81 L776.91,309.14 L769.65,303.36 L774.29,297.22 C775.88,295.12 776.36,291.92 776.29,288.62 C776.29,287.88 776.29,287.12 776.19,286.38 C775.85439,282.674326 775.157751,279.010276 774.11,275.44 C774.11,275.44 815.99,264.82 813.01,273.57 C812.433843,275.38796 812.196572,277.296301 812.31,279.2 C812.50069,282.309301 813.116413,285.377826 814.14,288.32 C814.991983,290.927712 816.045147,293.465337 817.29,295.91 L818.42,304.81 Z" id="path97" fill="#C37871" fill-rule="nonzero"></path>
            <path d="M813.02,273.5 C812.443843,275.31796 812.206572,277.226301 812.32,279.13 C802.792001,288.517597 788.593938,291.339914 776.2,286.31 C775.86439,282.604326 775.167751,278.940276 774.12,275.37 C774.12,275.37 816,264.78 813.02,273.5 Z" id="path99" fill="#000000" fill-rule="nonzero" opacity="0.1"></path>
            <path d="M822.33,254.17 C822.33,254.97 822.33,255.77 822.24,256.56 C821.176146,271.506699 810.318612,283.930373 795.649068,286.986528 C780.979524,290.042683 766.064079,282.98838 759.12,269.71 C757.595277,266.807279 756.513307,263.692823 755.91,260.47 C755.49897,258.395319 755.294638,256.284998 755.299897,254.17 C755.300786,252.330408 755.45465,250.494072 755.76,248.68 C758.574904,231.693426 773.808277,219.606937 790.989986,220.727764 C808.171694,221.848591 821.705756,235.811687 822.29,253.02 C822.32,253.4 822.33,253.79 822.33,254.17 Z" id="path101" fill="#C37871" fill-rule="nonzero"></path>
            <path d="M818.42,304.81 L806.32,318.81 L776.91,309.14 L769.65,303.36 L774.29,297.22 C775.88,295.12 776.36,291.92 776.29,288.62 L777.63,298.89 L777.95,299.21 L779.87,301.13 L782.29,301.13 L786.95,307.46 C786.95,307.46 793.65,302.07 794.21,303.36 C794.77,304.65 803.89,301.13 803.89,301.13 L804.24,301.13 C812.5,300.78 813.94,288.48 813.94,288.48 C813.94,288.48 814.07,288.37 814.14,288.33 C814.991983,290.937712 816.045147,293.475337 817.29,295.92 L818.42,304.81 Z" id="path103" fill="#000000" fill-rule="nonzero" opacity="0.1"></path>
            <path d="M830.1,486.74 C829.89,487.55 829.66,488.34 829.41,489.13 C822.15,512.21 769.83,512.77 769.83,512.77 L768.34,498.44 L763.34,508.12 C763.34,508.12 730.96,499.18 719.39,492.79 C719.33,488.96 719.39,485.59 719.39,485.59 L829.04,474.23 C829.04,474.23 829.71,480.5 830.1,486.74 Z" id="path105" fill="#000000" fill-rule="nonzero" opacity="0.1"></path>
            <path d="M613.42,384.5 L608.52,382.26 C609.65,376.94 609.85,366.38 609.88,364.49 C611.29,366.07 612.88,367.41 614.17,367.55 C617.54,367.92 613.42,384.5 613.42,384.5 Z" id="path107" fill="#000000" fill-rule="nonzero" opacity="0.1"></path>
            <g id="path109" fill-rule="nonzero">
                <use fill="#575A88" xlink:href="#path-4"></use>
                <use fill="#FFE79A" xlink:href="#path-4"></use>
                <use fill="#0074D9" xlink:href="#path-4"></use>
            </g>
            <path d="M833.32,479.07 L827.82,483.5 L821.59,488.5 C821.59,488.5 810.04,515.5 794.22,507.87 C778.4,500.24 815.42,472 815.42,472 L820.54,469.52 L826.21,466.78 L833.32,479.07 Z" id="path111" fill="#C37871" fill-rule="nonzero"></path>
            <path d="M776.84,302.5 C771.09,304.89 763.84,310.57 763.84,310.57 L763.57,295.68 C765.08,294.73 766.88,292.12 768.68,290.46 C770.91,288.46 774.82,289.35 774.82,289.35 L776.5,302.19 L776.84,302.5 Z" id="path113" fill="#000000" fill-rule="nonzero" opacity="0.1"></path>
            <path d="M777.96,300.28 C772.21,302.67 764.96,308.35 764.96,308.35 L764.72,293.5 C766.23,292.56 768.03,289.94 769.83,288.29 C772.06,286.24 775.97,287.17 775.97,287.17 L777.65,300.02 L777.96,300.28 Z" id="path115" fill="#E6EAED" fill-rule="nonzero"></path>
            <path d="M822.88,304.95 C820.02,312.61 816.46,321.09 815.82,317.84 C815.05,313.99 808.34,308.55 804.25,305.54 C812.51,305.2 813.95,292.9 813.95,292.9 C818.05,289.36 821.59,304.26 821.59,304.26 L822.88,304.95 Z" id="path117" fill="#000000" fill-rule="nonzero" opacity="0.1"></path>
            <path d="M822.88,301.6 C820.02,309.26 816.46,317.74 815.82,314.49 C815.05,310.64 808.34,305.2 804.25,302.19 C812.51,301.84 813.95,289.55 813.95,289.55 C818.05,286 821.59,300.91 821.59,300.91 L822.88,301.6 Z" id="path119" fill="#E6EAED" fill-rule="nonzero"></path>
            <path d="M784.91,595.62 C784.91,595.62 806.13,592.62 805.2,597.11 C804.27,601.6 784.91,595.62 784.91,595.62 Z" id="path121" fill="#000000" fill-rule="nonzero" opacity="0.1"></path>
            <path d="M750.65,522.5 C750.65,522.5 759.03,518.03 766.48,519.9 L750.65,522.5 Z" id="path123" fill="#000000" fill-rule="nonzero" opacity="0.1"></path>
            <path d="M737.06,510.35 C737.06,510.35 750.47,508.3 755.49,510.54 L737.06,510.35 Z" id="path125" fill="#000000" fill-rule="nonzero" opacity="0.1"></path>
            <path d="M795.71,541.07 C795.71,541.07 783.98,553.54 784.71,556.89 L795.71,541.07 Z" id="path127" fill="#000000" fill-rule="nonzero" opacity="0.1"></path>
            <path d="M681.21,373.7 C681.21,373.7 679.35,380.4 690.71,383.19 L681.21,373.7 Z" id="path129" fill="#000000" fill-rule="nonzero" opacity="0.1"></path>
            <path d="M677.86,385.24 C677.86,385.24 691.86,397.71 685.31,398.09 C678.76,398.47 677.86,385.24 677.86,385.24 Z" id="path131" fill="#000000" fill-rule="nonzero" opacity="0.1"></path>
            <path d="M708.95,335.16 C708.95,335.16 726.08,347.07 724.95,349.87 C723.82,352.67 708.95,335.16 708.95,335.16 Z" id="path133" fill="#000000" fill-rule="nonzero" opacity="0.1"></path>
            <path d="M833.32,479.07 L827.82,483.5 C826.67,479.56 824.29,472.96 820.57,469.5 L826.24,466.76 L833.32,479.07 Z" id="path135" fill="#000000" fill-rule="nonzero" opacity="0.1"></path>
            <g id="path137" fill-rule="nonzero">
                <use fill="#575A88" xlink:href="#path-5"></use>
                <use fill="#FFE79A" xlink:href="#path-5"></use>
                <use fill="#0074D9" xlink:href="#path-5"></use>
            </g>
            <path d="M823.04,434.15 C823.04,434.15 800.7,443.46 802.56,446.44 C804.42,449.42 823.04,434.15 823.04,434.15 Z" id="path139" fill="#000000" fill-rule="nonzero" opacity="0.1"></path>
            <path d="M823.04,446.06 C823.04,446.06 813.75,450.17 814.52,451.48 C815.29,452.79 823.04,446.06 823.04,446.06 Z" id="path141" fill="#000000" fill-rule="nonzero" opacity="0.1"></path>
            <path d="M817.83,453.88 C817.83,453.88 808.54,457.99 809.31,459.3 C810.08,460.61 817.83,453.88 817.83,453.88 Z" id="path143" fill="#000000" fill-rule="nonzero" opacity="0.1"></path>
            <path d="M822.33,254.17 C822.33,254.97 822.33,255.77 822.24,256.56 C822.098221,256.654684 821.951332,256.741483 821.8,256.82 C821.233636,257.024525 820.682288,257.268455 820.15,257.55 C818.52,258.66 818.89,261.08 819.04,263.04 C819.273205,265.876707 818.682928,268.720452 817.34,271.23 C816.025094,271.094051 814.964062,270.094469 814.75,268.79 C814.571586,267.521634 814.517997,266.238827 814.59,264.96 C814.43,261.54 812.59,258.49 811.39,255.27 C809.17,249.1 809.66,242.27 808.18,235.9 C807.75,234.02 807.05,232.02 805.45,230.9 C803.33,229.44 800.39,230.08 798.11,231.27 C795.83,232.46 793.79,234.2 791.32,234.95 C787.51,236.1 783.46,234.71 779.67,233.53 C775.88,232.35 771.59,231.35 768.05,233.16 C764.33,235.07 762.66,239.42 761.52,243.46 C761.145598,244.567357 760.966269,245.731303 760.99,246.9 C761.06,247.9 761.45,248.95 761.42,250 C761.42,252.24 759.51,254 758.77,256.12 C758.31,257.43 758.42,260.66 756.52,260.64 C756.303316,260.632462 756.092638,260.566841 755.91,260.45 C755.49897,258.375319 755.294638,256.264998 755.299897,254.15 C755.300786,252.310408 755.45465,250.474072 755.76,248.66 C758.574904,231.673426 773.808277,219.586937 790.989986,220.707764 C808.171694,221.828591 821.705756,235.791687 822.29,253 C822.32,253.4 822.33,253.79 822.33,254.17 Z" id="path153" fill="#000000" fill-rule="nonzero" opacity="0.1"></path>
            <g id="Group" transform="translate(535.000000, 613.500000) scale(1, -1) translate(-535.000000, -613.500000) translate(392.000000, 471.000000)">
                <g id="Polygon">
                    <use fill="#FFE79A" xlink:href="#path-6"></use>
                    <use fill="#FF767F" xlink:href="#path-6"></use>
                </g>
                <path d="M286,285 L0,282.004228 L0,0 C95.3333333,5.94858469 165.574276,35.4643188 210.722828,88.5472023 C256.474412,134.138816 281.566803,199.623082 286,285 Z" id="Polygon" fill-opacity="0.2" fill="#000000"></path>
                <g id="Polygon">
                    <use fill="#FFE79A" xlink:href="#path-7"></use>
                    <use fill="#FF767F" xlink:href="#path-7"></use>
                </g>
            </g>
            <path d="M746.97,245.8 C746.85,242.57 749.3,239.55 748.74,236.37 C748.3,233.88 746.14,232.07 745.09,229.77 C743.856145,226.949696 744.349997,223.671609 746.36,221.34 C747.18,220.42 748.21,219.7 749,218.76 C750.57,216.88 751,214.35 751.75,212.01 C752.5,209.67 753.75,207.22 756.08,206.42 C758.59,205.56 761.53,206.96 763.95,205.87 C764.54645,205.650436 765.003032,205.160446 765.18,204.55 C765.200789,204.102723 765.157005,203.654785 765.05,203.22 C764.88,201.44 766.57,200.05 768.19,199.27 C775.59,195.7 784.33,197.4 792.35,199.17 C792.216113,197.54164 792.334168,195.902372 792.7,194.31 C797.76,194.87 803.21,195.61 806.87,199.13 C809.14,201.32 810.41,204.3 811.87,207.06 C813.33,209.82 815.33,212.59 818.26,213.74 C819.21792,213.972197 820.117,214.401304 820.9,215 C821.340638,215.488739 821.680466,216.059651 821.9,216.68 L823.82,221.41 C824.018863,221.987042 824.31664,222.52507 824.7,223 C825.210547,223.466782 825.778446,223.866664 826.39,224.19 C830.11,226.62 830.66,231.97 829.5,236.27 C828.34,240.57 825.92,244.46 825,248.82 C824.46,251.39 824.15,254.53 821.8,255.7 C821.234192,255.909787 820.682974,256.157 820.15,256.44 C818.52,257.54 818.88,259.96 819.04,261.92 C819.273983,264.755594 818.687322,267.598643 817.35,270.11 C816.033573,269.977378 814.970831,268.976185 814.76,267.67 C814.577797,266.402004 814.520856,265.119152 814.59,263.84 C814.43,260.42 812.59,257.37 811.39,254.15 C809.17,247.98 809.66,241.15 808.19,234.78 C807.75,232.89 807.04,230.9 805.44,229.78 C803.32,228.31 800.38,228.94 798.1,230.15 C795.82,231.36 793.79,233.07 791.32,233.82 C787.51,234.96 783.46,233.59 779.66,232.39 C775.86,231.19 771.59,230.22 768.05,232.03 C764.33,233.94 762.67,238.3 761.53,242.33 C761.149982,243.436449 760.963914,244.60022 760.98,245.77 C761.06,246.77 761.44,247.83 761.42,248.87 C761.42,251.12 759.51,252.87 758.77,255 C758.31,256.31 758.42,259.53 756.52,259.52 C755.08,259.52 753.62,256.26 752.91,255.31 C750.74,252.42 747.12,249.75 746.97,245.8 Z" id="path155" fill="#1D262E" fill-rule="nonzero"></path>
            <g id="g169" opacity="0.1" transform="translate(744.000000, 196.000000)" fill="#000000" fill-rule="nonzero">
                <path d="M4.74,38.13 C4.3,35.64 2.14,33.84 1.09,31.54 C0.795355796,30.8852559 0.596645157,30.1914526 0.5,29.48 C0.28726506,30.9370217 0.491836718,32.4245004 1.09,33.77 C2.09,36.05 4.24,37.84 4.72,40.28 C4.84672194,39.5694824 4.85348222,38.8427521 4.74,38.13 L4.74,38.13 Z" id="path157"></path>
                <path d="M21.18,6.31 C21.1852804,6.25679737 21.1852804,6.20320263 21.18,6.15 C21.1247988,6.3023878 21.0846082,6.45980122 21.06,6.62 C21.1148023,6.52302364 21.1552245,6.41859965 21.18,6.31 L21.18,6.31 Z" id="path159"></path>
                <path d="M48.35,0.94 C48.3450136,0.863414413 48.3450136,0.786585587 48.35,0.71 C48.35,0.78 48.35,0.86 48.35,0.93 L48.35,0.94 Z" id="path161"></path>
                <path d="M85.5,38.03 C84.35,42.33 81.92,46.23 81,50.58 C80.46,53.16 80.15,56.29 77.8,57.47 C77.2361011,57.6806204 76.6851408,57.9243786 76.15,58.2 C74.8,59.12 74.82,60.94 74.96,62.66 C75.0006982,61.7781637 75.438151,60.9620753 76.15,60.44 C76.6829736,60.1570003 77.2341918,59.9097873 77.8,59.7 C80.15,58.53 80.46,55.39 81,52.82 C81.92,48.46 84.35,44.57 85.5,40.27 C85.9620606,38.5881184 86.1311962,36.8392565 86,35.1 C85.9261302,36.0902521 85.7587173,37.0712919 85.5,38.03 Z" id="path163"></path>
                <path d="M73.35,71.88 C72.033573,71.7473783 70.9708308,70.7461849 70.76,69.44 C70.5780415,68.1686255 70.5211027,66.8824801 70.59,65.6 C70.43,62.19 68.59,59.13 67.39,55.92 C65.17,49.75 65.66,42.92 64.19,36.55 C63.75,34.66 63.04,32.67 61.44,31.55 C59.32,30.09 56.38,30.72 54.1,31.92 C51.82,33.12 49.79,34.85 47.32,35.59 C43.51,36.74 39.46,35.36 35.66,34.17 C31.86,32.98 27.59,31.99 24.05,33.81 C20.33,35.72 18.67,40.08 17.53,44.1 C17.1498187,45.2098607 16.9637623,46.376942 16.98,47.55 C16.98,47.78 17.04,48.02 17.08,48.25 C17.1885946,47.6042833 17.3389094,46.9662805 17.53,46.34 C18.67,42.34 20.33,37.95 24.05,36.04 C27.59,34.23 31.87,35.21 35.66,36.4 C39.45,37.59 43.51,38.97 47.32,37.83 C49.79,37.08 51.82,35.36 54.1,34.16 C56.38,32.96 59.32,32.32 61.44,33.79 C63.04,34.88 63.75,36.87 64.19,38.79 C65.66,45.18 65.19,51.99 67.39,58.16 C68.54,61.38 70.39,64.43 70.59,67.85 C70.5208556,69.1291521 70.5777968,70.4120043 70.76,71.68 C70.9708308,72.9861849 72.033573,73.9873783 73.35,74.12 C74.6749894,71.6292263 75.2645733,68.813096 75.05,66 C74.8935005,68.0560111 74.3147874,70.0576775 73.35,71.88 Z" id="path165"></path>
                <path d="M14.77,56.79 C14.31,58.1 14.42,61.32 12.52,61.31 C11.08,61.31 9.62,58.06 8.91,57.11 C6.91,54.4 3.65,51.91 3.06,48.42 C2.98529188,48.8759898 2.95514974,49.3381694 2.97,49.8 C3.12,53.75 6.74,56.42 8.91,59.34 C9.62,60.34 11.08,63.54 12.52,63.55 C14.42,63.55 14.31,60.34 14.77,59.03 C15.51,56.91 17.37,55.15 17.42,52.9 C17.4184729,52.4695974 17.3715465,52.0405567 17.28,51.62 C16.85,53.43 15.42,54.98 14.77,56.79 Z" id="path167"></path>
            </g>
            <path d="M174.83,795.26 C175.27,793.18 174.39,790.68 172.4,789.92 C170.17,789.07 167.79,790.62 165.99,792.18 C164.19,793.74 162.11,795.52 159.75,795.18 C162.222019,792.937827 163.337798,789.563923 162.69,786.29 C162.586552,785.626261 162.302917,785.003647 161.87,784.49 C160.63,783.16 158.39,783.73 156.87,784.77 C152.16,788.09 150.87,794.48 150.82,800.24 C150.35,798.16 150.75,796 150.73,793.87 C150.71,791.74 150.14,789.38 148.34,788.23 C147.220144,787.62731 145.961128,787.330665 144.69,787.37 C142.58,787.3 140.22,787.51 138.77,789.06 C136.98,790.98 137.44,794.21 139,796.33 C140.56,798.45 142.94,799.77 145.13,801.23 C146.886165,802.275695 148.383427,803.704589 149.51,805.41 C149.641578,805.649939 149.751996,805.900888 149.84,806.16 L163.11,806.16 C166.100694,804.655843 168.872793,802.751707 171.35,800.5 C173.013476,799.145684 174.226917,797.318547 174.83,795.26 Z" id="path49" fill="#57B894" fill-rule="nonzero"></path>
            <g id="Group" transform="translate(574.000000, 206.000000)">
                <path d="M286,285 L0,282.004228 L0,0 C95.3333333,5.94858469 165.574276,35.4643188 210.722828,88.5472023 C256.474412,134.138816 281.566803,199.623082 286,285 Z" id="Polygon" fill="#57B894"></path>
                <path d="M286,285 L0,282.004228 L0,0 C95.3333333,5.94858469 165.574276,35.4643188 210.722828,88.5472023 C256.474412,134.138816 281.566803,199.623082 286,285 Z" id="Polygon" fill-opacity="0.2" fill="#000000"></path>
                <path d="M286,279.59 L4,276.5 L4,0 C96.6666667,5.94858469 165.574276,35.4643188 210.722828,88.5472023 C256.474412,134.138816 281.566803,197.819749 286,279.59 Z" id="Polygon" fill="#57B894"></path>
            </g>
            <g id="Group" transform="translate(243.000000, 322.500000) scale(-1, 1) rotate(-1.000000) translate(-243.000000, -322.500000) translate(100.000000, 180.000000)">
                <path d="M286,285 L0,282.004228 L0,0 C95.3333333,5.94858469 165.574276,35.4643188 210.722828,88.5472023 C256.474412,134.138816 281.566803,199.623082 286,285 Z" id="Polygon" fill="#0074D9"></path>
                <path d="M286,285 L0,282.004228 L0,0 C95.3333333,5.94858469 165.574276,35.4643188 210.722828,88.5472023 C256.474412,134.138816 281.566803,199.623082 286,285 Z" id="Polygon" fill-opacity="0.2" fill="#000000"></path>
                <path d="M286,279.59 L4,276.5 L4,0 C96.6666667,5.94858469 165.574276,35.4643188 210.722828,88.5472023 C256.474412,134.138816 281.566803,197.819749 286,279.59 Z" id="Polygon" fill="#0074D9"></path>
            </g>
            <g id="Group" transform="translate(241.000000, 612.500000) scale(-1, -1) translate(-241.000000, -612.500000) translate(98.000000, 470.000000)">
                <g id="Polygon">
                    <use fill="#FF767F" xlink:href="#path-8"></use>
                    <use fill="#FFE79A" xlink:href="#path-8"></use>
                </g>
                <path d="M286,285 L0,282.004228 L0,0 C95.3333333,5.94858469 165.574276,35.4643188 210.722828,88.5472023 C256.474412,134.138816 281.566803,199.623082 286,285 Z" id="Polygon" fill-opacity="0.2" fill="#000000"></path>
                <g id="Polygon">
                    <use fill="#FF767F" xlink:href="#path-9"></use>
                    <use fill="#FFE79A" xlink:href="#path-9"></use>
                </g>
            </g>
            <path d="M796.3466,493.52 C796.321542,491.977044 796.783422,490.465439 797.6666,489.2 C798.552277,488.338219 799.648916,487.724377 800.8466,487.42 C801.9066,487.07 802.9766,486.74 804.0466,486.42 C804.878401,486.142099 805.749604,486.000275 806.6266,486 C808.4066,486.07 809.9466,487.17 811.3766,488.22 C811.658809,488.396403 811.892537,488.640442 812.0566,488.93 C812.3766,489.67 811.6866,490.44 811.0566,490.93 C808.853514,492.889553 806.473305,494.640396 803.9466,496.16 C802.1666,497.16 799.8066,498.29 797.7166,498.31 C795.1466,498.38 796.1766,495.38 796.3466,493.52 Z" id="path151" fill="#C37871" fill-rule="nonzero"></path>
        </g>
    </g>
</svg>